<svg version="1.1" id="Layer_1" xmlns="http://www.w3.org/2000/svg" xmlns:xlink="http://www.w3.org/1999/xlink" x="0px" y="0px"
	 width="100%" viewBox="0 0 1706 858" enable-background="new 0 0 1706 858" xml:space="preserve">
<path fill="#FFFFFF" opacity="1.000000" stroke="none" 
	d="
M1.000005,550.000000 
	C1.000000,367.014465 1.000000,184.028946 1.000000,1.021712 
	C569.607239,1.021712 1138.214478,1.021712 1706.910889,1.021712 
	C1706.910889,286.917908 1706.910889,572.835815 1706.910889,858.876892 
	C1138.333374,858.876892 569.666687,858.876892 1.000004,858.879028 
	C1.000000,756.889893 1.000000,654.898560 1.326030,552.539185 
	C7.438833,557.614746 12.849697,563.539185 19.082809,568.411926 
	C37.841663,583.076538 59.245049,592.087585 82.970016,593.742676 
	C98.693291,594.839539 114.659798,595.127441 130.259109,591.021851 
	C158.835541,583.501099 181.327927,567.974670 194.372131,540.946655 
	C202.554550,523.992493 205.557800,505.944397 204.259171,486.837219 
	C203.064011,469.252472 196.777863,454.477478 184.604294,442.293732 
	C174.964432,432.645813 163.246353,425.743347 150.434006,421.048035 
	C128.080521,412.856140 105.493820,405.290283 83.233276,396.859009 
	C69.878334,391.800781 58.158089,383.779419 49.236404,372.449677 
	C39.180374,359.679474 38.171452,344.758087 41.064785,329.510162 
	C45.340683,306.976105 58.751987,291.902344 80.171761,283.960846 
	C93.527298,279.009247 107.145447,277.176453 121.527779,278.755585 
	C131.569641,279.858185 141.372635,281.466919 150.111465,286.204163 
	C160.076233,291.605957 169.339279,298.303619 178.897781,304.452850 
	C183.162399,307.196411 187.459869,306.519867 189.841400,302.410767 
	C191.782425,299.061676 193.369095,295.507202 195.414062,291.893646 
	C194.490982,290.457520 193.266708,289.171539 191.911774,287.578552 
	C180.595001,275.810822 166.959946,268.073975 151.981750,263.202850 
	C131.954926,256.689850 111.055779,255.990952 90.488632,259.275208 
	C68.391747,262.803772 49.284744,272.764496 34.737629,290.643646 
	C16.982584,312.465515 13.557721,337.539398 18.659063,363.896057 
	C23.392111,388.349915 40.234890,403.923920 61.877415,414.157043 
	C73.689972,419.742340 86.382042,423.470276 98.685829,428.013214 
	C116.282532,434.510468 134.882736,438.421814 151.252045,448.074982 
	C162.744125,454.851929 172.436813,463.443756 177.627731,476.191559 
	C182.465744,488.072693 182.249771,500.280304 180.016251,512.631409 
	C175.005737,540.338684 158.689941,558.465393 132.609833,568.024719 
	C118.800583,573.086365 104.585258,574.626526 89.764297,573.184814 
	C73.527008,571.605286 58.416866,567.245850 44.907383,558.277161 
	C36.907192,552.966003 29.520418,546.686340 22.127077,540.519348 
	C15.810361,535.250427 10.594335,535.605347 6.844746,542.361755 
	C5.305715,545.134949 2.972147,547.467163 1.000005,550.000000 
M362.022827,265.924347 
	C362.070770,270.949158 362.118683,275.973938 362.022675,281.926361 
	C362.015198,383.628082 362.007263,485.329834 362.007141,587.031555 
	C362.007141,588.026489 362.111145,589.021484 362.103241,590.529053 
	C362.395721,590.630554 362.688202,590.731995 363.910583,590.977295 
	C420.293243,590.984863 476.675873,590.998779 533.058533,590.992432 
	C540.705505,590.991577 548.352539,590.888977 556.872559,590.976807 
	C557.912292,590.349365 559.830688,589.754272 559.855103,589.089539 
	C560.085144,582.833069 559.991821,576.564697 559.991821,569.862671 
	C502.044159,569.862671 444.679840,569.862671 387.051056,569.862671 
	C387.051056,524.311890 387.051056,479.208374 387.978027,434.014221 
	C407.412720,434.009491 426.847412,434.022949 446.282074,433.995544 
	C473.187927,433.957611 500.093689,433.888916 527.872559,433.976868 
	C528.912354,433.349548 530.828186,432.757111 530.854858,432.089447 
	C531.090698,426.167542 530.991882,420.232269 530.991882,413.860199 
	C482.709442,413.860199 435.009247,413.860199 387.051056,413.860199 
	C387.051056,369.641357 387.051056,325.873108 387.978027,282.014221 
	C427.534698,282.009491 467.091370,282.020050 506.648041,281.992676 
	C523.098511,281.981262 539.549011,281.888916 556.814575,281.975220 
	C557.875793,280.471313 559.631775,279.062927 559.854431,277.443756 
	C560.326477,274.010681 559.689392,270.433258 560.073853,266.978088 
	C560.628235,261.995728 558.573853,260.889496 553.874268,260.903961 
	C503.738373,261.058502 453.601837,260.988739 403.465454,261.007629 
	C390.310486,261.012573 377.155579,261.111084 363.223297,261.045380 
	C362.871094,262.363770 362.518860,263.682129 362.022827,265.924347 
M1189.723022,302.785767 
	C1192.162720,300.228699 1194.602417,297.671661 1197.629639,294.866394 
	C1198.336426,294.119263 1199.043213,293.372131 1200.244873,292.742584 
	C1200.495361,292.549347 1200.745972,292.356110 1201.642456,291.855927 
	C1206.110840,289.273468 1210.579346,286.690979 1215.821045,283.995850 
	C1231.657593,278.059540 1248.099609,276.529022 1264.610596,279.195374 
	C1282.105103,282.020508 1297.625732,289.667114 1311.125977,301.415070 
	C1313.728394,303.679565 1317.674072,304.400421 1321.731079,305.965668 
	C1328.255493,302.828613 1329.187012,296.092163 1332.238525,290.666046 
	C1320.587769,279.132050 1307.726196,270.535278 1292.825684,264.896149 
	C1272.463379,257.190002 1251.494507,256.699341 1230.231812,258.993988 
	C1215.916260,260.538849 1202.623535,265.315552 1190.692993,273.170929 
	C1174.534302,283.810059 1162.767456,298.126831 1157.020996,317.643097 
	C1156.976685,318.080475 1156.932373,318.517883 1156.256836,319.292877 
	C1155.893433,320.861572 1155.530029,322.430237 1155.022827,324.729065 
	C1154.978027,325.471008 1154.933350,326.212921 1154.319824,327.208374 
	C1154.268677,327.805267 1154.217529,328.402191 1154.023071,329.815643 
	C1153.978271,331.195374 1153.933472,332.575134 1153.319824,334.208374 
	C1153.268677,334.805267 1153.217651,335.402191 1153.022705,336.925140 
	C1153.379639,344.674072 1152.834717,352.593353 1154.260376,360.140411 
	C1158.807495,384.212860 1172.799438,401.860992 1194.751343,411.986969 
	C1211.743530,419.825165 1229.681641,425.677582 1247.378662,431.902740 
	C1262.363159,437.173706 1277.743408,441.423248 1291.290527,450.073639 
	C1306.208984,459.599701 1316.235718,472.611328 1317.882446,490.683746 
	C1319.066528,503.681122 1317.440674,516.517822 1312.311157,529.183594 
	C1311.518555,530.589172 1310.703857,531.982788 1309.936646,533.402161 
	C1300.875366,550.166992 1287.410889,561.775513 1269.372314,568.006226 
	C1255.631348,572.752502 1241.672852,574.475342 1227.028931,573.188660 
	C1209.931519,571.686462 1194.126831,567.020508 1180.031738,557.386475 
	C1171.827271,551.778748 1164.314331,545.160278 1156.478882,539.011108 
	C1152.547485,535.925781 1147.357422,536.171753 1144.680908,539.946960 
	C1142.448486,543.095703 1140.765137,546.633667 1138.176270,550.559021 
	C1143.573486,555.999207 1148.672363,561.780090 1154.422974,566.816956 
	C1173.284058,583.337524 1195.668091,592.092773 1220.413818,593.812622 
	C1242.082397,595.318665 1263.716553,594.247192 1284.722778,584.965576 
	C1286.724609,583.849548 1288.726440,582.733521 1291.069214,581.859985 
	C1291.069214,581.859985 1291.461060,581.713684 1292.045532,581.378113 
	C1293.273804,580.456299 1294.502197,579.534485 1296.042725,578.849792 
	C1296.042725,578.849792 1296.415894,578.729614 1296.990234,578.439392 
	C1297.572632,577.821777 1298.155029,577.204163 1299.037842,576.841980 
	C1299.037842,576.841980 1299.415894,576.729614 1299.990234,576.439392 
	C1300.572632,575.821777 1301.155029,575.204102 1302.037842,574.841980 
	C1302.037842,574.841980 1302.415894,574.729614 1302.990234,574.439392 
	C1303.572632,573.821716 1304.155029,573.204102 1305.422119,572.793030 
	C1309.295532,568.900208 1313.168945,565.007385 1317.669434,560.834167 
	C1319.792358,558.148743 1322.061768,555.565125 1324.013306,552.760315 
	C1333.207275,539.546814 1338.169312,524.847534 1340.111328,508.871552 
	C1341.799927,494.980042 1341.833252,481.243896 1337.368896,467.960815 
	C1330.972778,448.929840 1317.516968,435.262299 1299.798096,427.306946 
	C1278.274048,417.643250 1255.745239,410.191498 1233.552856,402.050507 
	C1215.347290,395.371979 1197.589600,388.150177 1185.402954,371.913940 
	C1177.301392,361.120178 1174.914795,348.697968 1176.298340,335.733276 
	C1177.567627,323.838531 1181.878662,312.777893 1189.723022,302.785767 
M979.000000,577.489197 
	C979.000000,581.585938 979.000000,585.682678 979.000000,589.697205 
	C971.125305,590.510559 964.275146,590.634766 959.262817,583.754700 
	C947.076965,567.027954 934.747681,550.403748 922.314758,533.859558 
	C898.699829,502.435760 874.995972,471.078522 851.210938,439.783447 
	C850.160034,438.400726 847.858643,437.003571 846.275330,437.143829 
	C834.214783,438.212067 822.102966,439.144470 810.169434,441.106293 
	C789.168030,444.558868 769.544495,452.282928 750.717773,462.075073 
	C747.938843,463.520447 746.881104,465.678589 746.895813,469.101288 
	C747.060425,507.595245 747.000000,546.090149 747.000000,584.584778 
	C747.000000,586.335083 747.000000,588.085388 747.000000,589.771606 
	C739.992249,589.771606 733.716248,589.771606 726.800293,589.771606 
	C726.800293,552.410767 726.800293,515.273193 726.800293,477.675690 
	C655.309692,529.614746 620.245483,626.707581 655.203674,720.797852 
	C671.600525,764.929993 700.659790,799.552429 740.861389,824.223633 
	C784.342102,850.907288 831.734253,860.128418 882.101807,852.899841 
	C922.931335,847.040161 959.052124,830.086609 989.704163,802.598206 
	C1032.986816,763.782715 1056.270386,714.678345 1059.736816,656.825073 
	C1062.060303,618.044983 1053.464966,581.106079 1034.908447,546.813049 
	C1021.138245,521.365112 1003.126953,499.398315 979.000000,481.067596 
	C979.000000,513.673401 979.000000,545.082458 979.000000,577.489197 
M721.505188,366.005524 
	C722.980713,367.433502 724.456177,368.861450 727.032837,371.355072 
	C727.032837,333.908173 727.032837,298.074158 727.032837,262.415985 
	C736.462952,261.135651 743.919678,261.768921 749.996094,270.326904 
	C767.540588,295.036652 785.910522,319.161194 804.002625,343.481140 
	C821.322510,366.763092 838.655273,390.036072 856.156067,413.181671 
	C857.298950,414.693115 859.996155,415.984680 861.848755,415.838470 
	C869.818420,415.209442 877.748779,414.051575 885.682251,413.001465 
	C911.020447,409.647736 934.275879,400.384460 956.361389,387.887360 
	C958.760559,386.529816 960.157104,384.752045 960.137146,381.306519 
	C959.918457,343.479156 960.000000,305.650055 960.000000,267.821442 
	C960.000000,266.032410 960.000000,264.243378 960.000000,262.261597 
	C966.502563,262.261597 972.561707,262.261597 979.276306,262.261597 
	C979.276306,298.648315 979.276306,334.778015 979.276306,370.907715 
	C979.740051,371.150696 980.203857,371.393677 980.667603,371.636658 
	C989.029968,363.010529 997.547424,354.528442 1005.720703,345.726654 
	C1020.318787,330.005737 1030.715332,311.608063 1038.986328,291.957764 
	C1048.581787,269.160950 1053.344849,245.291718 1053.920776,220.620728 
	C1054.097656,213.037796 1053.739746,205.387695 1052.900513,197.849182 
	C1051.783569,187.815857 1050.614136,177.706879 1048.306641,167.903534 
	C1042.361084,142.643082 1031.513916,119.597435 1016.276917,98.464851 
	C1002.459534,79.301254 985.868835,63.217010 966.501282,49.839073 
	C949.924500,38.388859 931.925110,29.966694 912.710510,23.995180 
	C893.835266,18.129131 874.466187,15.527578 854.787598,15.068912 
	C849.536011,14.946508 844.233276,15.411052 839.009094,16.053411 
	C828.321289,17.367563 817.504211,18.254723 807.042542,20.641993 
	C789.609436,24.620075 773.092224,31.179823 757.284729,39.800560 
	C741.944946,48.166214 728.102234,58.431072 715.434937,70.239288 
	C702.921570,81.904015 692.539246,95.375359 683.392578,109.934013 
	C663.416931,141.728836 654.290283,176.580719 653.135498,213.720612 
	C652.876526,222.048553 653.756714,230.524109 655.122620,238.764297 
	C657.216797,251.398376 659.473816,264.088379 662.943665,276.393127 
	C668.954102,297.707367 679.121948,317.274567 692.610657,334.734375 
	C701.106445,345.731262 711.468567,355.286285 721.505188,366.005524 
M1674.068604,545.574097 
	C1677.960205,538.270203 1682.246948,531.146362 1685.671509,523.629700 
	C1697.486694,497.696167 1701.856934,470.056732 1702.853760,441.881653 
	C1703.357422,427.651184 1702.501221,413.359955 1701.933716,399.109192 
	C1701.626953,391.408142 1701.501587,383.531647 1699.763916,376.091736 
	C1696.417114,361.761932 1692.713135,347.429169 1687.833740,333.563385 
	C1679.966797,311.207733 1666.946289,291.940887 1647.900635,277.602386 
	C1622.874756,258.761658 1593.878784,254.065506 1563.904907,259.389832 
	C1531.699463,265.110626 1508.011963,284.170593 1491.842041,312.540009 
	C1474.774902,342.483765 1468.708252,375.326904 1467.160278,409.157532 
	C1466.525024,423.040161 1467.378418,437.018921 1468.096191,450.925995 
	C1468.610840,460.896423 1469.198853,470.989838 1471.195679,480.732941 
	C1476.884644,508.492340 1485.716919,534.940369 1504.487305,557.199524 
	C1515.837036,570.658691 1529.322632,580.686646 1545.661621,587.009521 
	C1563.321777,593.843445 1581.502686,595.450684 1600.250244,593.068542 
	C1622.192017,590.280518 1641.132935,581.193054 1657.078491,566.184937 
	C1663.367676,560.265625 1668.362915,552.971497 1674.068604,545.574097 
M786.331055,404.074341 
	C800.675354,409.415314 815.347107,413.219757 830.631653,414.148315 
	C830.968811,413.725281 831.305969,413.302216 831.643127,412.879150 
	C803.566895,375.445435 775.490601,338.011719 747.414307,300.578003 
	C746.932495,300.827240 746.450623,301.076477 745.968811,301.325684 
	C746.312561,305.002808 746.939392,308.678772 746.953857,312.357178 
	C747.044983,335.513947 746.957581,358.671478 747.092041,381.827850 
	C747.101379,383.430420 747.997742,385.885132 749.208435,386.490723 
	C761.227173,392.503052 773.399170,398.208984 786.331055,404.074341 
M878.473022,442.979858 
	C905.197815,478.755829 931.922668,514.531799 958.647522,550.307739 
	C959.098328,550.119568 959.549194,549.931335 960.000000,549.743164 
	C960.000000,548.165222 960.000000,546.587219 960.000000,545.009277 
	C960.000000,520.689392 959.905701,496.368744 960.101196,472.050446 
	C960.130737,468.380737 958.764038,466.585724 955.782654,464.909424 
	C938.869995,455.399933 921.068359,448.045715 902.305603,443.222961 
	C893.919373,441.067352 885.251709,440.006256 875.635193,438.252106 
	C876.881592,440.497253 877.421448,441.469666 878.473022,442.979858 
z"/>
<path fill="#0872BA" opacity="1.000000" stroke="none" 
	d="
M1.000005,550.333313 
	C2.972147,547.467163 5.305715,545.134949 6.844746,542.361755 
	C10.594335,535.605347 15.810361,535.250427 22.127077,540.519348 
	C29.520418,546.686340 36.907192,552.966003 44.907383,558.277161 
	C58.416866,567.245850 73.527008,571.605286 89.764297,573.184814 
	C104.585258,574.626526 118.800583,573.086365 132.609833,568.024719 
	C158.689941,558.465393 175.005737,540.338684 180.016251,512.631409 
	C182.249771,500.280304 182.465744,488.072693 177.627731,476.191559 
	C172.436813,463.443756 162.744125,454.851929 151.252045,448.074982 
	C134.882736,438.421814 116.282532,434.510468 98.685829,428.013214 
	C86.382042,423.470276 73.689972,419.742340 61.877415,414.157043 
	C40.234890,403.923920 23.392111,388.349915 18.659063,363.896057 
	C13.557721,337.539398 16.982584,312.465515 34.737629,290.643646 
	C49.284744,272.764496 68.391747,262.803772 90.488632,259.275208 
	C111.055779,255.990952 131.954926,256.689850 151.981750,263.202850 
	C166.959946,268.073975 180.595001,275.810822 191.904449,287.941833 
	C193.056183,289.756042 194.084534,290.899933 195.112900,292.043823 
	C193.369095,295.507202 191.782425,299.061676 189.841400,302.410767 
	C187.459869,306.519867 183.162399,307.196411 178.897781,304.452850 
	C169.339279,298.303619 160.076233,291.605957 150.111465,286.204163 
	C141.372635,281.466919 131.569641,279.858185 121.527779,278.755585 
	C107.145447,277.176453 93.527298,279.009247 80.171761,283.960846 
	C58.751987,291.902344 45.340683,306.976105 41.064785,329.510162 
	C38.171452,344.758087 39.180374,359.679474 49.236404,372.449677 
	C58.158089,383.779419 69.878334,391.800781 83.233276,396.859009 
	C105.493820,405.290283 128.080521,412.856140 150.434006,421.048035 
	C163.246353,425.743347 174.964432,432.645813 184.604294,442.293732 
	C196.777863,454.477478 203.064011,469.252472 204.259171,486.837219 
	C205.557800,505.944397 202.554550,523.992493 194.372131,540.946655 
	C181.327927,567.974670 158.835541,583.501099 130.259109,591.021851 
	C114.659798,595.127441 98.693291,594.839539 82.970016,593.742676 
	C59.245049,592.087585 37.841663,583.076538 19.082809,568.411926 
	C12.849697,563.539185 7.438833,557.614746 1.326030,552.085571 
	C1.000000,551.555542 1.000000,551.111084 1.000005,550.333313 
z"/>
<path fill="#0872BA" opacity="1.000000" stroke="none" 
	d="
M979.000000,576.990356 
	C979.000000,545.082458 979.000000,513.673401 979.000000,481.067596 
	C1003.126953,499.398315 1021.138245,521.365112 1034.908447,546.813049 
	C1053.464966,581.106079 1062.060303,618.044983 1059.736816,656.825073 
	C1056.270386,714.678345 1032.986816,763.782715 989.704163,802.598206 
	C959.052124,830.086609 922.931335,847.040161 882.101807,852.899841 
	C831.734253,860.128418 784.342102,850.907288 740.861389,824.223633 
	C700.659790,799.552429 671.600525,764.929993 655.203674,720.797852 
	C620.245483,626.707581 655.309692,529.614746 726.800293,477.675690 
	C726.800293,515.273193 726.800293,552.410767 726.800293,589.771606 
	C733.716248,589.771606 739.992249,589.771606 747.000000,589.771606 
	C747.000000,588.085388 747.000000,586.335083 747.000000,584.584778 
	C747.000000,546.090149 747.060425,507.595245 746.895813,469.101288 
	C746.881104,465.678589 747.938843,463.520447 750.717773,462.075073 
	C769.544495,452.282928 789.168030,444.558868 810.169434,441.106293 
	C822.102966,439.144470 834.214783,438.212067 846.275330,437.143829 
	C847.858643,437.003571 850.160034,438.400726 851.210938,439.783447 
	C874.995972,471.078522 898.699829,502.435760 922.314758,533.859558 
	C934.747681,550.403748 947.076965,567.027954 959.262817,583.754700 
	C964.275146,590.634766 971.125305,590.510559 979.000000,589.697205 
	C979.000000,585.682678 979.000000,581.585938 979.000000,576.990356 
z"/>
<path fill="#0872BA" opacity="1.000000" stroke="none" 
	d="
M721.249329,365.746826 
	C711.468567,355.286285 701.106445,345.731262 692.610657,334.734375 
	C679.121948,317.274567 668.954102,297.707367 662.943665,276.393127 
	C659.473816,264.088379 657.216797,251.398376 655.122620,238.764297 
	C653.756714,230.524109 652.876526,222.048553 653.135498,213.720612 
	C654.290283,176.580719 663.416931,141.728836 683.392578,109.934013 
	C692.539246,95.375359 702.921570,81.904015 715.434937,70.239288 
	C728.102234,58.431072 741.944946,48.166214 757.284729,39.800560 
	C773.092224,31.179823 789.609436,24.620075 807.042542,20.641993 
	C817.504211,18.254723 828.321289,17.367563 839.009094,16.053411 
	C844.233276,15.411052 849.536011,14.946508 854.787598,15.068912 
	C874.466187,15.527578 893.835266,18.129131 912.710510,23.995180 
	C931.925110,29.966694 949.924500,38.388859 966.501282,49.839073 
	C985.868835,63.217010 1002.459534,79.301254 1016.276917,98.464851 
	C1031.513916,119.597435 1042.361084,142.643082 1048.306641,167.903534 
	C1050.614136,177.706879 1051.783569,187.815857 1052.900513,197.849182 
	C1053.739746,205.387695 1054.097656,213.037796 1053.920776,220.620728 
	C1053.344849,245.291718 1048.581787,269.160950 1038.986328,291.957764 
	C1030.715332,311.608063 1020.318787,330.005737 1005.720703,345.726654 
	C997.547424,354.528442 989.029968,363.010529 980.667603,371.636658 
	C980.203857,371.393677 979.740051,371.150696 979.276306,370.907715 
	C979.276306,334.778015 979.276306,298.648315 979.276306,262.261597 
	C972.561707,262.261597 966.502563,262.261597 960.000000,262.261597 
	C960.000000,264.243378 960.000000,266.032410 960.000000,267.821442 
	C960.000000,305.650055 959.918457,343.479156 960.137146,381.306519 
	C960.157104,384.752045 958.760559,386.529816 956.361389,387.887360 
	C934.275879,400.384460 911.020447,409.647736 885.682251,413.001465 
	C877.748779,414.051575 869.818420,415.209442 861.848755,415.838470 
	C859.996155,415.984680 857.298950,414.693115 856.156067,413.181671 
	C838.655273,390.036072 821.322510,366.763092 804.002625,343.481140 
	C785.910522,319.161194 767.540588,295.036652 749.996094,270.326904 
	C743.919678,261.768921 736.462952,261.135651 727.032837,262.415985 
	C727.032837,298.074158 727.032837,333.908173 727.032837,371.355072 
	C724.456177,368.861450 722.980713,367.433502 721.249329,365.746826 
z"/>
<path fill="#0872BA" opacity="1.000000" stroke="none" 
	d="
M1674.007935,545.938721 
	C1668.362915,552.971497 1663.367676,560.265625 1657.078491,566.184937 
	C1641.132935,581.193054 1622.192017,590.280518 1600.250244,593.068542 
	C1581.502686,595.450684 1563.321777,593.843445 1545.661621,587.009521 
	C1529.322632,580.686646 1515.837036,570.658691 1504.487305,557.199524 
	C1485.716919,534.940369 1476.884644,508.492340 1471.195679,480.732941 
	C1469.198853,470.989838 1468.610840,460.896423 1468.096191,450.925995 
	C1467.378418,437.018921 1466.525024,423.040161 1467.160278,409.157532 
	C1468.708252,375.326904 1474.774902,342.483765 1491.842041,312.540009 
	C1508.011963,284.170593 1531.699463,265.110626 1563.904907,259.389832 
	C1593.878784,254.065506 1622.874756,258.761658 1647.900635,277.602386 
	C1666.946289,291.940887 1679.966797,311.207733 1687.833740,333.563385 
	C1692.713135,347.429169 1696.417114,361.761932 1699.763916,376.091736 
	C1701.501587,383.531647 1701.626953,391.408142 1701.933716,399.109192 
	C1702.501221,413.359955 1703.357422,427.651184 1702.853760,441.881653 
	C1701.856934,470.056732 1697.486694,497.696167 1685.671509,523.629700 
	C1682.246948,531.146362 1677.960205,538.270203 1674.007935,545.938721 
M1645.533691,305.024200 
	C1644.118896,303.612488 1642.684448,302.219818 1641.292236,300.786133 
	C1621.986694,280.904999 1598.097290,273.970764 1571.409180,278.243347 
	C1544.166626,282.604614 1525.013184,298.975525 1511.995239,322.944153 
	C1498.250244,348.251221 1492.490479,375.787506 1491.266846,404.073975 
	C1490.205688,428.608765 1490.036621,453.259918 1494.864502,477.677429 
	C1498.997925,498.581360 1504.994263,518.571655 1516.840942,536.543823 
	C1536.912354,566.994019 1565.506348,578.486816 1600.703369,572.740295 
	C1626.164062,568.583496 1644.288330,552.971436 1656.653564,530.707397 
	C1672.399536,502.356293 1677.675781,471.312469 1678.872192,439.436554 
	C1679.324829,427.375427 1678.189087,415.261902 1678.038208,403.169037 
	C1677.857300,388.685333 1675.398315,374.532043 1671.929321,360.565796 
	C1666.956421,340.544769 1659.473999,321.616791 1645.533691,305.024200 
z"/>
<path fill="#0872BA" opacity="1.000000" stroke="none" 
	d="
M526.999512,433.833374 
	C500.093689,433.888916 473.187927,433.957611 446.282074,433.995544 
	C426.847412,434.022949 407.412720,434.009491 387.311340,433.791626 
	C382.200195,434.367096 383.027405,437.894958 383.024902,440.827911 
	C382.988586,483.271729 383.084991,525.716003 382.886261,568.158875 
	C382.862915,573.141174 384.475006,574.119324 389.110626,574.101135 
	C432.552460,573.930725 475.995239,574.000000 519.437744,574.000000 
	C529.424561,574.000000 539.411316,573.998352 549.398132,574.000610 
	C555.997070,574.002136 555.997620,574.004700 555.999817,580.846680 
	C556.000916,584.175598 555.999634,587.504517 555.999512,590.833435 
	C548.352539,590.888977 540.705505,590.991577 533.058533,590.992432 
	C476.675873,590.998779 420.293243,590.984863 363.354004,590.729614 
	C362.634186,590.262939 362.423950,590.107788 362.166626,590.016418 
	C362.111145,589.021484 362.007141,588.026489 362.007141,587.031555 
	C362.007263,485.329834 362.015198,383.628082 362.476929,281.356079 
	C363.287476,275.523865 363.643738,270.261932 364.468658,265.000000 
	C423.084564,265.000000 481.231781,265.000000 539.379028,265.000000 
	C543.377686,265.000000 547.395081,265.241058 551.369690,264.931885 
	C555.267639,264.628662 556.303345,266.228516 556.060852,269.841461 
	C555.793640,273.822205 555.999634,277.834717 555.999512,281.833374 
	C539.549011,281.888916 523.098511,281.981262 506.648041,281.992676 
	C467.091370,282.020050 427.534698,282.009491 387.311340,281.791626 
	C382.200531,282.366455 383.027527,285.893890 383.024902,288.826477 
	C382.988251,330.098877 383.077118,371.371674 382.891876,412.643280 
	C382.871277,417.237610 384.375885,418.103180 388.594757,418.088074 
	C429.533844,417.941498 470.473694,417.980957 511.413239,418.024872 
	C516.361572,418.030182 523.441528,416.494812 525.700562,419.055267 
	C528.333923,422.039978 526.752197,428.743530 526.999512,433.833374 
z"/>
<path fill="#0872BA" opacity="1.000000" stroke="none" 
	d="
M1156.888184,318.955292 
	C1156.932373,318.517883 1156.976685,318.080475 1157.432861,317.253540 
	C1158.511963,315.957886 1159.421387,315.144867 1159.810425,314.132019 
	C1166.907715,295.653778 1180.044189,282.587067 1197.165283,273.501556 
	C1222.898193,259.846008 1250.132568,259.068604 1277.916138,265.506744 
	C1295.601440,269.604858 1310.670654,278.703247 1324.145996,290.642853 
	C1326.601074,292.818054 1328.176392,294.945374 1325.534668,298.247894 
	C1323.711426,300.527161 1322.490234,303.287842 1321.000000,305.833374 
	C1317.674072,304.400421 1313.728394,303.679565 1311.125977,301.415070 
	C1297.625732,289.667114 1282.105103,282.020508 1264.610596,279.195374 
	C1248.099609,276.529022 1231.657593,278.059540 1215.225098,283.770264 
	C1210.603882,285.117004 1206.494873,286.515533 1202.614624,288.388153 
	C1201.684570,288.836945 1201.515503,290.862488 1200.996460,292.162842 
	C1200.745972,292.356110 1200.495361,292.549347 1199.611450,292.505371 
	C1198.332764,293.216980 1197.687500,294.165833 1197.042236,295.114624 
	C1194.602417,297.671661 1192.162720,300.228699 1189.041016,302.906158 
	C1187.104370,303.921021 1185.543823,304.579468 1184.643311,305.747040 
	C1177.120728,315.499634 1173.281372,326.910980 1172.237915,338.876984 
	C1171.052979,352.464661 1173.317139,365.479309 1182.153320,376.905029 
	C1191.722778,389.279083 1204.731445,396.423035 1218.679810,401.885254 
	C1234.738281,408.173889 1251.273193,413.235504 1267.524658,419.044434 
	C1281.285889,423.963287 1294.947266,429.126831 1306.891235,437.917969 
	C1320.970459,448.280731 1331.285156,461.084106 1335.155518,478.610443 
	C1337.851196,490.817322 1337.678467,503.019379 1335.687622,515.155396 
	C1333.666138,527.476379 1329.883789,539.303711 1323.051392,549.987305 
	C1320.786499,553.528931 1319.030762,557.396179 1317.042236,561.114624 
	C1313.168945,565.007385 1309.295532,568.900208 1304.657837,572.530334 
	C1303.401001,573.088318 1302.908447,573.908936 1302.415771,574.729614 
	C1302.415894,574.729614 1302.037842,574.841980 1301.465820,574.554871 
	C1300.401123,575.088379 1299.908569,575.908997 1299.416016,576.729614 
	C1299.415894,576.729614 1299.037842,576.841980 1298.465820,576.554871 
	C1297.401123,577.088379 1296.908569,577.908997 1296.416016,578.729614 
	C1296.415894,578.729614 1296.042725,578.849792 1295.468506,578.534058 
	C1292.290161,577.949768 1290.698975,578.676025 1291.461060,581.713684 
	C1291.461060,581.713684 1291.069214,581.859985 1290.509766,581.544189 
	C1287.966919,582.430054 1285.983398,583.631775 1284.000000,584.833435 
	C1263.716553,594.247192 1242.082397,595.318665 1220.413818,593.812622 
	C1195.668091,592.092773 1173.284058,583.337524 1154.422974,566.816956 
	C1148.672363,561.780090 1143.573486,555.999207 1138.895264,550.272827 
	C1140.493774,549.195190 1141.656982,548.563782 1142.207764,547.586914 
	C1146.355835,540.230896 1147.797241,539.848267 1154.497070,544.744568 
	C1155.961792,545.815002 1157.347046,547.004211 1158.701294,548.214600 
	C1170.288696,558.571533 1182.796387,567.396667 1197.843262,572.098328 
	C1212.997559,576.833557 1228.282959,578.855225 1244.292603,577.260010 
	C1255.865479,576.106812 1266.803833,573.576233 1277.286743,568.836426 
	C1287.851929,564.059509 1296.679932,556.743408 1303.528320,547.610596 
	C1307.655396,542.106689 1309.878784,535.175415 1312.957642,528.885559 
	C1317.440674,516.517822 1319.066528,503.681122 1317.882446,490.683746 
	C1316.235718,472.611328 1306.208984,459.599701 1291.290527,450.073639 
	C1277.743408,441.423248 1262.363159,437.173706 1247.378662,431.902740 
	C1229.681641,425.677582 1211.743530,419.825165 1194.751343,411.986969 
	C1172.799438,401.860992 1158.807495,384.212860 1154.260376,360.140411 
	C1152.834717,352.593353 1153.379639,344.674072 1153.381104,336.420105 
	C1153.789185,335.261688 1153.838989,334.608276 1153.888672,333.954865 
	C1153.933472,332.575134 1153.978271,331.195374 1154.381226,329.365356 
	C1154.789185,328.261658 1154.838867,327.608276 1154.888672,326.954865 
	C1154.933350,326.212921 1154.978027,325.471008 1155.420898,324.300415 
	C1156.175293,322.232941 1156.531738,320.594116 1156.888184,318.955292 
z"/>
<path fill="#0872BA" opacity="1.000000" stroke="none" 
	d="
M785.929443,404.037964 
	C773.399170,398.208984 761.227173,392.503052 749.208435,386.490723 
	C747.997742,385.885132 747.101379,383.430420 747.092041,381.827850 
	C746.957581,358.671478 747.044983,335.513947 746.953857,312.357178 
	C746.939392,308.678772 746.312561,305.002808 745.968811,301.325684 
	C746.450623,301.076477 746.932495,300.827240 747.414307,300.578003 
	C775.490601,338.011719 803.566895,375.445435 831.643127,412.879150 
	C831.305969,413.302216 830.968811,413.725281 830.631653,414.148315 
	C815.347107,413.219757 800.675354,409.415314 785.929443,404.037964 
z"/>
<path fill="#0872BA" opacity="1.000000" stroke="none" 
	d="
M878.217163,442.710999 
	C877.421448,441.469666 876.881592,440.497253 875.635193,438.252106 
	C885.251709,440.006256 893.919373,441.067352 902.305603,443.222961 
	C921.068359,448.045715 938.869995,455.399933 955.782654,464.909424 
	C958.764038,466.585724 960.130737,468.380737 960.101196,472.050446 
	C959.905701,496.368744 960.000000,520.689392 960.000000,545.009277 
	C960.000000,546.587219 960.000000,548.165222 960.000000,549.743164 
	C959.549194,549.931335 959.098328,550.119568 958.647522,550.307739 
	C931.922668,514.531799 905.197815,478.755829 878.217163,442.710999 
z"/>
<path fill="#0872BA" opacity="1.000000" stroke="none" 
	d="
M1317.355835,560.974365 
	C1319.030762,557.396179 1320.786499,553.528931 1323.051392,549.987305 
	C1329.883789,539.303711 1333.666138,527.476379 1335.687622,515.155396 
	C1337.678467,503.019379 1337.851196,490.817322 1335.155518,478.610443 
	C1331.285156,461.084106 1320.970459,448.280731 1306.891235,437.917969 
	C1294.947266,429.126831 1281.285889,423.963287 1267.524658,419.044434 
	C1251.273193,413.235504 1234.738281,408.173889 1218.679810,401.885254 
	C1204.731445,396.423035 1191.722778,389.279083 1182.153320,376.905029 
	C1173.317139,365.479309 1171.052979,352.464661 1172.237915,338.876984 
	C1173.281372,326.910980 1177.120728,315.499634 1184.643311,305.747040 
	C1185.543823,304.579468 1187.104370,303.921021 1188.736572,303.034485 
	C1181.878662,312.777893 1177.567627,323.838531 1176.298340,335.733276 
	C1174.914795,348.697968 1177.301392,361.120178 1185.402954,371.913940 
	C1197.589600,388.150177 1215.347290,395.371979 1233.552856,402.050507 
	C1255.745239,410.191498 1278.274048,417.643250 1299.798096,427.306946 
	C1317.516968,435.262299 1330.972778,448.929840 1337.368896,467.960815 
	C1341.833252,481.243896 1341.799927,494.980042 1340.111328,508.871552 
	C1338.169312,524.847534 1333.207275,539.546814 1324.013306,552.760315 
	C1322.061768,555.565125 1319.792358,558.148743 1317.355835,560.974365 
z"/>
<path fill="#0872BA" opacity="1.000000" stroke="none" 
	d="
M556.436035,590.905151 
	C555.999634,587.504517 556.000916,584.175598 555.999817,580.846680 
	C555.997620,574.004700 555.997070,574.002136 549.398132,574.000610 
	C539.411316,573.998352 529.424561,574.000000 519.437744,574.000000 
	C475.995239,574.000000 432.552460,573.930725 389.110626,574.101135 
	C384.475006,574.119324 382.862915,573.141174 382.886261,568.158875 
	C383.084991,525.716003 382.988586,483.271729 383.024902,440.827911 
	C383.027405,437.894958 382.200195,434.367096 386.847839,433.836914 
	C387.051056,479.208374 387.051056,524.311890 387.051056,569.862671 
	C444.679840,569.862671 502.044159,569.862671 559.991821,569.862671 
	C559.991821,576.564697 560.085144,582.833069 559.855103,589.089539 
	C559.830688,589.754272 557.912292,590.349365 556.436035,590.905151 
z"/>
<path fill="#0872BA" opacity="1.000000" stroke="none" 
	d="
M527.436035,433.905121 
	C526.752197,428.743530 528.333923,422.039978 525.700562,419.055267 
	C523.441528,416.494812 516.361572,418.030182 511.413239,418.024872 
	C470.473694,417.980957 429.533844,417.941498 388.594757,418.088074 
	C384.375885,418.103180 382.871277,417.237610 382.891876,412.643280 
	C383.077118,371.371674 382.988251,330.098877 383.024902,288.826477 
	C383.027527,285.893890 382.200531,282.366455 386.847839,281.836914 
	C387.051056,325.873108 387.051056,369.641357 387.051056,413.860199 
	C435.009247,413.860199 482.709442,413.860199 530.991882,413.860199 
	C530.991882,420.232269 531.090698,426.167542 530.854858,432.089447 
	C530.828186,432.757111 528.912354,433.349548 527.436035,433.905121 
z"/>
<path fill="#0872BA" opacity="1.000000" stroke="none" 
	d="
M1321.365479,305.899536 
	C1322.490234,303.287842 1323.711426,300.527161 1325.534668,298.247894 
	C1328.176392,294.945374 1326.601074,292.818054 1324.145996,290.642853 
	C1310.670654,278.703247 1295.601440,269.604858 1277.916138,265.506744 
	C1250.132568,259.068604 1222.898193,259.846008 1197.165283,273.501556 
	C1180.044189,282.587067 1166.907715,295.653778 1159.810425,314.132019 
	C1159.421387,315.144867 1158.511963,315.957886 1157.505615,316.931488 
	C1162.767456,298.126831 1174.534302,283.810059 1190.692993,273.170929 
	C1202.623535,265.315552 1215.916260,260.538849 1230.231812,258.993988 
	C1251.494507,256.699341 1272.463379,257.190002 1292.825684,264.896149 
	C1307.726196,270.535278 1320.587769,279.132050 1332.238525,290.666046 
	C1329.187012,296.092163 1328.255493,302.828613 1321.365479,305.899536 
z"/>
<path fill="#0872BA" opacity="1.000000" stroke="none" 
	d="
M556.407043,281.904297 
	C555.999634,277.834717 555.793640,273.822205 556.060852,269.841461 
	C556.303345,266.228516 555.267639,264.628662 551.369690,264.931885 
	C547.395081,265.241058 543.377686,265.000000 539.379028,265.000000 
	C481.231781,265.000000 423.084564,265.000000 364.468658,264.616638 
	C364.000214,263.211090 364.000427,262.188843 364.000641,261.166626 
	C377.155579,261.111084 390.310486,261.012573 403.465454,261.007629 
	C453.601837,260.988739 503.738373,261.058502 553.874268,260.903961 
	C558.573853,260.889496 560.628235,261.995728 560.073853,266.978088 
	C559.689392,270.433258 560.326477,274.010681 559.854431,277.443756 
	C559.631775,279.062927 557.875793,280.471313 556.407043,281.904297 
z"/>
<path fill="#0872BA" opacity="1.000000" stroke="none" 
	d="
M1312.634399,529.034546 
	C1309.878784,535.175415 1307.655396,542.106689 1303.528320,547.610596 
	C1296.679932,556.743408 1287.851929,564.059509 1277.286743,568.836426 
	C1266.803833,573.576233 1255.865479,576.106812 1244.292603,577.260010 
	C1228.282959,578.855225 1212.997559,576.833557 1197.843262,572.098328 
	C1182.796387,567.396667 1170.288696,558.571533 1158.701294,548.214600 
	C1157.347046,547.004211 1155.961792,545.815002 1154.497070,544.744568 
	C1147.797241,539.848267 1146.355835,540.230896 1142.207764,547.586914 
	C1141.656982,548.563782 1140.493774,549.195190 1139.226440,549.992981 
	C1140.765137,546.633667 1142.448486,543.095703 1144.680908,539.946960 
	C1147.357422,536.171753 1152.547485,535.925781 1156.478882,539.011108 
	C1164.314331,545.160278 1171.827271,551.778748 1180.031738,557.386475 
	C1194.126831,567.020508 1209.931519,571.686462 1227.028931,573.188660 
	C1241.672852,574.475342 1255.631348,572.752502 1269.372314,568.006226 
	C1287.410889,561.775513 1300.875366,550.166992 1309.936646,533.402161 
	C1310.703857,531.982788 1311.518555,530.589172 1312.634399,529.034546 
z"/>
<path fill="#0872BA" opacity="1.000000" stroke="none" 
	d="
M1201.319458,292.009399 
	C1201.515503,290.862488 1201.684570,288.836945 1202.614624,288.388153 
	C1206.494873,286.515533 1210.603882,285.117004 1214.838379,283.826599 
	C1210.579346,286.690979 1206.110840,289.273468 1201.319458,292.009399 
z"/>
<path fill="#0872BA" opacity="1.000000" stroke="none" 
	d="
M364.000000,265.000000 
	C363.643738,270.261932 363.287476,275.523865 362.548920,280.892273 
	C362.118683,275.973938 362.070770,270.949158 362.400269,265.462158 
	C363.185150,265.000000 363.592590,265.000000 364.000000,265.000000 
z"/>
<path fill="#0872BA" opacity="1.000000" stroke="none" 
	d="
M1284.361328,584.899536 
	C1285.983398,583.631775 1287.966919,582.430054 1290.339355,581.422913 
	C1288.726440,582.733521 1286.724609,583.849548 1284.361328,584.899536 
z"/>
<path fill="#0872BA" opacity="1.000000" stroke="none" 
	d="
M195.414062,291.893646 
	C194.084534,290.899933 193.056183,289.756042 192.035126,288.248871 
	C193.266708,289.171539 194.490982,290.457520 195.414062,291.893646 
z"/>
<path fill="#0872BA" opacity="1.000000" stroke="none" 
	d="
M1156.572510,319.124084 
	C1156.531738,320.594116 1156.175293,322.232941 1155.492676,323.935364 
	C1155.530029,322.430237 1155.893433,320.861572 1156.572510,319.124084 
z"/>
<path fill="#0872BA" opacity="1.000000" stroke="none" 
	d="
M1291.753296,581.545898 
	C1290.698975,578.676025 1292.290161,577.949768 1295.312378,578.415527 
	C1294.502197,579.534485 1293.273804,580.456299 1291.753296,581.545898 
z"/>
<path fill="#0872BA" opacity="1.000000" stroke="none" 
	d="
M364.000000,264.616638 
	C363.592590,265.000000 363.185150,265.000000 362.472168,265.000244 
	C362.518860,263.682129 362.871094,262.363770 363.611969,261.106018 
	C364.000427,262.188843 364.000214,263.211090 364.000000,264.616638 
z"/>
<path fill="#0872BA" opacity="1.000000" stroke="none" 
	d="
M1197.335938,294.990540 
	C1197.687500,294.165833 1198.332764,293.216980 1199.364014,292.446594 
	C1199.043213,293.372131 1198.336426,294.119263 1197.335938,294.990540 
z"/>
<path fill="#0872BA" opacity="1.000000" stroke="none" 
	d="
M1302.703003,574.584473 
	C1302.908447,573.908936 1303.401001,573.088318 1304.315430,572.427063 
	C1304.155029,573.204102 1303.572632,573.821716 1302.703003,574.584473 
z"/>
<path fill="#0872BA" opacity="1.000000" stroke="none" 
	d="
M1299.703125,576.584534 
	C1299.908569,575.908997 1300.401123,575.088379 1301.315674,574.427124 
	C1301.155029,575.204102 1300.572632,575.821777 1299.703125,576.584534 
z"/>
<path fill="#0872BA" opacity="1.000000" stroke="none" 
	d="
M1296.703125,578.584534 
	C1296.908569,577.908997 1297.401123,577.088379 1298.315674,576.427124 
	C1298.155029,577.204163 1297.572632,577.821777 1296.703125,578.584534 
z"/>
<path fill="#0872BA" opacity="1.000000" stroke="none" 
	d="
M1153.604248,334.081604 
	C1153.838989,334.608276 1153.789185,335.261688 1153.453003,335.957092 
	C1153.217651,335.402191 1153.268677,334.805267 1153.604248,334.081604 
z"/>
<path fill="#0872BA" opacity="1.000000" stroke="none" 
	d="
M1154.604248,327.081604 
	C1154.838867,327.608276 1154.789185,328.261658 1154.452881,328.957092 
	C1154.217529,328.402191 1154.268677,327.805267 1154.604248,327.081604 
z"/>
<path fill="#0872BA" opacity="1.000000" stroke="none" 
	d="
M362.134949,590.272705 
	C362.423950,590.107788 362.634186,590.262939 362.889038,590.657654 
	C362.688202,590.731995 362.395721,590.630554 362.134949,590.272705 
z"/>
<path fill="#FFFFFF" opacity="1.000000" stroke="none" 
	d="
M1645.781494,305.282776 
	C1659.473999,321.616791 1666.956421,340.544769 1671.929321,360.565796 
	C1675.398315,374.532043 1677.857300,388.685333 1678.038208,403.169037 
	C1678.189087,415.261902 1679.324829,427.375427 1678.872192,439.436554 
	C1677.675781,471.312469 1672.399536,502.356293 1656.653564,530.707397 
	C1644.288330,552.971436 1626.164062,568.583496 1600.703369,572.740295 
	C1565.506348,578.486816 1536.912354,566.994019 1516.840942,536.543823 
	C1504.994263,518.571655 1498.997925,498.581360 1494.864502,477.677429 
	C1490.036621,453.259918 1490.205688,428.608765 1491.266846,404.073975 
	C1492.490479,375.787506 1498.250244,348.251221 1511.995239,322.944153 
	C1525.013184,298.975525 1544.166626,282.604614 1571.409180,278.243347 
	C1598.097290,273.970764 1621.986694,280.904999 1641.292236,300.786133 
	C1642.684448,302.219818 1644.118896,303.612488 1645.781494,305.282776 
z"/>
</svg>