<svg viewBox="0 0 500 500" fill="none" xmlns="http://www.w3.org/2000/svg"><path fill-rule="evenodd" clip-rule="evenodd" d="M262.959 124.004c46.569 0 84.917 35.175 89.886 80.384 8.268-4.391 17.705-6.88 27.723-6.88 19.014 0 35.932 8.962 46.758 22.889h.149l.002.195a58.844 58.844 0 0 1 12.261 36.042c0 4.508-.505 8.898-1.461 13.116 24.5 4.994 42.934 26.651 42.934 52.608 0 29.359-23.579 53.214-52.849 53.687l-.889.008-360.01-.576a59.82 59.82 0 0 1-8.292.576C26.493 376.053 0 349.581 0 316.928s26.491-59.125 59.171-59.125h.197l-.002-.179c0-44.3 35.923-80.21 80.236-80.21 13.459 0 26.144 3.313 37.284 9.168C188.611 150.27 222.714 124 262.955 124l.004.004Zm120.436 38.78a98.916 98.916 0 0 1 19.245 3.341 99.715 99.715 0 0 1 34.686 17.503 99.675 99.675 0 0 1 25.38 29.41 98.861 98.861 0 0 1 7.899 17.859c1.577 4.798-1.036 9.966-5.835 11.542-4.8 1.577-9.969-1.034-11.546-5.832a80.548 80.548 0 0 0-6.438-14.557 81.395 81.395 0 0 0-20.724-24.01 81.44 81.44 0 0 0-28.318-14.293 80.644 80.644 0 0 0-14.992-2.669l-.695-.054c-5.038-.369-8.823-4.751-8.454-9.788a9.149 9.149 0 0 1 9.792-8.453v.001Zm4.668-31.805c8.348.611 16.58 2.046 24.596 4.271a127.46 127.46 0 0 1 44.337 22.374 127.402 127.402 0 0 1 32.442 37.592 126.304 126.304 0 0 1 10.095 22.825 9.143 9.143 0 0 1-5.835 11.542c-4.746 1.559-9.853-.976-11.491-5.672l-.055-.16a108.05 108.05 0 0 0-8.634-19.522 109.129 109.129 0 0 0-27.787-32.193 109.154 109.154 0 0 0-37.968-19.164 108.114 108.114 0 0 0-21.037-3.653c-5.039-.369-8.824-4.751-8.454-9.788.369-5.037 4.753-8.821 9.791-8.452Z" fill="url(#a)"></path><defs><linearGradient id="a" x1="0" y1="217.998" x2="424.419" y2="431.962" gradientUnits="userSpaceOnUse"><stop stop-color="#57D0FF"></stop><stop offset="1" stop-color="#2CB4FF"></stop></linearGradient></defs></svg>