<?xml version="1.0" encoding="UTF-8"?><svg id="Layer_1" xmlns="http://www.w3.org/2000/svg" viewBox="0 0 227.29 73.64"><defs><style>.cls-1{fill:#9aca3c;}.cls-2{fill:#587385;}</style></defs><path class="cls-2" d="m73.69,60.74c-4.59,0-8.76-1.04-12.4-3.1-3.64-2.05-6.57-4.88-8.71-8.4-2.14-3.51-3.22-7.52-3.22-11.93s1.08-8.41,3.22-11.93c2.14-3.52,5.07-6.35,8.71-8.4,3.64-2.05,7.81-3.1,12.4-3.1s8.78,1.04,12.45,3.1c3.67,2.06,6.6,4.88,8.71,8.4,2.11,3.51,3.18,7.53,3.18,11.93s-1.07,8.42-3.18,11.93c-2.11,3.52-5.04,6.34-8.71,8.4-3.67,2.05-7.86,3.1-12.45,3.1Zm0-39.06c-2.83,0-5.4.67-7.64,2-2.24,1.33-4.02,3.2-5.28,5.57-1.26,2.35-1.89,5.07-1.89,8.07s.64,5.72,1.89,8.07c1.26,2.37,3.04,4.24,5.28,5.57,2.24,1.33,4.81,2,7.64,2s5.4-.67,7.64-2c2.24-1.33,4.02-3.2,5.28-5.57,1.26-2.36,1.89-5.07,1.89-8.07s-.64-5.72-1.89-8.07c-1.26-2.37-3.04-4.24-5.28-5.57-2.24-1.33-4.81-2-7.64-2Z"/><path class="cls-2" d="m160.29,59.46c-2,0-3.63-1.63-3.63-3.63V17.33c0-1.38.42-2.39,1.3-3.08.91-.72,2.12-1.09,3.59-1.09.8,0,1.65.09,2.51.26.66.13,1.21.3,1.66.49v42.07c0,1.92-1.56,3.48-3.48,3.48h-1.95Z"/><path class="cls-2" d="m43.03,15.93c-.49-.2-1.08-.37-1.75-.51-.86-.17-1.71-.26-2.51-.26-1.47,0-2.66.36-3.54,1.08-.85.69-1.26,1.7-1.26,3.09v19.44c0,4.21-1.08,7.52-3.21,9.84-2.15,2.34-5.29,3.53-9.34,3.53s-6.91-1.09-9.09-3.23c-2.18-2.15-3.28-5.22-3.28-9.14V15.93c-.49-.2-1.08-.37-1.75-.51-.86-.17-1.7-.26-2.51-.26-1.47,0-2.66.36-3.54,1.08-.85.69-1.26,1.7-1.26,3.09v22.53c0,3.62.82,6.81,2.45,9.47,1.62,2.66,3.91,4.74,6.82,6.16,2.92,1.43,6.34,2.16,10.16,2.16,3.29,0,6.15-.52,8.51-1.54,2.32-1,4.04-2.34,5.12-3.98l1.19-1.82v3.46l-.04.04v17.84c4.88,0,8.83-3.96,8.82-8.83v-3.2c0-.08,0-.15,0-.23V15.93Z"/><path class="cls-2" d="m148.55,25.23c-1.99-3.49-4.73-6.28-8.13-8.3-3.4-2.02-7.26-3.04-11.48-3.04-3.22,0-6.13.61-8.67,1.8-2.53,1.19-4.64,2.86-6.26,4.94l-1.16,1.49.03-22.12c-5.02,0-9.1,4.08-9.09,9.1v26.03c0,5.32.97,9.96,2.88,13.79,1.9,3.8,4.61,6.75,8.06,8.77,3.46,2.02,7.62,3.05,12.39,3.05s9.13-1.01,12.77-3.01c3.63-1.99,6.51-4.78,8.56-8.3,2.05-3.52,3.09-7.59,3.09-12.12s-1.01-8.59-3-12.08Zm-10.51,23.16c-2.72,2.85-6.27,4.29-10.55,4.29s-7.85-1.44-10.6-4.29c-2.74-2.84-4.13-6.6-4.13-11.17s1.39-8.33,4.13-11.17c2.75-2.84,6.31-4.29,10.6-4.29s7.83,1.44,10.55,4.29c2.71,2.84,4.09,6.6,4.09,11.17s-1.37,8.33-4.09,11.17Z"/><path class="cls-2" d="m165.72,9.06V0h-1.73c-4.04,0-7.32,3.28-7.32,7.32v2.73s4.12-3.3,9.06-1Z"/><path class="cls-2" d="m227.22,31.34c-1.97-11.48-11.86-19.81-23.51-19.81-9.9,0-18.42,6.08-22.02,14.69v-12.39c-.43-.2-.98-.36-1.62-.49-.84-.17-1.67-.26-2.46-.26-1.45,0-2.63.37-3.52,1.09-.86.69-1.27,1.7-1.27,3.08v16.07c0,1.67-.02,3.31.04,4.92h-.05c.31,4.01,1.23,7.58,2.75,10.62,1.9,3.8,4.61,6.75,8.06,8.77,3.46,2.02,7.62,3.05,12.39,3.05s9.13-1.01,12.77-3.01c.84-.46,1.64-.97,2.41-1.52l.03,17.12c4.78,0,8.65-3.96,8.64-8.83v-3.2c0-.08,0-.15,0-.23v-8.07l.24-16.3h2.69c1.32,0,2.56-.58,3.41-1.59.86-1.02,1.23-2.37,1-3.7Zm-20.28,16.99c-2.72,2.85-6.27,4.29-10.55,4.29s-7.85-1.44-10.6-4.29c-2.52-2.61-3.89-6-4.09-10.09h0v-1.62h1.95c2.21,0,4.07-1.59,4.42-3.78,1.25-7.71,7.83-13.31,15.65-13.31,8.73,0,15.84,7.1,15.85,15.83v.65s-4.26,0-4.26,0c-1.72-.06-4.06.49-4.32,2.23h0s0,0,0,0c-.03.2-.05.44-.06.71-.32,3.76-1.64,6.92-3.98,9.38Z"/><path class="cls-1" d="m181.79,9.06V0h-1.73c-4.04,0-7.32,3.28-7.32,7.32v2.73s4.12-3.3,9.06-1Z"/></svg>