<?xml version="1.0" encoding="utf-8"?>
<!-- Generator: Adobe Illustrator 21.0.2, SVG Export Plug-In . SVG Version: 6.00 Build 0)  -->
<svg version="1.1" id="Layer_1" xmlns="http://www.w3.org/2000/svg" xmlns:xlink="http://www.w3.org/1999/xlink" x="0px" y="0px"
	 viewBox="0 0 437 88" style="enable-background:new 0 0 437 88;" xml:space="preserve">
<g>
	<path d="M8.9,85c-3.8-1.2-6.7-2.7-8.9-4.5l3.1-5.4c2.1,1.7,4.8,3.1,8,4.1c3.2,1.1,6.6,1.6,10.1,1.6c4.7,0,8.1-0.7,10.3-2.2
		c2.2-1.5,3.3-3.5,3.3-6.2c0-1.9-0.6-3.3-1.8-4.4c-1.2-1.1-2.8-1.9-4.7-2.4c-1.9-0.5-4.4-1.1-7.5-1.6c-4.1-0.8-7.5-1.6-10-2.4
		c-2.5-0.8-4.7-2.2-6.5-4.1c-1.8-1.9-2.7-4.6-2.7-8c0-4.3,1.8-7.8,5.3-10.5c3.6-2.7,8.5-4.1,14.8-4.1c3.3,0,6.6,0.4,9.9,1.3
		c3.3,0.9,6,2,8.1,3.4l-3,5.5c-4.2-2.9-9.2-4.4-15-4.4c-4.4,0-7.7,0.8-9.9,2.3c-2.2,1.6-3.3,3.6-3.3,6.1c0,1.9,0.6,3.5,1.9,4.7
		c1.3,1.2,2.8,2,4.7,2.6c1.9,0.5,4.5,1.1,7.8,1.7c4.1,0.8,7.3,1.6,9.8,2.3c2.5,0.8,4.6,2.1,6.3,4c1.7,1.9,2.6,4.5,2.6,7.8
		c0,4.5-1.9,8-5.6,10.6s-8.9,3.9-15.5,3.9C16.6,86.8,12.7,86.2,8.9,85z"/>
	<g>
		<path d="M98.9,62.9H56.2c0.4,5.3,2.4,9.6,6.1,12.8c3.7,3.3,8.3,4.9,14,4.9c3.2,0,6.1-0.6,8.7-1.7c2.7-1.1,4.9-2.8,6.9-5l3.9,4.5
			c-2.3,2.7-5.1,4.8-8.5,6.2c-3.4,1.4-7.1,2.1-11.2,2.1c-5.2,0-9.9-1.1-13.9-3.3c-4-2.2-7.2-5.3-9.5-9.3c-2.3-3.9-3.4-8.4-3.4-13.4
			s1.1-9.4,3.2-13.4c2.2-3.9,5.1-7,8.9-9.2c3.8-2.2,8-3.3,12.8-3.3c4.7,0,9,1.1,12.7,3.3c3.7,2.2,6.7,5.3,8.8,9.2
			c2.1,3.9,3.2,8.4,3.2,13.4L98.9,62.9z M61.9,45.5c-3.3,3.1-5.2,7.2-5.7,12.3h36.2c-0.5-5-2.3-9.1-5.7-12.3
			c-3.3-3.1-7.5-4.7-12.5-4.7C69.4,40.8,65.2,42.4,61.9,45.5z"/>
		<path d="M76.1,87c-5.2,0-10-1.1-14-3.4c-4.1-2.2-7.3-5.4-9.5-9.3c-2.3-4-3.4-8.5-3.4-13.5c0-5,1.1-9.5,3.3-13.5
			c2.2-4,5.2-7.1,9-9.3c3.8-2.2,8.1-3.3,12.9-3.3c4.7,0,9,1.1,12.8,3.3c3.8,2.2,6.8,5.3,8.9,9.2c2.1,3.9,3.2,8.5,3.2,13.5l-0.1,2.3
			H56.5c0.4,5.1,2.4,9.3,6,12.5c3.6,3.2,8.3,4.8,13.8,4.8c3.1,0,6-0.6,8.6-1.7c2.6-1.1,4.9-2.8,6.8-4.9l0.2-0.2l0.2,0.2l4,4.6
			L96,78.6c-2.3,2.7-5.2,4.8-8.6,6.3C84,86.3,80.2,87,76.1,87z M74.3,35.1c-4.7,0-8.9,1.1-12.6,3.3c-3.7,2.2-6.7,5.2-8.8,9.1
			s-3.2,8.4-3.2,13.3c0,4.9,1.1,9.4,3.4,13.3c2.2,3.9,5.4,7,9.4,9.2c4,2.2,8.6,3.3,13.8,3.3c4,0,7.8-0.7,11.1-2.1
			c3.3-1.4,6.1-3.4,8.3-6l-3.6-4.2c-1.9,2.1-4.2,3.8-6.8,4.9c-2.7,1.1-5.6,1.7-8.8,1.7c-5.6,0-10.4-1.7-14.1-4.9
			c-3.7-3.3-5.8-7.7-6.2-13l0-0.2h42.7l0.1-1.9c0-5-1.1-9.5-3.2-13.3c-2.1-3.9-5.1-6.9-8.8-9.1C83.2,36.2,78.9,35.1,74.3,35.1z
			 M92.6,58H56l0-0.2c0.5-5.1,2.4-9.2,5.7-12.4h0c3.4-3.2,7.6-4.8,12.5-4.8c5,0,9.2,1.6,12.6,4.8c3.3,3.2,5.3,7.3,5.7,12.4L92.6,58z
			 M56.5,57.6h35.7c-0.5-4.9-2.4-8.9-5.6-11.9c-3.3-3.1-7.4-4.6-12.3-4.6c-4.8,0-8.9,1.6-12.2,4.6C58.8,48.7,56.9,52.7,56.5,57.6z"
			/>
	</g>
	<g>
		<path d="M154.3,40.5c3.8,3.7,5.7,9.1,5.7,16.2v29.6h-6.9V57.4c0-5.3-1.3-9.3-4-12.1c-2.7-2.8-6.4-4.2-11.3-4.2
			c-5.5,0-9.8,1.6-13,4.9c-3.2,3.3-4.8,7.8-4.8,13.5v26.8h-6.9v-51h6.6v9.4c1.9-3.1,4.5-5.5,7.8-7.2c3.3-1.7,7.2-2.6,11.6-2.6
			C145.5,34.9,150.5,36.8,154.3,40.5z"/>
		<path d="M160.4,86.7h-7.7V57.4c0-5.2-1.3-9.2-3.9-11.8c-2.6-2.7-6.3-4-11.1-4c-5.4,0-9.6,1.6-12.8,4.8c-3.1,3.2-4.7,7.6-4.7,13.2
			v27.2h-7.7V34.9h7.4v8.5c1.8-2.6,4.3-4.7,7.2-6.2c3.4-1.7,7.3-2.6,11.8-2.6c6.5,0,11.7,1.9,15.6,5.7c3.8,3.8,5.8,9.3,5.8,16.5
			V86.7z M153.5,85.9h6.1V56.7c0-7-1.9-12.3-5.6-16c-3.7-3.6-8.7-5.5-15-5.5c-4.3,0-8.1,0.8-11.4,2.5c-3.2,1.7-5.8,4-7.6,7.1
			l-0.7,1.2V35.7h-5.8v50.2h6.1V59.5c0-5.8,1.7-10.5,4.9-13.8c3.3-3.3,7.8-5,13.3-5c5,0,8.9,1.4,11.6,4.3c2.7,2.8,4.1,7,4.1,12.4
			V85.9z"/>
	</g>
	<g>
		<path d="M214.7,80.6v5.7h-41.5v-4.6l32.1-40.6h-31.5v-5.8h40.3v4.6L182,80.6H214.7z"/>
		<path d="M215.3,86.9h-42.7v-5.4L204,41.7h-30.9v-7h41.6v5.4l-0.1,0.2L183.3,80h32V86.9z M173.8,85.7h40.3v-4.5h-33.3l32.7-41.5
			v-3.7h-39.1v4.6h32.2L173.8,82V85.7z"/>
	</g>
	<g>
		<path d="M271.8,62.9h-42.7c0.4,5.3,2.4,9.6,6.1,12.8c3.7,3.3,8.3,4.9,14,4.9c3.2,0,6.1-0.6,8.7-1.7c2.6-1.1,4.9-2.8,6.9-5l3.9,4.5
			c-2.3,2.7-5.1,4.8-8.5,6.2s-7.1,2.1-11.2,2.1c-5.2,0-9.9-1.1-13.9-3.3c-4-2.2-7.2-5.3-9.5-9.3c-2.3-3.9-3.4-8.4-3.4-13.4
			s1.1-9.4,3.2-13.4c2.2-3.9,5.1-7,8.9-9.2c3.8-2.2,8-3.3,12.8-3.3c4.7,0,9,1.1,12.7,3.3c3.7,2.2,6.7,5.3,8.8,9.2
			c2.1,3.9,3.2,8.4,3.2,13.4L271.8,62.9z M234.8,45.5c-3.3,3.1-5.2,7.2-5.7,12.3h36.2c-0.5-5-2.3-9.1-5.7-12.3
			c-3.3-3.1-7.5-4.7-12.5-4.7C242.3,40.8,238.1,42.4,234.8,45.5z"/>
		<path d="M249,87.6c-5.4,0-10.2-1.2-14.3-3.4c-4.2-2.3-7.4-5.5-9.8-9.6c-2.3-4-3.5-8.7-3.5-13.8c0-5.1,1.1-9.7,3.3-13.8
			c2.2-4.1,5.3-7.3,9.2-9.5c3.9-2.3,8.3-3.4,13.2-3.4c4.8,0,9.3,1.1,13.1,3.4c3.9,2.3,6.9,5.4,9.1,9.5c2.2,4,3.3,8.7,3.3,13.8
			l-0.1,2.9H230c0.5,4.7,2.5,8.5,5.8,11.4c3.5,3.1,8,4.7,13.4,4.7c3,0,5.9-0.5,8.4-1.6c2.5-1.1,4.7-2.7,6.6-4.8l0.6-0.7l4.9,5.7
			l-0.4,0.5c-2.3,2.8-5.3,5-8.8,6.4C257,86.9,253.2,87.6,249,87.6z M247.2,35.7c-4.5,0-8.7,1.1-12.3,3.2c-3.6,2.1-6.5,5.1-8.6,8.9
			c-2.1,3.8-3.1,8.2-3.1,13c0,4.8,1.1,9.2,3.3,13c2.2,3.8,5.3,6.8,9.1,9c3.9,2.2,8.5,3.2,13.5,3.2c3.9,0,7.6-0.7,10.9-2.1
			c3-1.3,5.6-3.1,7.7-5.5l-2.8-3.3c-1.9,2-4.1,3.5-6.5,4.5c-2.7,1.2-5.8,1.8-9,1.8c-5.8,0-10.7-1.7-14.5-5.1
			c-3.8-3.4-6-7.9-6.4-13.4l-0.1-0.9H271l0.1-1.4c0-4.8-1-9.2-3.1-13c-2.1-3.8-4.9-6.7-8.5-8.9C255.9,36.8,251.7,35.7,247.2,35.7z
			 M266.2,58.6h-37.9l0.1-0.9c0.5-5.2,2.5-9.5,5.9-12.8c3.5-3.3,7.8-4.9,12.9-4.9c5.2,0,9.5,1.7,13,4.9c3.5,3.3,5.5,7.6,5.9,12.8
			L266.2,58.6z M230,57h34.4c-0.6-4.4-2.4-8.1-5.3-10.9c-3.2-3-7.2-4.5-11.9-4.5c-4.7,0-8.7,1.5-11.8,4.5l0,0
			C232.4,48.9,230.6,52.6,230,57z"/>
	</g>
	<g>
		<path d="M364.7,40.4c3.7,3.7,5.5,9.1,5.5,16.3v29.6h-6.9V57.4c0-5.3-1.3-9.3-3.8-12.1c-2.6-2.8-6.2-4.2-10.8-4.2
			c-5.3,0-9.5,1.6-12.5,4.9c-3,3.3-4.6,7.8-4.6,13.5v26.8h-6.9V57.4c0-5.3-1.3-9.3-3.8-12.1c-2.6-2.8-6.2-4.2-10.9-4.2
			c-5.2,0-9.4,1.6-12.5,4.9c-3.1,3.3-4.6,7.8-4.6,13.5v26.8H286v-51h6.6v9.3c1.8-3.1,4.3-5.5,7.6-7.2c3.2-1.7,6.9-2.5,11.2-2.5
			c4.3,0,8,0.9,11.1,2.7s5.5,4.5,7,8c1.9-3.4,4.6-6,8.1-7.9c3.5-1.9,7.5-2.9,12.1-2.9C356,34.9,361,36.7,364.7,40.4z"/>
		<path d="M371.1,87.3h-8.9V57.4c0-5-1.2-8.9-3.6-11.4c-2.4-2.6-5.7-3.8-10.1-3.8c-5,0-8.9,1.5-11.8,4.6c-2.8,3.1-4.3,7.4-4.3,12.8
			v27.8h-8.9V57.4c0-5-1.2-8.9-3.6-11.4c-2.3-2.5-5.8-3.8-10.2-3.8c-4.9,0-8.9,1.5-11.7,4.6c-2.9,3.1-4.3,7.4-4.3,12.8v27.8H285v-53
			h8.6v7.1c1.7-2,3.7-3.6,6.1-4.9c3.4-1.7,7.3-2.6,11.6-2.6c4.4,0,8.3,1,11.6,2.9c2.8,1.6,5,3.9,6.6,6.8c1.9-2.8,4.4-5,7.5-6.7
			c3.7-2,7.9-3,12.6-3c6.6,0,12,2,15.8,5.8l0,0c3.8,3.9,5.8,9.6,5.8,17V87.3z M364.3,85.3h4.9V56.7c0-6.9-1.7-12.1-5.2-15.6l0,0
			c-3.4-3.5-8.3-5.2-14.4-5.2c-4.3,0-8.2,0.9-11.6,2.7c-3.3,1.8-5.9,4.3-7.7,7.5l-1,1.8l-0.8-1.9c-1.5-3.3-3.7-5.9-6.6-7.6
			c-3-1.7-6.5-2.6-10.6-2.6c-4,0-7.6,0.8-10.7,2.4c-3,1.6-5.5,3.9-7.2,6.8l-1.9,3.2v-12H287v49h4.9V59.5c0-6,1.6-10.8,4.9-14.2
			c3.3-3.5,7.7-5.2,13.2-5.2c5,0,8.9,1.5,11.7,4.5c2.7,3,4.1,7.3,4.1,12.8v27.9h4.9V59.5c0-6,1.6-10.8,4.8-14.2
			c3.2-3.5,7.7-5.2,13.2-5.2c4.9,0,8.8,1.5,11.6,4.5c2.7,3,4.1,7.3,4.1,12.8V85.3z"/>
	</g>
	<g>
		<path d="M396.6,83.4c-3.9-2.2-7-5.3-9.3-9.3c-2.3-3.9-3.4-8.4-3.4-13.4s1.1-9.4,3.4-13.4c2.3-3.9,5.4-7,9.3-9.2
			c3.9-2.2,8.4-3.3,13.3-3.3c4.9,0,9.3,1.1,13.3,3.3c3.9,2.2,7,5.3,9.3,9.2c2.2,3.9,3.3,8.4,3.3,13.4s-1.1,9.4-3.3,13.4
			c-2.2,3.9-5.3,7-9.3,9.3c-3.9,2.2-8.4,3.3-13.3,3.3C405,86.8,400.6,85.7,396.6,83.4z M419.6,78.2c2.9-1.6,5.1-4,6.7-7
			c1.6-3,2.4-6.5,2.4-10.4s-0.8-7.3-2.4-10.4c-1.6-3-3.9-5.4-6.7-7c-2.9-1.6-6.1-2.5-9.7-2.5c-3.6,0-6.9,0.8-9.7,2.5
			c-2.9,1.6-5.1,4-6.8,7c-1.6,3-2.5,6.5-2.5,10.4s0.8,7.3,2.5,10.4c1.6,3,3.9,5.4,6.8,7c2.9,1.6,6.1,2.5,9.7,2.5
			C413.5,80.7,416.8,79.9,419.6,78.2z"/>
		<path d="M409.9,88c-5.1,0-9.8-1.2-13.9-3.5c-4.1-2.3-7.4-5.6-9.8-9.7c-2.4-4.1-3.6-8.8-3.6-14s1.2-9.9,3.6-14
			c2.4-4.1,5.6-7.4,9.8-9.7c4.1-2.3,8.8-3.5,13.9-3.5c5.1,0,9.8,1.2,13.9,3.5c4.1,2.3,7.4,5.5,9.7,9.7c2.3,4.1,3.5,8.8,3.5,14
			s-1.2,9.9-3.5,14c-2.3,4.1-5.6,7.4-9.7,9.7C419.7,86.8,415,88,409.9,88z M409.9,36.1c-4.7,0-9,1.1-12.7,3.1
			c-3.7,2.1-6.7,5-8.8,8.8c-2.1,3.7-3.2,8-3.2,12.8c0,4.7,1.1,9,3.2,12.8c2.1,3.7,5.1,6.7,8.9,8.8h0c3.7,2.1,8,3.2,12.7,3.2
			c4.7,0,8.9-1.1,12.7-3.2c3.7-2.1,6.7-5.1,8.8-8.8c2.1-3.7,3.2-8,3.2-12.8c0-4.7-1.1-9-3.2-12.8c-2.1-3.7-5.1-6.7-8.8-8.7
			C418.8,37.2,414.6,36.1,409.9,36.1z M409.9,81.9c-3.8,0-7.3-0.9-10.3-2.6c-3.1-1.8-5.5-4.3-7.3-7.5c-1.7-3.2-2.6-6.9-2.6-11
			c0-4.1,0.9-7.7,2.6-11c1.7-3.2,4.2-5.7,7.3-7.5c3-1.7,6.5-2.6,10.3-2.6c3.8,0,7.3,0.9,10.3,2.6c3.1,1.8,5.5,4.3,7.2,7.5
			c1.7,3.2,2.6,6.9,2.6,10.9c0,4.1-0.9,7.7-2.6,10.9c-1.7,3.2-4.1,5.8-7.2,7.5C417.2,81,413.7,81.9,409.9,81.9z M409.9,42.1
			c-3.4,0-6.5,0.8-9.1,2.3c-2.7,1.5-4.8,3.7-6.3,6.6c-1.5,2.8-2.3,6.1-2.3,9.8c0,3.7,0.8,7,2.3,9.8c1.5,2.8,3.7,5,6.3,6.6
			c2.7,1.5,5.8,2.3,9.1,2.3c3.4,0,6.5-0.8,9.1-2.3c2.7-1.5,4.8-3.7,6.3-6.5c1.5-2.8,2.3-6.1,2.3-9.8c0-3.7-0.8-7-2.3-9.8
			c-1.5-2.8-3.6-5-6.3-6.5C416.4,42.9,413.3,42.1,409.9,42.1z"/>
	</g>
</g>
</svg>
