<?xml version="1.0" encoding="UTF-8" standalone="no"?>
<svg
   xmlns:dc="http://purl.org/dc/elements/1.1/"
   xmlns:cc="http://creativecommons.org/ns#"
   xmlns:rdf="http://www.w3.org/1999/02/22-rdf-syntax-ns#"
   xmlns:svg="http://www.w3.org/2000/svg"
   xmlns="http://www.w3.org/2000/svg"
   xmlns:sodipodi="http://sodipodi.sourceforge.net/DTD/sodipodi-0.dtd"
   xmlns:inkscape="http://www.inkscape.org/namespaces/inkscape"
   version="1.1"
   id="Layer_1"
   x="0px"
   y="0px"
   viewBox="0 0 450.005 180.83749"
   xml:space="preserve"
   sodipodi:docname="logo2.svg"
   inkscape:version="1.0.1 (3bc2e813f5, 2020-09-07)"
   width="450.005"
   height="180.83749"><metadata
   id="metadata48"><rdf:RDF><cc:Work
       rdf:about=""><dc:format>image/svg+xml</dc:format><dc:type
         rdf:resource="http://purl.org/dc/dcmitype/StillImage" /><dc:title></dc:title></cc:Work></rdf:RDF></metadata><defs
   id="defs46" /><sodipodi:namedview
   pagecolor="#ffffff"
   bordercolor="#666666"
   borderopacity="1"
   objecttolerance="10"
   gridtolerance="10"
   guidetolerance="10"
   inkscape:pageopacity="0"
   inkscape:pageshadow="2"
   inkscape:window-width="1498"
   inkscape:window-height="825"
   id="namedview44"
   showgrid="false"
   inkscape:zoom="0.60104076"
   inkscape:cx="462.55574"
   inkscape:cy="70.435039"
   inkscape:window-x="0"
   inkscape:window-y="0"
   inkscape:window-maximized="0"
   inkscape:current-layer="Layer_1"
   lock-margins="true"
   fit-margin-top="5"
   fit-margin-left="5"
   fit-margin-right="5"
   fit-margin-bottom="5" />
<style
   type="text/css"
   id="style2">
	.st0{fill:#232323;}
	.st1{fill:url(#SVGID_1_);}
</style>
<g
   id="g41"
   transform="translate(-275.005,-409.585)">
	<g
   id="g18">
		<path
   class="st0"
   d="m 457.41,483.61 c -0.97,0.8 -1.95,1.59 -3.1,2.21 -2.04,1.15 -4.87,2.21 -8.41,2.21 -10.17,0 -19.02,-8.76 -19.02,-20.79 0,-12.03 8.85,-20.79 19.02,-20.79 3.1,0 5.66,0.8 7.43,1.77 1.06,0.53 1.95,1.15 2.74,1.77 v -18.14 h 11.95 v 55.74 h -8.85 z m -0.89,-16.37 c 0,-5.75 -3.89,-9.73 -8.85,-9.73 -4.95,0 -8.85,3.98 -8.85,9.73 0,5.75 3.89,9.73 8.85,9.73 4.96,0 8.85,-3.98 8.85,-9.73 z"
   id="path4" />
		<path
   class="st0"
   d="m 482.62,429.19 c 3.54,0 6.64,3.1 6.64,6.64 0,3.54 -3.1,6.64 -6.64,6.64 -3.54,0 -6.64,-3.1 -6.64,-6.64 0.01,-3.54 3.11,-6.64 6.64,-6.64 z m -6.19,17.7 h 11.94 v 40.7 h -11.94 z"
   id="path6" />
		<path
   class="st0"
   d="m 508.28,488.03 c 0.35,0.8 0.89,1.42 1.5,2.04 1.06,0.97 2.83,1.95 5.57,1.95 4.95,0 8.41,-3.45 8.41,-7.96 v -2.21 c -0.62,0.62 -1.5,1.24 -2.48,1.77 -1.68,0.97 -4.16,1.77 -7.7,1.77 -10.26,0 -18.58,-8.49 -18.58,-19.47 0,-10.97 8.32,-19.46 18.58,-19.46 3.54,0 6.37,1.15 8.4,2.21 1.15,0.62 2.12,1.41 3.1,2.21 l 1.77,-3.98 h 8.85 v 37.16 c 0,10.62 -8.05,18.58 -20.35,18.58 -7.52,0 -12.3,-3.36 -15.13,-6.81 -1.68,-2.04 -3.01,-4.33 -3.89,-6.9 z m 7.08,-13.71 c 4.95,0 8.41,-3.45 8.41,-8.41 0,-4.95 -3.45,-8.4 -8.41,-8.4 -4.96,0 -8.41,3.45 -8.41,8.4 0.01,4.96 3.46,8.41 8.41,8.41 z"
   id="path8" />
		<path
   class="st0"
   d="m 550.31,429.19 c 3.54,0 6.64,3.1 6.64,6.64 0,3.54 -3.1,6.64 -6.64,6.64 -3.54,0 -6.64,-3.1 -6.64,-6.64 0.01,-3.54 3.11,-6.64 6.64,-6.64 z m -6.19,17.7 h 11.94 v 40.7 h -11.94 z"
   id="path10" />
		<path
   class="st0"
   d="m 568.01,457.95 h -6.19 v -10.18 h 3.1 c 3.27,0 4.87,-1.59 4.87,-4.87 v -5.75 h 10.17 v 9.73 h 8.41 v 11.06 h -8.41 v 13.27 c 0,3.54 2.21,5.75 5.31,5.75 0.97,0 1.59,-0.09 2.21,-0.18 l 0.88,-0.26 v 10.62 c -0.44,0.18 -0.97,0.35 -1.59,0.44 -1.15,0.27 -2.57,0.44 -4.16,0.44 -9.29,0 -14.6,-5.22 -14.6,-15.04 z"
   id="path12" />
		<path
   class="st0"
   d="m 619.33,483.61 c -0.97,0.8 -2.12,1.59 -3.36,2.21 -2.12,1.15 -5.04,2.21 -8.58,2.21 -8.85,0 -13.71,-4.78 -13.71,-11.5 0,-8.05 5.75,-13.71 24.33,-13.71 0,-3.98 -2.21,-6.19 -5.31,-6.19 -2.21,0 -3.54,1.06 -4.34,2.03 -0.44,0.62 -0.8,1.24 -0.97,1.95 l -11.94,-0.88 c 1.41,-8.05 6.99,-13.71 17.7,-13.71 9.73,0 16.81,7.08 16.81,16.81 v 24.77 h -8.85 z M 618,469.89 c -10.26,0 -12.39,2.21 -12.39,5.31 0,2.21 1.77,3.98 4.87,3.98 4.51,0 7.52,-3.01 7.52,-7.52 z"
   id="path14" />
		<path
   class="st0"
   d="m 637.91,431.85 h 11.94 v 55.74 h -11.94 z"
   id="path16" />
	</g>
	<g
   id="g32">
		<path
   class="st0"
   d="m 479.77,509.59 h 8.85 l 1.77,3.98 c 0.8,-0.8 1.68,-1.59 2.74,-2.21 1.77,-1.06 4.34,-2.21 7.43,-2.21 4.16,0 7.08,1.33 8.94,2.66 1.06,0.8 1.95,1.68 2.57,2.65 0.97,-0.97 2.04,-1.86 3.27,-2.65 2.12,-1.33 5.13,-2.66 8.67,-2.66 8.85,0 14.6,5.75 14.6,16.81 v 24.33 h -11.94 v -23.01 c 0,-4.51 -2.66,-7.08 -5.75,-7.08 -3.1,0 -5.75,2.57 -5.75,7.08 v 23.01 h -11.94 v -23.01 c 0,-4.51 -2.66,-7.08 -5.75,-7.08 -3.1,0 -5.75,2.57 -5.75,7.08 v 23.01 h -11.94 v -40.7 z"
   id="path20" />
		<path
   class="st0"
   d="m 570.46,546.31 c -0.97,0.8 -2.12,1.59 -3.36,2.21 -2.12,1.15 -5.04,2.21 -8.58,2.21 -8.85,0 -13.71,-4.78 -13.71,-11.5 0,-8.05 5.75,-13.71 24.33,-13.71 0,-3.98 -2.21,-6.19 -5.31,-6.19 -2.21,0 -3.54,1.06 -4.34,2.03 -0.44,0.62 -0.8,1.24 -0.97,1.95 l -11.94,-0.88 c 1.41,-8.05 6.99,-13.71 17.7,-13.71 9.73,0 16.81,7.08 16.81,16.81 v 24.77 h -8.85 z m -1.32,-13.71 c -10.26,0 -12.39,2.21 -12.39,5.31 0,2.21 1.77,3.98 4.87,3.98 4.51,0 7.52,-3.01 7.52,-7.52 z"
   id="path22" />
		<path
   class="st0"
   d="m 591.7,520.65 h -6.19 v -10.17 h 3.1 c 3.27,0 4.87,-1.59 4.87,-4.87 v -5.75 h 10.17 v 9.73 h 8.41 v 11.06 h -8.41 v 13.27 c 0,3.54 2.21,5.75 5.31,5.75 0.97,0 1.59,-0.09 2.21,-0.18 l 0.88,-0.26 v 10.62 c -0.44,0.18 -0.97,0.35 -1.59,0.44 -1.15,0.27 -2.57,0.44 -4.16,0.44 -9.29,0 -14.6,-5.22 -14.6,-15.04 z"
   id="path24" />
		<path
   class="st0"
   d="m 623.55,520.65 h -6.19 v -10.17 h 3.1 c 3.27,0 4.87,-1.59 4.87,-4.87 v -5.75 h 10.17 v 9.73 h 8.41 v 11.06 h -8.41 v 13.27 c 0,3.54 2.21,5.75 5.31,5.75 0.97,0 1.59,-0.09 2.21,-0.18 l 0.88,-0.26 v 10.62 c -0.44,0.18 -0.97,0.35 -1.59,0.44 -1.15,0.27 -2.57,0.44 -4.16,0.44 -9.29,0 -14.6,-5.22 -14.6,-15.04 z"
   id="path26" />
		<path
   class="st0"
   d="m 688.59,538.35 c -2.12,6.64 -8.49,12.83 -19.02,12.83 -10.97,0 -20.35,-9.29 -20.35,-21.23 0,-11.95 9.29,-21.24 20.79,-21.24 11.06,0 19.91,8.41 19.91,21.24 0,0.97 -0.18,1.86 -0.26,2.65 l -0.18,1.33 H 661.6 c 0.97,3.1 3.89,6.19 8.41,6.19 2.21,0 3.8,-0.62 4.78,-1.33 0.62,-0.35 1.06,-0.8 1.41,-1.33 z M 678.41,526.4 c -0.97,-3.54 -3.89,-6.64 -8.41,-6.64 -4.51,0 -7.43,3.1 -8.41,6.64 z"
   id="path28" />
		<path
   class="st0"
   d="m 696.11,509.59 h 8.85 l 1.77,4.42 c 0.71,-0.88 1.59,-1.68 2.57,-2.39 1.68,-1.33 4.07,-2.48 7.17,-2.48 1.06,0 1.95,0.18 2.57,0.27 l 0.97,0.18 v 12.39 l -1.24,-0.44 c -0.8,-0.27 -1.86,-0.44 -3.19,-0.44 -4.51,0 -7.52,3.1 -7.52,8.41 v 20.79 h -11.94 v -40.71 z"
   id="path30" />
	</g>
	<linearGradient
   id="SVGID_1_"
   gradientUnits="userSpaceOnUse"
   x1="302.60059"
   y1="435.54929"
   x2="420.15369"
   y2="559.42853">
		<stop
   offset="0"
   style="stop-color:#175DF5"
   id="stop34" />
		<stop
   offset="1"
   style="stop-color:#00C2F3"
   id="stop36" />
	</linearGradient>
	<path
   class="st1"
   d="m 384.53,481.83 c 0.06,-0.23 0.12,-0.47 0.19,-0.7 0,-0.02 0.01,-0.03 0.01,-0.05 4.53,-17.62 -0.11,-37.11 -13.9,-50.91 -20.78,-20.78 -54.46,-20.78 -75.24,0 -20.78,20.78 -20.78,54.46 0,75.24 13.87,13.87 33.49,18.48 51.18,13.84 0.12,-0.03 0.24,-0.06 0.36,-0.09 10.58,-2.73 22.3,0.04 30.59,8.33 6.45,6.45 9.56,14.96 9.34,23.41 -0.05,0.59 -0.08,1.18 -0.09,1.78 0,0.01 0,0.03 0,0.05 -0.2,8.42 2.91,16.91 9.34,23.34 12.47,12.47 32.68,12.47 45.14,0 12.47,-12.47 12.47,-32.68 0,-45.14 -6.61,-6.61 -15.4,-9.72 -24.05,-9.32 -0.16,0.01 -0.32,0.02 -0.49,0.03 -8.64,0.39 -17.4,-2.72 -24,-9.32 -8.28,-8.28 -11.07,-19.94 -8.38,-30.49 z m 45.43,60.55 c 6.13,6.13 6.13,16.08 0,22.21 -6.13,6.13 -16.08,6.13 -22.21,0 -6.13,-6.13 -6.13,-16.08 0,-22.21 6.13,-6.13 16.08,-6.13 22.21,0 z M 355.41,490 c -12.26,12.26 -32.15,12.26 -44.42,0 -12.26,-12.26 -12.26,-32.15 0,-44.42 12.26,-12.26 32.15,-12.26 44.42,0 12.27,12.26 12.26,32.16 0,44.42 z"
   id="path39"
   style="fill:url(#SVGID_1_)" />
</g>
</svg>
