<svg viewBox="0 0 1000 260" fill="none" xmlns="http://www.w3.org/2000/svg"><g clip-path="url(#a)"><path d="M801.979 147.942c19.985 0 36.176 15.465 36.176 35.097 0 20.28-15.728 36.022-35.343 36.022-19.06 0-36.916-13.705-36.916-33.985 0-21.206 15.266-37.134 36.083-37.134Zm-355.522 1.297a3.7 3.7 0 0 1 3.153 1.762l25.563 41.576-.676-39.574-.001-.063a3.701 3.701 0 0 1 3.702-3.701h9.279a3.701 3.701 0 0 1 3.702 3.701v61.123a3.701 3.701 0 0 1-3.702 3.702h-9.425a3.7 3.7 0 0 1-3.135-1.734l-25.188-40.123.421 38.115.001.04a3.702 3.702 0 0 1-3.702 3.702h-9.302a3.701 3.701 0 0 1-3.702-3.702V152.94a3.701 3.701 0 0 1 3.702-3.701h9.31Zm109.571 0a3.701 3.701 0 0 1 3.701 3.701v7.969a3.702 3.702 0 0 1-3.701 3.702h-17.579v10.649h16.931a3.702 3.702 0 0 1 3.702 3.702v7.969a3.702 3.702 0 0 1-3.702 3.701h-16.931v11.761h17.579a3.701 3.701 0 0 1 3.701 3.701v7.969a3.701 3.701 0 0 1-3.701 3.702h-30.624a3.701 3.701 0 0 1-3.701-3.702V152.94a3.701 3.701 0 0 1 3.701-3.701h30.624Zm72.999 0a3.701 3.701 0 0 1 3.701 3.701v7.969a3.702 3.702 0 0 1-3.701 3.702h-9.715v49.452a3.701 3.701 0 0 1-3.701 3.702h-10.084a3.701 3.701 0 0 1-3.701-3.702v-49.452h-9.807a3.703 3.703 0 0 1-3.702-3.702v-7.969a3.702 3.702 0 0 1 3.702-3.701h37.008Zm44.005 0a3.702 3.702 0 0 1 3.626 2.955l8.552 41.587.045-.005a.23.23 0 0 0 .181-.176l9.391-41.477a3.701 3.701 0 0 1 3.61-2.884h7.487a3.7 3.7 0 0 1 3.614 2.901l9.257 41.826.046-.005a.227.227 0 0 0 .177-.176l8.692-41.602a3.701 3.701 0 0 1 3.623-2.944h9.855a3.701 3.701 0 0 1 3.579 4.648l-16.175 61.123a3.702 3.702 0 0 1-3.579 2.755h-9.567a3.702 3.702 0 0 1-3.606-2.867l-9.606-41.49-.045.004a.234.234 0 0 0-.182.176l-9.564 41.31a3.702 3.702 0 0 1-3.606 2.867h-10.011a3.7 3.7 0 0 1-3.584-2.777l-15.763-61.124a3.701 3.701 0 0 1 3.584-4.625h9.969Zm216.287 0c7.124 0 12.583.926 16.192 2.5 7.401 3.334 12.583 11.39 12.583 21.113 0 10.835-6.477 19.725-17.025 21.577l16.38 20.554.077.103a1.714 1.714 0 0 1-1.417 2.679h-14.523a3.703 3.703 0 0 1-3.012-1.549l-14.714-20.583h-.185v18.43a3.701 3.701 0 0 1-3.701 3.702h-9.344a3.701 3.701 0 0 1-3.701-3.702V152.94a3.701 3.701 0 0 1 3.701-3.701h18.689Zm71.044 0a3.702 3.702 0 0 1 3.702 3.701v27.135l.056-.004a.336.336 0 0 0 .227-.152l18.151-28.945a3.7 3.7 0 0 1 3.136-1.735h9.374a3.701 3.701 0 0 1 3.084 5.747l-18.855 28.423 20.051 28.526a3.702 3.702 0 0 1-3.029 5.83h-11.279a3.702 3.702 0 0 1-3.131-1.727l-17.6-27.906-.043.005a.184.184 0 0 0-.142.18v25.746a3.702 3.702 0 0 1-3.702 3.702h-10.084a3.701 3.701 0 0 1-3.701-3.702V152.94a3.701 3.701 0 0 1 3.701-3.701h10.084Zm-158.384 14.075c-10.917 0-18.597 9.168-18.597 20.003 0 11.297 7.68 20.372 18.875 20.372 10.825 0 18.412-9.167 18.412-20.095 0-10.742-7.68-20.28-18.69-20.28Zm88.358 1.297h-6.662v19.076h6.477c6.939 0 11.195-3.241 11.195-9.816 0-5.927-4.441-9.26-11.01-9.26Zm13.332-112.976c14.352 0 28.225 9.028 33.24 21.37l.15.376.045.13a1.847 1.847 0 0 1-1.653 2.383l-.112.003h-15.033a3.702 3.702 0 0 1-3.057-1.615 14.816 14.816 0 0 0-.439-.614c-3.263-4.264-7.954-6.661-13.604-6.661-11.01 0-18.689 8.89-18.689 19.91 0 11.39 7.216 20.558 18.782 20.558 8.045 0 14.102-3.888 16.298-10.77l.078-.25h-16.746a3.702 3.702 0 0 1-3.699-3.56l-.002-.142v-6.58a3.701 3.701 0 0 1 3.559-3.699l.142-.002h33.307a3.702 3.702 0 0 1 3.699 3.56l.002.141v.188c0 18.428-13.508 36.486-36.546 36.486-20.262 0-36.361-15.836-36.361-35.93 0-20.743 16.746-35.282 36.639-35.282Zm70.131 0c4.534 0 8.512 1.018 12.121 2.87 6.776 3.52 10.292 8.473 10.842 16.48l.022.34.002.045v.043a1.52 1.52 0 0 1-1.416 1.517l-.104.003h-14.242a1.799 1.799 0 0 1-1.722-1.28l-.03-.11-.053-.219c-.923-3.69-2.863-5.058-5.882-5.058-3.238 0-6.014 2.315-6.014 5.371 0 4.075 3.701 5.927 11.195 9.168 15.081 6.482 18.875 11.946 18.875 20.928 0 13.242-9.068 21.021-23.871 21.021-14.747 0-24.507-7.624-24.701-22.063l-.003-.44.004-.101a1.482 1.482 0 0 1 1.377-1.377l.101-.003h14.705c.625 0 1.151.453 1.254 1.06l.013.102.022.236c.495 4.854 3.157 7.955 7.135 7.955a6.538 6.538 0 0 0 6.569-6.575c0-4.11-4.292-6.49-9.058-8.482l-.463-.192-.45-.183-.226-.092-.452-.18-.453-.18-.452-.179-.452-.178-.449-.177c-.448-.176-.893-.352-1.33-.529-11.195-4.537-16.284-10.464-16.284-19.354 0-11.668 11.287-20.187 23.87-20.187ZM809.077 52.93c1.233 0 2.38.613 3.067 1.628l.086.135 25.563 41.575-.676-39.573v-.063a3.701 3.701 0 0 1 3.559-3.7l.142-.002h9.28a3.702 3.702 0 0 1 3.699 3.56l.002.142v61.123a3.702 3.702 0 0 1-3.559 3.699l-.142.003h-9.426a3.699 3.699 0 0 1-3.043-1.596l-.092-.138-25.188-40.123.422 38.114v.041a3.702 3.702 0 0 1-3.56 3.699l-.142.003h-9.302a3.702 3.702 0 0 1-3.699-3.56l-.003-.142V56.633a3.702 3.702 0 0 1 3.56-3.7l.142-.002h9.31Zm-340.355 0a3.702 3.702 0 0 1 3.699 3.56l.002.142v7.969a3.701 3.701 0 0 1-3.559 3.699l-.142.002h-9.715v49.453a3.702 3.702 0 0 1-3.559 3.699l-.142.003h-10.084a3.703 3.703 0 0 1-3.699-3.56l-.002-.142V68.303h-9.807a3.702 3.702 0 0 1-3.699-3.56l-.002-.141v-7.97a3.701 3.701 0 0 1 3.559-3.698l.142-.003h37.008Zm28.219 0a3.702 3.702 0 0 1 3.699 3.56l.002.142v22.042h22.391V56.633a3.701 3.701 0 0 1 3.559-3.7l.142-.002h10.084a3.702 3.702 0 0 1 3.699 3.56l.002.142v61.123a3.702 3.702 0 0 1-3.559 3.699l-.142.003h-10.084a3.703 3.703 0 0 1-3.699-3.56l-.002-.142V94.047h-22.391v23.709a3.702 3.702 0 0 1-3.559 3.699l-.142.003h-10.084a3.703 3.703 0 0 1-3.699-3.56l-.002-.142V56.633a3.701 3.701 0 0 1 3.559-3.7l.142-.002h10.084Zm94.002 0a3.701 3.701 0 0 1 3.699 3.56l.003.142v7.969a3.702 3.702 0 0 1-3.56 3.699l-.142.002h-17.578v10.65h16.931a3.703 3.703 0 0 1 3.699 3.56l.002.141v7.97a3.701 3.701 0 0 1-3.559 3.698l-.142.003h-16.931v11.76h17.578a3.702 3.702 0 0 1 3.699 3.56l.003.142v7.969a3.702 3.702 0 0 1-3.56 3.699l-.142.003H560.32a3.702 3.702 0 0 1-3.699-3.56l-.003-.142V56.633a3.702 3.702 0 0 1 3.56-3.7l.142-.002h30.623Zm83.64 0a3.701 3.701 0 0 1 3.699 3.56l.003.142v7.969a3.702 3.702 0 0 1-3.56 3.699l-.142.002h-9.714v49.453a3.702 3.702 0 0 1-3.559 3.699l-.142.003h-10.084a3.702 3.702 0 0 1-3.699-3.56l-.003-.142V68.303h-9.806a3.702 3.702 0 0 1-3.699-3.56l-.003-.141v-7.97a3.702 3.702 0 0 1 3.56-3.698l.142-.003h37.007Zm28.22 0a3.7 3.7 0 0 1 3.698 3.56l.003.142v22.042h22.39V56.633a3.702 3.702 0 0 1 3.56-3.7l.142-.002h10.084a3.7 3.7 0 0 1 3.698 3.56l.003.142v61.123a3.702 3.702 0 0 1-3.559 3.699l-.142.003h-10.084a3.702 3.702 0 0 1-3.699-3.56l-.003-.142V94.047h-22.39v23.709a3.702 3.702 0 0 1-3.559 3.699l-.142.003h-10.084a3.702 3.702 0 0 1-3.699-3.56l-.003-.142V56.633a3.702 3.702 0 0 1 3.56-3.7l.142-.002h10.084Zm73.462 0a3.702 3.702 0 0 1 3.699 3.56l.003.142v61.123a3.702 3.702 0 0 1-3.56 3.699l-.142.003h-10.084a3.701 3.701 0 0 1-3.698-3.56l-.003-.142V56.633a3.702 3.702 0 0 1 3.56-3.7l.141-.002h10.084Z" fill="#000"></path><path fill-rule="evenodd" clip-rule="evenodd" d="M190.839 36c33.798 0 61.628 25.547 65.234 58.384 6-3.19 12.849-4.997 20.119-4.997 13.799 0 26.078 6.508 33.934 16.623h.109l.001.142a42.756 42.756 0 0 1 8.899 26.177 43.08 43.08 0 0 1-1.061 9.526c17.781 3.627 31.159 19.355 31.159 38.208 0 21.323-17.112 38.649-38.353 38.994l-.645.005-261.277-.418a43.4 43.4 0 0 1-6.016.418C19.226 219.062 0 199.836 0 176.12s19.226-42.942 42.942-42.942h.143l-.001-.13c0-32.174 26.07-58.256 58.231-58.256 9.768 0 18.974 2.406 27.059 6.658 8.51-26.373 33.26-45.45 62.465-45.45Zm87.404 28.163a71.733 71.733 0 0 1 13.968 2.428 72.364 72.364 0 0 1 25.174 12.714 72.4 72.4 0 0 1 18.422 21.361 71.856 71.856 0 0 1 5.734 12.971 6.638 6.638 0 1 1-12.614 4.146 58.54 58.54 0 0 0-4.674-10.572 59.109 59.109 0 0 0-15.042-17.44 59.08 59.08 0 0 0-20.553-10.382 58.466 58.466 0 0 0-10.88-1.94l-.504-.039a6.642 6.642 0 0 1 .969-13.247Zm3.387-23.1a91.673 91.673 0 0 1 17.851 3.104 92.488 92.488 0 0 1 32.179 16.252 92.518 92.518 0 0 1 23.547 27.304 91.787 91.787 0 0 1 7.329 16.578 6.639 6.639 0 0 1-12.575 4.262l-.039-.116a78.475 78.475 0 0 0-6.268-14.179 79.252 79.252 0 0 0-20.168-23.383 79.217 79.217 0 0 0-27.557-13.92 78.416 78.416 0 0 0-15.268-2.654 6.64 6.64 0 0 1-6.136-7.11 6.638 6.638 0 0 1 7.105-6.138Z" fill="url(#b)"></path></g><defs><linearGradient id="b" x1="0" y1="104.236" x2="307.987" y2="259.613" gradientUnits="userSpaceOnUse"><stop stop-color="#57D0FF"></stop><stop offset="1" stop-color="#2CB4FF"></stop></linearGradient><clipPath id="a"><path fill="#fff" transform="translate(0 36)" d="M0 0h1000v186.667H0z"></path></clipPath></defs></svg>