<svg id="Layer_1" data-name="Layer 1" xmlns="http://www.w3.org/2000/svg" viewBox="0 0 349 137.8729"><defs><style>.cls-1{fill:#00e;}.cls-2{fill:#fff;}</style></defs><rect class="cls-1" width="349" height="102"/><path class="cls-2" d="M72.389,36.1635H88.466l12.744,33.569,13.494-33.569h16.243l9.496,62.807H124.117L119.535,62.82h-.167L104.292,98.97H97.794l-14.41-36.151h-.167L77.97,98.97H61.727Z" transform="translate(-25.5 -16.9015)"/><path class="cls-2" d="M211.496,57.2375a17.7175,17.7175,0,0,0-14.328-6.914c-9.996,0-16.743,7.664-16.743,17.409,0,9.913,6.83,17.077,16.993,17.077a18.7839,18.7839,0,0,0,14.078-6.664v19.575c-5.415,1.665-9.33,2.915-14.411,2.915a34.9668,34.9668,0,0,1-23.573-9.246c-6.914-6.247-10.079-14.41-10.079-23.74a32.87,32.87,0,0,1,9.246-22.99,34.0338,34.0338,0,0,1,23.907-10.163,38.3167,38.3167,0,0,1,14.911,3.166v19.575Z" transform="translate(-25.5 -16.9015)"/><path class="cls-2" d="M284.713,57.2375a17.715,17.715,0,0,0-14.326-6.914c-9.997,0-16.744,7.664-16.744,17.409,0,9.913,6.831,17.077,16.994,17.077a18.7781,18.7781,0,0,0,14.076-6.664v19.575c-5.414,1.665-9.328,2.915-14.41,2.915A34.9649,34.9649,0,0,1,246.73,91.39c-6.914-6.247-10.079-14.41-10.079-23.74a32.8652,32.8652,0,0,1,9.246-22.99,34.0315,34.0315,0,0,1,23.906-10.163,38.3042,38.3042,0,0,1,14.91,3.166Z" transform="translate(-25.5 -16.9015)"/><path class="cls-2" d="M333.691,98.97H317.365V36.1635h16.326Z" transform="translate(-25.5 -16.9015)"/><path d="M29.6978,133.5342H31.666v16.92H29.6978Z" transform="translate(-25.5 -16.9015)"/><path d="M37.2456,149.8779a4.9487,4.9487,0,0,1-1.9438-2.124,7.8455,7.8455,0,0,1,0-6.4082,4.96,4.96,0,0,1,1.9438-2.124,5.6346,5.6346,0,0,1,2.916-.7432,5.7021,5.7021,0,0,1,2.9282.7432,4.9393,4.9393,0,0,1,1.9561,2.124,7.8508,7.8508,0,0,1,0,6.4082,4.9282,4.9282,0,0,1-1.9561,2.124,5.6928,5.6928,0,0,1-2.9282.7442A5.6255,5.6255,0,0,1,37.2456,149.8779Zm5.5679-2.0039a6.3615,6.3615,0,0,0-.0117-6.624,3.5759,3.5759,0,0,0-5.28,0,6.34,6.34,0,0,0-.0117,6.6123,3.6422,3.6422,0,0,0,5.3037.0117Z" transform="translate(-25.5 -16.9015)"/><path d="M52.7617,135.2139h-5.88v-1.68H60.6577v1.68H54.7539v15.24H52.7617Z" transform="translate(-25.5 -16.9015)"/><path d="M67.7852,148.51l.768-1.5118a8.0975,8.0975,0,0,0,2.5562,1.5118,9.1941,9.1941,0,0,0,3.0356.456,5.3354,5.3354,0,0,0,3.1441-.792,2.5857,2.5857,0,0,0,1.104-2.2314,1.8513,1.8513,0,0,0-.5279-1.3682,3.7255,3.7255,0,0,0-1.3921-.84,20.9879,20.9879,0,0,0-2.3281-.6485,22.6775,22.6775,0,0,1-3.228-.96,5.021,5.021,0,0,1-2.04-1.44,3.6958,3.6958,0,0,1-.78-2.4482,4.4528,4.4528,0,0,1,.7558-2.5567,4.8952,4.8952,0,0,1,2.16-1.7275,8.0727,8.0727,0,0,1,3.2519-.6123,9.5451,9.5451,0,0,1,3.2759.5527,7.0821,7.0821,0,0,1,2.58,1.584l-.7437,1.5117a8.2531,8.2531,0,0,0-2.436-1.5,7.4871,7.4871,0,0,0-2.6763-.4677,5.0751,5.0751,0,0,0-3.0839.8281,2.7161,2.7161,0,0,0-1.1158,2.3154,2.148,2.148,0,0,0,.9839,1.92,9.3491,9.3491,0,0,0,2.9761,1.1045q2.1834.5274,3.4316.9717a5.138,5.138,0,0,1,2.0762,1.332,3.343,3.343,0,0,1,.8281,2.376,4.2816,4.2816,0,0,1-.7558,2.5195,4.8206,4.8206,0,0,1-2.1724,1.668,8.5832,8.5832,0,0,1-3.312.5889A9.1172,9.1172,0,0,1,67.7852,148.51Z" transform="translate(-25.5 -16.9015)"/><path d="M93.2012,138.79l-6.9121,15.9844H84.2969l1.9682-4.4639-4.9438-11.52h2.064l3.9116,9.5518,3.96-9.5518Z" transform="translate(-25.5 -16.9015)"/><path d="M94.0415,149.11l.648-1.44a6.2528,6.2528,0,0,0,1.9082,1.0684,6.9294,6.9294,0,0,0,2.1958.3242,3.649,3.649,0,0,0,1.98-.4443,1.4379,1.4379,0,0,0,.6841-1.2842,1.4064,1.4064,0,0,0-.456-1.1035,3.4359,3.4359,0,0,0-1.5122-.6485l-1.9678-.456a4.4537,4.4537,0,0,1-2.28-1.1524,2.7789,2.7789,0,0,1-.792-2.0156,3.0482,3.0482,0,0,1,1.2241-2.5195,5.146,5.146,0,0,1,3.2642-.96,6.8541,6.8541,0,0,1,2.3281.3955,4.9267,4.9267,0,0,1,1.8477,1.14l-.648,1.416a5.3308,5.3308,0,0,0-3.5278-1.3672,3.3443,3.3443,0,0,0-1.9082.4678,1.6339,1.6339,0,0,0-.2637,2.4238,2.7769,2.7769,0,0,0,1.356.6357l1.9917.4805a5.0475,5.0475,0,0,1,2.4243,1.1641,2.7209,2.7209,0,0,1,.792,2.0273,2.888,2.888,0,0,1-1.2363,2.4483,5.5648,5.5648,0,0,1-3.3721.9121A6.8589,6.8589,0,0,1,94.0415,149.11Z" transform="translate(-25.5 -16.9015)"/><path d="M112.1138,148.99l-.0962,1.5362a7.08,7.08,0,0,1-1.2.0957,3.7953,3.7953,0,0,1-4.2476-4.1758v-6.1445h-2.28v-1.5362h2.28v-3.5517h1.9439v3.5517h3.312v1.5362h-3.312v6q0,2.7612,2.5439,2.7607A7.8378,7.8378,0,0,0,112.1138,148.99Z" transform="translate(-25.5 -16.9015)"/><path d="M123.6333,144.91h-8.5439a4.6019,4.6019,0,0,0,1.104,3.0839,3.7846,3.7846,0,0,0,2.8559,1.044,5.7886,5.7886,0,0,0,3.7442-1.3916l.6479,1.416a5.4908,5.4908,0,0,1-1.9678,1.14,7.3811,7.3811,0,0,1-2.4482.42,5.7474,5.7474,0,0,1-4.3081-1.6084,6.0784,6.0784,0,0,1-1.5718-4.44,6.9685,6.9685,0,0,1,.6958-3.18,5.199,5.199,0,0,1,1.9561-2.1484,5.4027,5.4027,0,0,1,2.8681-.7676,4.5721,4.5721,0,0,1,3.648,1.5235,6.1869,6.1869,0,0,1,1.32,4.1884Zm-7.4038-3.96a4.38,4.38,0,0,0-1.0918,2.7119h6.792a4.1571,4.1571,0,0,0-.8882-2.7236,2.9792,2.9792,0,0,0-2.352-.9483A3.2572,3.2572,0,0,0,116.23,140.95Z" transform="translate(-25.5 -16.9015)"/><path d="M143.145,143.11v7.3437h-1.9438v-7.248a3.9147,3.9147,0,0,0-.564-2.3516,2.1281,2.1281,0,0,0-1.812-.7441,2.8714,2.8714,0,0,0-2.3042.9834,4.0076,4.0076,0,0,0-.84,2.6884v6.6719h-1.9439v-7.248a3.8435,3.8435,0,0,0-.5762-2.3643,2.1805,2.1805,0,0,0-1.8237-.7314,2.8714,2.8714,0,0,0-2.3042.9834,4.0076,4.0076,0,0,0-.84,2.6884v6.6719H126.249V138.7656h1.92v1.8487a3.7973,3.7973,0,0,1,1.4639-1.584,4.17,4.17,0,0,1,2.16-.5518,3.4432,3.4432,0,0,1,3.5756,2.3037,3.7932,3.7932,0,0,1,1.5362-1.6924,4.5182,4.5182,0,0,1,2.352-.6113Q143.145,138.4785,143.145,143.11Z" transform="translate(-25.5 -16.9015)"/><path d="M145.7368,149.11l.648-1.44a6.2528,6.2528,0,0,0,1.9082,1.0684,6.93,6.93,0,0,0,2.1958.3242,3.65,3.65,0,0,0,1.98-.4443,1.4381,1.4381,0,0,0,.684-1.2842,1.4064,1.4064,0,0,0-.456-1.1035,3.4359,3.4359,0,0,0-1.5122-.6485l-1.9678-.456a4.4537,4.4537,0,0,1-2.28-1.1524,2.7789,2.7789,0,0,1-.792-2.0156,3.048,3.048,0,0,1,1.2242-2.5195,5.1457,5.1457,0,0,1,3.2641-.96,6.8541,6.8541,0,0,1,2.3281.3955,4.9267,4.9267,0,0,1,1.8477,1.14l-.648,1.416a5.3308,5.3308,0,0,0-3.5278-1.3672,3.3443,3.3443,0,0,0-1.9082.4678,1.6339,1.6339,0,0,0-.2637,2.4238,2.7769,2.7769,0,0,0,1.356.6357l1.9917.4805a5.0475,5.0475,0,0,1,2.4243,1.1641,2.7209,2.7209,0,0,1,.792,2.0273,2.888,2.888,0,0,1-1.2363,2.4483,5.5646,5.5646,0,0,1-3.3721.9121A6.8589,6.8589,0,0,1,145.7368,149.11Z" transform="translate(-25.5 -16.9015)"/><path d="M159.7769,148.0059v1.7285a5.0024,5.0024,0,0,1-.3238,1.8359,4.815,4.815,0,0,1-1.1162,1.62l-.9121-.6963a3.7628,3.7628,0,0,0,1.0562-2.04h-1.1519v-2.4482Z" transform="translate(-25.5 -16.9015)"/><path d="M168.1523,148.51l.7681-1.5118a8.0975,8.0975,0,0,0,2.5562,1.5118,9.1937,9.1937,0,0,0,3.0356.456,5.3348,5.3348,0,0,0,3.144-.792,2.5855,2.5855,0,0,0,1.1041-2.2314,1.8513,1.8513,0,0,0-.5279-1.3682,3.7255,3.7255,0,0,0-1.3921-.84,20.9942,20.9942,0,0,0-2.3281-.6485,22.6775,22.6775,0,0,1-3.228-.96,5.021,5.021,0,0,1-2.04-1.44,3.6958,3.6958,0,0,1-.78-2.4482,4.4528,4.4528,0,0,1,.7558-2.5567,4.8952,4.8952,0,0,1,2.16-1.7275,8.0727,8.0727,0,0,1,3.2519-.6123,9.5451,9.5451,0,0,1,3.2759.5527,7.0821,7.0821,0,0,1,2.58,1.584l-.7437,1.5117a8.2531,8.2531,0,0,0-2.436-1.5,7.4871,7.4871,0,0,0-2.6763-.4677,5.0756,5.0756,0,0,0-3.084.8281,2.7163,2.7163,0,0,0-1.1157,2.3154,2.148,2.148,0,0,0,.9839,1.92,9.3491,9.3491,0,0,0,2.9761,1.1045q2.1833.5274,3.4316.9717a5.1386,5.1386,0,0,1,2.0762,1.332,3.343,3.343,0,0,1,.8281,2.376,4.2816,4.2816,0,0,1-.7558,2.5195,4.8212,4.8212,0,0,1-2.1724,1.668,8.5832,8.5832,0,0,1-3.312.5889A9.1176,9.1176,0,0,1,168.1523,148.51Z" transform="translate(-25.5 -16.9015)"/><path d="M185.3242,149.8779a4.9487,4.9487,0,0,1-1.9438-2.124,7.8455,7.8455,0,0,1,0-6.4082,4.96,4.96,0,0,1,1.9438-2.124,5.6349,5.6349,0,0,1,2.916-.7432,5.7027,5.7027,0,0,1,2.9283.7432,4.9391,4.9391,0,0,1,1.956,2.124,7.8508,7.8508,0,0,1,0,6.4082,4.928,4.928,0,0,1-1.956,2.124,5.6934,5.6934,0,0,1-2.9283.7442A5.6257,5.6257,0,0,1,185.3242,149.8779Zm5.5679-2.0039a6.3615,6.3615,0,0,0-.0117-6.624,3.5759,3.5759,0,0,0-5.28,0,6.3408,6.3408,0,0,0-.0117,6.6123,3.6422,3.6422,0,0,0,5.3037.0117Z" transform="translate(-25.5 -16.9015)"/><path d="M199.0405,138.7656h3.312v1.5362h-3.312v10.1523h-1.9438V140.3018h-2.28v-1.5362h2.28v-.3838a4.8719,4.8719,0,0,1,1.1636-3.5273,5.2593,5.2593,0,0,1,3.5883-1.3447l.96-.0479.1435,1.5117-1.1035.0723a3.06,3.06,0,0,0-2.1362.8281,3.23,3.23,0,0,0-.6719,2.2442Z" transform="translate(-25.5 -16.9015)"/><path d="M209.72,148.99l-.0957,1.5362a7.083,7.083,0,0,1-1.2.0957,3.7958,3.7958,0,0,1-4.248-4.1758v-6.1445h-2.28v-1.5362h2.28v-3.5517H206.12v3.5517h3.3115v1.5362H206.12v6q0,2.7612,2.544,2.7607A7.829,7.829,0,0,0,209.72,148.99Z" transform="translate(-25.5 -16.9015)"/><path d="M229.4,138.7656l-4.3447,11.6885h-1.8721l-3.2881-9.0479-3.3115,9.0479h-1.8477l-4.3437-11.6885h2.0156L215.72,148.15l3.3838-9.3848h1.6807L224.12,148.15l3.336-9.3848Z" transform="translate(-25.5 -16.9015)"/><path d="M239.42,139.6182a4.8487,4.8487,0,0,1,1.0918,3.4677v7.3682h-1.8955v-1.9922a3.43,3.43,0,0,1-1.3926,1.5957,4.0932,4.0932,0,0,1-2.16.5645,4.7262,4.7262,0,0,1-2.0752-.4561,3.6957,3.6957,0,0,1-1.5-1.2715,3.1446,3.1446,0,0,1-.5528-1.8007,2.9222,2.9222,0,0,1,.6729-2.0518,4.0763,4.0763,0,0,1,2.208-1.0557,21.8177,21.8177,0,0,1,4.2715-.3242h.5283v-.792a3.104,3.104,0,0,0-.6006-2.124,2.5147,2.5147,0,0,0-1.9433-.66,7.4889,7.4889,0,0,0-4.0088,1.2481l-.6475-1.416a7.6536,7.6536,0,0,1,2.1963-1.044,8.42,8.42,0,0,1,2.4834-.3955A4.4062,4.4062,0,0,1,239.42,139.6182Zm-1.7275,8.4961a3.496,3.496,0,0,0,.9238-2.5079V144.91h-.4326a21.477,21.477,0,0,0-3.2158.18,3.1273,3.1273,0,0,0-1.5723.6006,1.5774,1.5774,0,0,0-.4678,1.2354,1.9859,1.9859,0,0,0,.6846,1.5478,2.4759,2.4759,0,0,0,1.7158.6123A3.1212,3.1212,0,0,0,237.6924,148.1143Z" transform="translate(-25.5 -16.9015)"/><path d="M250.4482,140.1582l-1.2714.12a3.694,3.694,0,0,0-2.6045,1.1279,3.5728,3.5728,0,0,0-.8037,2.376v6.6719h-1.9444V138.7656h1.8965v2.04a4.295,4.295,0,0,1,3.8633-2.2793l.6963-.0479Z" transform="translate(-25.5 -16.9015)"/><path d="M261.6084,144.91h-8.5439a4.6,4.6,0,0,0,1.1044,3.0839,3.7823,3.7823,0,0,0,2.8555,1.044,5.7866,5.7866,0,0,0,3.7442-1.3916l.6484,1.416a5.5,5.5,0,0,1-1.9688,1.14,7.3775,7.3775,0,0,1-2.4472.42,5.7478,5.7478,0,0,1-4.3086-1.6084,6.0787,6.0787,0,0,1-1.5723-4.44,6.9686,6.9686,0,0,1,.6963-3.18,5.199,5.199,0,0,1,1.9561-2.1484,5.4015,5.4015,0,0,1,2.8681-.7676,4.5746,4.5746,0,0,1,3.6485,1.5235,6.1918,6.1918,0,0,1,1.3193,4.1884Zm-7.4033-3.96a4.3863,4.3863,0,0,0-1.0928,2.7119h6.792a4.16,4.16,0,0,0-.8877-2.7236,2.9788,2.9788,0,0,0-2.3516-.9483A3.2556,3.2556,0,0,0,254.2051,140.95Z" transform="translate(-25.5 -16.9015)"/><path d="M282.2,150.4541l-1.9678-2.1357a7.1521,7.1521,0,0,1-2.3281,1.7158,6.7671,6.7671,0,0,1-2.832.5879,6.9122,6.9122,0,0,1-2.8448-.5518,4.4463,4.4463,0,0,1-1.92-1.56,4.0044,4.0044,0,0,1-.6836-2.3037,4.4154,4.4154,0,0,1,.9239-2.7481,10.7066,10.7066,0,0,1,2.9882-2.46A11.06,11.06,0,0,1,272,138.8623a3.9742,3.9742,0,0,1-.4316-1.8,3.4116,3.4116,0,0,1,1.14-2.6885,4.3792,4.3792,0,0,1,3.0117-1.0078,3.98,3.98,0,0,1,2.7725.9238,3.1882,3.1882,0,0,1,1.0195,2.4844,3.6561,3.6561,0,0,1-.7441,2.2442,10.25,10.25,0,0,1-2.6641,2.22l4.0088,4.3916a11.8647,11.8647,0,0,0,1.1514-5.1113h1.7041a12.7556,12.7556,0,0,1-1.68,6.3837l3.24,3.5518Zm-4.8486-1.9082a5.34,5.34,0,0,0,1.8007-1.4033l-4.5605-4.9922a8.5814,8.5814,0,0,0-2.3643,1.9434,3.3586,3.3586,0,0,0-.6836,2.0644,2.5525,2.5525,0,0,0,.9717,2.1,4.0388,4.0388,0,0,0,2.6045.78A5.1151,5.1151,0,0,0,277.3516,148.5459Zm-3.3-13.0918a2.1061,2.1061,0,0,0-.6358,1.6084,2.8053,2.8053,0,0,0,.336,1.332,9.8051,9.8051,0,0,0,1.2959,1.7159,9.1581,9.1581,0,0,0,2.1718-1.7042,2.3858,2.3858,0,0,0,.5879-1.5361,1.9564,1.9564,0,0,0-.5635-1.4639,2.0512,2.0512,0,0,0-1.5-.5517A2.3675,2.3675,0,0,0,274.0518,135.4541Z" transform="translate(-25.5 -16.9015)"/><path d="M292.1113,133.5342H297.8a8.5377,8.5377,0,0,1,6.2754,2.1963,9.9274,9.9274,0,0,1,0,12.5156,8.5109,8.5109,0,0,1-6.2754,2.208h-5.6885Zm5.5684,15.24q6.5757,0,6.5762-6.792,0-6.7691-6.5762-6.7685h-3.6006v13.5605Z" transform="translate(-25.5 -16.9015)"/><path d="M319.1113,144.91h-8.5439a4.6,4.6,0,0,0,1.1045,3.0839,3.782,3.782,0,0,0,2.8554,1.044,5.7866,5.7866,0,0,0,3.7442-1.3916l.6484,1.416a5.4993,5.4993,0,0,1-1.9687,1.14,7.3776,7.3776,0,0,1-2.4473.42,5.7479,5.7479,0,0,1-4.3086-1.6084,6.0791,6.0791,0,0,1-1.5723-4.44,6.97,6.97,0,0,1,.6963-3.18,5.199,5.199,0,0,1,1.9561-2.1484,5.4016,5.4016,0,0,1,2.8682-.7676,4.5745,4.5745,0,0,1,3.6484,1.5235,6.1918,6.1918,0,0,1,1.3193,4.1884Zm-7.4033-3.96a4.3863,4.3863,0,0,0-1.0928,2.7119h6.792a4.16,4.16,0,0,0-.8877-2.7236,2.9787,2.9787,0,0,0-2.3515-.9483A3.2558,3.2558,0,0,0,311.708,140.95Z" transform="translate(-25.5 -16.9015)"/><path d="M331.9033,138.79l-5.04,11.6641h-1.8242L320.0234,138.79h2.0635l3.9121,9.5518,3.96-9.5518Z" transform="translate(-25.5 -16.9015)"/><path d="M335.8389,133.7021v2.1836h-2.3516v-2.1836Zm-2.16,5.0635h1.9443v11.6885h-1.9443Z" transform="translate(-25.5 -16.9015)"/><path d="M340.9512,149.8779a4.9538,4.9538,0,0,1-1.9561-2.1,7.6641,7.6641,0,0,1,.0235-6.3838,5.236,5.236,0,0,1,1.9921-2.1484,5.7619,5.7619,0,0,1,3.0127-.7676,6.5508,6.5508,0,0,1,2.3037.42,5.018,5.018,0,0,1,1.8243,1.1153l-.6485,1.44a5.313,5.313,0,0,0-3.36-1.3437,3.4993,3.4993,0,0,0-2.8076,1.1757,4.9365,4.9365,0,0,0-1.0079,3.3116,4.8039,4.8039,0,0,0,1.0079,3.2646,3.5353,3.5353,0,0,0,2.8076,1.1514,5.3076,5.3076,0,0,0,3.36-1.3438l.6485,1.44a5.3721,5.3721,0,0,1-1.8721,1.1035,6.7891,6.7891,0,0,1-2.3281.4082A5.8331,5.8331,0,0,1,340.9512,149.8779Z" transform="translate(-25.5 -16.9015)"/><path d="M360.0547,144.91h-8.544a4.6006,4.6006,0,0,0,1.1045,3.0839,3.7823,3.7823,0,0,0,2.8555,1.044,5.7862,5.7862,0,0,0,3.7441-1.3916l.6485,1.416a5.5,5.5,0,0,1-1.9688,1.14,7.3775,7.3775,0,0,1-2.4472.42,5.7476,5.7476,0,0,1-4.3086-1.6084,6.0787,6.0787,0,0,1-1.5723-4.44,6.9686,6.9686,0,0,1,.6963-3.18,5.199,5.199,0,0,1,1.9561-2.1484,5.4012,5.4012,0,0,1,2.8681-.7676,4.5746,4.5746,0,0,1,3.6485,1.5235,6.1918,6.1918,0,0,1,1.3193,4.1884Zm-7.4033-3.96a4.3863,4.3863,0,0,0-1.0928,2.7119h6.792a4.16,4.16,0,0,0-.8877-2.7236,2.979,2.979,0,0,0-2.3516-.9483A3.2556,3.2556,0,0,0,352.6514,140.95Z" transform="translate(-25.5 -16.9015)"/><path d="M361.9512,149.11l.6474-1.44a6.2667,6.2667,0,0,0,1.9082,1.0684,6.9335,6.9335,0,0,0,2.1963.3242,3.6439,3.6439,0,0,0,1.9795-.4443,1.4384,1.4384,0,0,0,.6846-1.2842,1.4065,1.4065,0,0,0-.4561-1.1035,3.4362,3.4362,0,0,0-1.5117-.6485l-1.9687-.456a4.4462,4.4462,0,0,1-2.2793-1.1524,2.7765,2.7765,0,0,1-.792-2.0156,3.0491,3.0491,0,0,1,1.2236-2.5195,5.1472,5.1472,0,0,1,3.2637-.96,6.8478,6.8478,0,0,1,2.3281.3955,4.9233,4.9233,0,0,1,1.8486,1.14l-.6484,1.416a5.3313,5.3313,0,0,0-3.5283-1.3672,3.3414,3.3414,0,0,0-1.9072.4678,1.6341,1.6341,0,0,0-.2647,2.4238,2.7807,2.7807,0,0,0,1.3564.6357l1.9922.4805a5.0464,5.0464,0,0,1,2.4239,1.1641,2.7228,2.7228,0,0,1,.792,2.0273,2.8881,2.8881,0,0,1-1.2364,2.4483,5.5653,5.5653,0,0,1-3.372.9121A6.86,6.86,0,0,1,361.9512,149.11Z" transform="translate(-25.5 -16.9015)"/></svg>