<?xml version="1.0" encoding="UTF-8" standalone="no"?>
<!DOCTYPE svg PUBLIC "-//W3C//DTD SVG 1.1//EN" "http://www.w3.org/Graphics/SVG/1.1/DTD/svg11.dtd">
<svg width="100%" height="100%" viewBox="0 0 1250 480" version="1.1" xmlns="http://www.w3.org/2000/svg" xmlns:xlink="http://www.w3.org/1999/xlink" xml:space="preserve" xmlns:serif="http://www.serif.com/" style="fill-rule:evenodd;clip-rule:evenodd;stroke-linejoin:round;stroke-miterlimit:2;">
    <g transform="matrix(7.76639,0,0,7.76639,-310.636,-365.413)">
        <g transform="matrix(1,0,0,1,53.8049,60.8576)">
            <path d="M0,-9.154C-1.203,-10.357 -3.161,-10.357 -4.364,-9.154L-9.154,-4.364C-10.357,-3.161 -10.357,-1.203 -9.154,-0C-7.951,1.203 -5.993,1.203 -4.79,-0L0,-4.79C1.203,-5.993 1.203,-7.951 0,-9.154" style="fill:rgb(41,57,134);fill-rule:nonzero;"/>
        </g>
        <g transform="matrix(1,0,0,1,56.8406,71.0413)">
            <path d="M0,13.815C0.792,14.607 0.792,15.896 0,16.688L-9.702,26.39C-10.906,27.594 -10.906,29.552 -9.702,30.755C-8.499,31.958 -6.541,31.958 -5.338,30.755L4.364,21.053C5.157,20.261 6.446,20.261 7.238,21.053C8.03,21.845 8.03,23.134 7.238,23.926L1.881,29.282C0.678,30.486 0.678,32.444 1.881,33.647C3.084,34.85 5.042,34.85 6.245,33.647L17.572,22.32C18.364,21.528 19.653,21.528 20.445,22.32C21.237,23.113 21.237,24.401 20.445,25.194L16.29,29.349C15.086,30.553 15.086,32.51 16.29,33.714C17.493,34.917 19.451,34.917 20.654,33.714L40.952,13.416C42.154,12.213 42.154,10.255 40.951,9.052C39.748,7.848 37.79,7.848 36.587,9.052L32.431,13.207C31.639,13.999 30.35,13.999 29.558,13.207C28.766,12.415 28.766,11.126 29.558,10.334L40.884,-0.992C42.088,-2.196 42.088,-4.154 40.884,-5.356C39.681,-6.56 37.723,-6.56 36.52,-5.357L31.163,-0C30.371,0.792 29.082,0.792 28.29,-0C27.498,-0.792 27.498,-2.081 28.29,-2.873L37.992,-12.576C39.196,-13.779 39.196,-15.737 37.992,-16.94C36.789,-18.143 34.831,-18.143 33.628,-16.94L23.926,-7.238C23.133,-6.446 21.844,-6.446 21.052,-7.238C20.26,-8.03 20.26,-9.319 21.052,-10.111L26.409,-15.468C27.612,-16.671 27.612,-18.629 26.409,-19.832C25.206,-21.035 23.248,-21.035 22.045,-19.832L10.718,-8.506C9.926,-7.713 8.637,-7.713 7.845,-8.506C7.053,-9.298 7.053,-10.587 7.845,-11.379L12,-15.534C13.204,-16.738 13.204,-18.695 12,-19.899C10.797,-21.102 8.839,-21.102 7.636,-19.899L-12.661,0.399C-13.864,1.602 -13.864,3.56 -12.661,4.763C-11.458,5.966 -9.5,5.966 -8.297,4.763L-4.141,0.607C-3.349,-0.185 -2.06,-0.185 -1.268,0.607C-0.476,1.4 -0.476,2.689 -1.268,3.481L-12.594,14.807C-13.798,16.011 -13.798,17.968 -12.594,19.172C-11.391,20.375 -9.433,20.375 -8.23,19.171L-2.874,13.815C-2.081,13.023 -0.792,13.023 0,13.815" style="fill:rgb(41,57,134);fill-rule:nonzero;"/>
        </g>
        <g transform="matrix(1,0,0,1,97.2307,104.283)">
            <path d="M0,-9.154C-1.203,-10.357 -3.161,-10.357 -4.364,-9.154L-9.154,-4.364C-10.357,-3.161 -10.357,-1.203 -9.154,-0C-7.951,1.203 -5.993,1.203 -4.79,-0L0,-4.79C1.203,-5.993 1.203,-7.951 0,-9.154" style="fill:rgb(41,57,134);fill-rule:nonzero;"/>
        </g>
        <g transform="matrix(1,0,0,1,117.719,80.7092)">
            <path d="M0,-13.308L7.059,-13.308C7.149,-13.308 7.229,-13.366 7.257,-13.451L8.593,-17.443C8.638,-17.579 8.537,-17.719 8.395,-17.719L0,-17.719C-4.516,-17.719 -8.176,-14.058 -8.176,-9.542L-8.176,-3.766C-8.176,0.75 -4.516,4.411 0,4.411L6.833,4.411C6.923,4.411 7.003,4.353 7.031,4.268L8.359,0.275C8.404,0.14 8.303,0 8.16,0L0,0C-1.719,0 -3.111,-1.393 -3.111,-3.112L-3.111,-10.197C-3.111,-11.915 -1.719,-13.308 0,-13.308" style="fill:rgb(41,57,134);fill-rule:nonzero;"/>
        </g>
        <g transform="matrix(1,0,0,1,129.753,62.9529)">
            <path d="M0,22.167L4.647,22.167C4.763,22.167 4.856,22.074 4.856,21.958L4.856,0.209C4.856,0.093 4.763,0 4.647,0L0,0C-0.115,0 -0.209,0.093 -0.209,0.209L-0.209,21.958C-0.209,22.074 -0.115,22.167 0,22.167" style="fill:rgb(41,57,134);fill-rule:nonzero;"/>
        </g>
        <g transform="matrix(1,0,0,1,156.054,80.8245)">
            <path d="M0,-13.575L1.149,-17.606C1.187,-17.739 1.087,-17.871 0.948,-17.871L-17.233,-17.871C-17.323,-17.871 -17.403,-17.814 -17.431,-17.728L-18.772,-13.698C-18.817,-13.563 -18.716,-13.423 -18.573,-13.423L-11.659,-13.423C-11.544,-13.423 -11.45,-13.33 -11.45,-13.214L-11.45,4.086C-11.45,4.202 -11.357,4.296 -11.241,4.296L-6.594,4.296C-6.479,4.296 -6.385,4.202 -6.385,4.086L-6.385,-13.214C-6.385,-13.33 -6.291,-13.423 -6.176,-13.423L-0.201,-13.423C-0.108,-13.423 -0.026,-13.485 0,-13.575" style="fill:rgb(41,57,134);fill-rule:nonzero;"/>
        </g>
        <g transform="matrix(1,0,0,1,161.982,84.9702)">
            <path d="M0,-21.868L-6.479,-0.119C-6.519,0.015 -6.419,0.149 -6.279,0.149L-0.997,0.149C-0.904,0.149 -0.822,0.088 -0.796,-0.002L4.127,-17.209C4.184,-17.409 4.468,-17.411 4.528,-17.21L9.655,-0C9.682,0.089 9.763,0.149 9.855,0.149L15.27,0.149C15.41,0.149 15.51,0.015 15.47,-0.119L8.991,-21.868C8.964,-21.957 8.883,-22.017 8.79,-22.017L0.2,-22.017C0.108,-22.017 0.026,-21.957 0,-21.868" style="fill:rgb(41,57,134);fill-rule:nonzero;"/>
        </g>
        <g transform="matrix(1,0,0,1,186.436,67.573)">
            <path d="M0,12.927L0,-4.411C0,-4.526 -0.093,-4.62 -0.209,-4.62L-4.856,-4.62C-4.972,-4.62 -5.065,-4.526 -5.065,-4.411L-5.065,17.338C-5.065,17.453 -4.972,17.547 -4.856,17.547L8.963,17.547C9.039,17.547 9.109,17.505 9.146,17.438L11.327,13.445C11.404,13.306 11.303,13.136 11.144,13.136L0.209,13.136C0.093,13.136 0,13.042 0,12.927" style="fill:rgb(41,57,134);fill-rule:nonzero;"/>
        </g>
        <g transform="matrix(1,0,0,1,109.543,93.2674)">
            <path d="M0,-0.009C0,-1.35 1.06,-2.229 2.283,-2.229C2.972,-2.229 3.561,-1.948 3.933,-1.504L3.344,-0.952C3.099,-1.223 2.728,-1.395 2.302,-1.395C1.513,-1.395 0.888,-0.815 0.888,-0.009C0.888,0.797 1.513,1.387 2.302,1.387C2.728,1.387 3.099,1.214 3.344,0.942L3.933,1.495C3.561,1.939 2.972,2.22 2.283,2.22C1.06,2.22 0,1.332 0,-0.009" style="fill:rgb(41,57,134);fill-rule:nonzero;"/>
        </g>
        <g transform="matrix(1,0,0,1,117.626,93.2674)">
            <path d="M0,-0.009C0,-0.825 -0.616,-1.395 -1.341,-1.395C-2.066,-1.395 -2.674,-0.825 -2.674,-0.009C-2.674,0.815 -2.066,1.387 -1.341,1.387C-0.616,1.387 0,0.815 0,-0.009M-3.561,-0.009C-3.561,-1.35 -2.547,-2.229 -1.341,-2.229C-0.136,-2.229 0.888,-1.35 0.888,-0.009C0.888,1.332 -0.136,2.22 -1.341,2.22C-2.547,2.22 -3.561,1.332 -3.561,-0.009" style="fill:rgb(41,57,134);fill-rule:nonzero;"/>
        </g>
        <g transform="matrix(1,0,0,1,123.525,93.4583)">
            <path d="M0,-0.499L0,1.921L-0.888,1.921L-0.888,-0.445C-0.888,-1.133 -1.305,-1.55 -1.849,-1.55C-2.401,-1.55 -3.072,-1.233 -3.072,-0.354L-3.072,1.921L-3.96,1.921L-3.96,-2.311L-3.072,-2.311L-3.072,-1.659C-2.827,-2.184 -2.147,-2.42 -1.695,-2.42C-0.625,-2.42 0.009,-1.704 0,-0.499" style="fill:rgb(41,57,134);fill-rule:nonzero;"/>
        </g>
        <g transform="matrix(1,0,0,1,128.754,93.4583)">
            <path d="M0,-0.499L0,1.921L-0.888,1.921L-0.888,-0.445C-0.888,-1.133 -1.305,-1.55 -1.849,-1.55C-2.401,-1.55 -3.072,-1.233 -3.072,-0.354L-3.072,1.921L-3.96,1.921L-3.96,-2.311L-3.072,-2.311L-3.072,-1.659C-2.827,-2.184 -2.147,-2.42 -1.695,-2.42C-0.625,-2.42 0.009,-1.704 0,-0.499" style="fill:rgb(41,57,134);fill-rule:nonzero;"/>
        </g>
        <g transform="matrix(1,0,0,1,133.176,93.6199)">
            <path d="M0,-0.715C-0.091,-1.376 -0.571,-1.757 -1.224,-1.757C-1.876,-1.757 -2.365,-1.422 -2.492,-0.715L0,-0.715ZM0.87,0.001L-2.501,0.001C-2.383,0.689 -1.876,1.043 -1.196,1.043C-0.698,1.043 -0.236,0.816 0,0.427L0.707,0.78C0.335,1.487 -0.426,1.867 -1.232,1.867C-2.455,1.867 -3.416,0.97 -3.416,-0.37C-3.416,-1.712 -2.438,-2.582 -1.232,-2.582C-0.027,-2.582 0.888,-1.712 0.888,-0.38C0.888,-0.262 0.879,-0.135 0.87,0.001" style="fill:rgb(41,57,134);fill-rule:nonzero;"/>
        </g>
        <g transform="matrix(1,0,0,1,134.825,93.2674)">
            <path d="M0,-0.009C0,-1.35 1.06,-2.229 2.283,-2.229C2.972,-2.229 3.561,-1.948 3.933,-1.504L3.344,-0.952C3.099,-1.223 2.728,-1.395 2.302,-1.395C1.513,-1.395 0.888,-0.815 0.888,-0.009C0.888,0.797 1.513,1.387 2.302,1.387C2.728,1.387 3.099,1.214 3.344,0.942L3.933,1.495C3.561,1.939 2.972,2.22 2.283,2.22C1.06,2.22 0,1.332 0,-0.009" style="fill:rgb(41,57,134);fill-rule:nonzero;"/>
        </g>
        <g transform="matrix(1,0,0,1,141.867,93.7929)">
            <path d="M0,-2.646L0,-1.903L-0.906,-1.903L-0.906,1.586L-1.794,1.586L-1.794,-1.903L-2.555,-1.903L-2.555,-2.646L-1.794,-2.646L-1.794,-4.232L-0.906,-4.232L-0.906,-2.646L0,-2.646Z" style="fill:rgb(41,57,134);fill-rule:nonzero;"/>
        </g>
        <g transform="matrix(1,0,0,1,-21,7.509)">
            <path d="M163.709,83.638L164.597,83.638L164.597,87.87L163.709,87.87L163.709,83.638ZM163.546,82.097C163.546,81.771 163.827,81.527 164.153,81.527C164.489,81.527 164.76,81.771 164.76,82.097C164.76,82.424 164.489,82.668 164.153,82.668C163.827,82.668 163.546,82.424 163.546,82.097" style="fill:rgb(41,57,134);fill-rule:nonzero;"/>
        </g>
        <g transform="matrix(1,0,0,1,148.889,93.4583)">
            <path d="M0,-0.499L0,1.921L-0.888,1.921L-0.888,-0.445C-0.888,-1.133 -1.305,-1.55 -1.849,-1.55C-2.401,-1.55 -3.072,-1.233 -3.072,-0.354L-3.072,1.921L-3.96,1.921L-3.96,-2.311L-3.072,-2.311L-3.072,-1.659C-2.827,-2.184 -2.147,-2.42 -1.695,-2.42C-0.625,-2.42 0.009,-1.704 0,-0.499" style="fill:rgb(41,57,134);fill-rule:nonzero;"/>
        </g>
        <g transform="matrix(1,0,0,1,153.447,95.3332)">
            <path d="M0,-2.084C0,-2.936 -0.698,-3.461 -1.35,-3.461C-2.075,-3.461 -2.664,-2.881 -2.664,-2.084C-2.664,-1.296 -2.075,-0.679 -1.35,-0.679C-0.634,-0.679 0,-1.232 0,-2.084M0.009,-4.186L0.897,-4.186L0.897,-0.534C0.897,1.432 -0.009,2.211 -1.432,2.211C-2.229,2.211 -2.972,1.794 -3.371,1.042L-2.619,0.671C-2.383,1.124 -1.894,1.387 -1.432,1.387C-0.544,1.387 0.009,0.879 0.009,-0.462L0.009,-0.571C-0.281,-0.109 -0.888,0.154 -1.45,0.154C-2.601,0.154 -3.552,-0.734 -3.552,-2.075C-3.552,-3.425 -2.601,-4.295 -1.459,-4.295C-0.87,-4.295 -0.281,-4.041 0.009,-3.57L0.009,-4.186Z" style="fill:rgb(41,57,134);fill-rule:nonzero;"/>
        </g>
        <g transform="matrix(1,0,0,1,160.76,97.4359)">
            <path d="M0,-6.289L0.96,-6.289L-1.667,0L-2.61,0L-1.695,-2.247L-3.389,-6.289L-2.428,-6.289L-1.214,-3.344L0,-6.289Z" style="fill:rgb(41,57,134);fill-rule:nonzero;"/>
        </g>
        <g transform="matrix(1,0,0,1,165.654,93.2674)">
            <path d="M0,-0.009C0,-0.825 -0.616,-1.395 -1.341,-1.395C-2.066,-1.395 -2.674,-0.825 -2.674,-0.009C-2.674,0.815 -2.066,1.387 -1.341,1.387C-0.616,1.387 0,0.815 0,-0.009M-3.561,-0.009C-3.561,-1.35 -2.547,-2.229 -1.341,-2.229C-0.136,-2.229 0.888,-1.35 0.888,-0.009C0.888,1.332 -0.136,2.22 -1.341,2.22C-2.547,2.22 -3.561,1.332 -3.561,-0.009" style="fill:rgb(41,57,134);fill-rule:nonzero;"/>
        </g>
        <g transform="matrix(1,0,0,1,170.611,95.4879)">
            <path d="M0,-4.341L0.888,-4.341L0.888,-0.109L0,-0.109L0,-0.753C-0.245,-0.236 -0.925,0 -1.369,0C-2.438,0 -3.081,-0.716 -3.072,-1.921L-3.072,-4.341L-2.184,-4.341L-2.184,-1.949C-2.184,-1.251 -1.767,-0.834 -1.224,-0.834C-0.671,-0.834 0,-1.16 0,-2.039L0,-4.341Z" style="fill:rgb(41,57,134);fill-rule:nonzero;"/>
        </g>
        <g transform="matrix(1,0,0,1,175.631,95.2242)">
            <path d="M0,-4.032L-0.154,-3.189C-0.39,-3.298 -0.607,-3.334 -0.779,-3.334C-1.55,-3.334 -1.912,-2.509 -1.912,-1.368L-1.912,0.154L-2.809,0.154L-2.809,-4.078L-1.912,-4.078L-1.912,-3.126C-1.695,-3.869 -1.269,-4.186 -0.725,-4.186C-0.435,-4.186 -0.136,-4.113 0,-4.032" style="fill:rgb(41,57,134);fill-rule:nonzero;"/>
        </g>
        <g transform="matrix(1,0,0,1,181.694,91.0832)">
            <path d="M0,2.166C0,1.314 -0.698,0.789 -1.35,0.789C-2.075,0.789 -2.664,1.369 -2.664,2.166C-2.664,2.954 -2.075,3.571 -1.35,3.571C-0.634,3.571 0,3.018 0,2.166M0.009,-2.238L0.897,-2.238L0.897,4.295L0.009,4.295L0.009,3.661C-0.272,4.141 -0.879,4.404 -1.45,4.404C-2.601,4.404 -3.552,3.516 -3.552,2.175C-3.552,0.825 -2.601,-0.045 -1.459,-0.045C-0.861,-0.045 -0.272,0.209 0.009,0.689L0.009,-2.238Z" style="fill:rgb(41,57,134);fill-rule:nonzero;"/>
        </g>
        <g transform="matrix(1,0,0,1,187.203,93.2674)">
            <path d="M0,-0.009C0,-0.825 -0.616,-1.395 -1.341,-1.395C-2.066,-1.395 -2.674,-0.825 -2.674,-0.009C-2.674,0.815 -2.066,1.387 -1.341,1.387C-0.616,1.387 0,0.815 0,-0.009M-3.561,-0.009C-3.561,-1.35 -2.547,-2.229 -1.341,-2.229C-0.136,-2.229 0.888,-1.35 0.888,-0.009C0.888,1.332 -0.136,2.22 -1.341,2.22C-2.547,2.22 -3.561,1.332 -3.561,-0.009" style="fill:rgb(41,57,134);fill-rule:nonzero;"/>
        </g>
        <g transform="matrix(1,0,0,1,191.209,93.7929)">
            <path d="M0,-2.646L0,-1.903L-0.906,-1.903L-0.906,1.586L-1.794,1.586L-1.794,-1.903L-2.555,-1.903L-2.555,-2.646L-1.794,-2.646L-1.794,-4.232L-0.906,-4.232L-0.906,-2.646L0,-2.646Z" style="fill:rgb(41,57,134);fill-rule:nonzero;"/>
        </g>
        <g transform="matrix(1,0,0,1,191.707,92.4151)">
            <path d="M0,1.695L0.825,1.695C0.825,2.03 1.124,2.32 1.604,2.32C2.093,2.32 2.392,2.075 2.392,1.758C2.392,1.477 2.166,1.333 1.849,1.26L1.278,1.124C0.489,0.916 0.127,0.508 0.127,-0.117C0.127,-0.806 0.752,-1.377 1.631,-1.377C2.356,-1.377 3.135,-0.996 3.135,-0.108L2.283,-0.108C2.283,-0.416 1.966,-0.625 1.649,-0.625C1.278,-0.625 1.024,-0.38 1.024,-0.09C1.024,0.172 1.269,0.318 1.532,0.381L2.175,0.535C3.081,0.762 3.28,1.323 3.28,1.776C3.28,2.583 2.483,3.072 1.613,3.072C0.825,3.072 0.018,2.583 0,1.695" style="fill:rgb(41,57,134);fill-rule:nonzero;"/>
        </g>
        <g transform="matrix(0,1,1,0,196.487,94.2418)">
            <path d="M0.629,-0.629C0.284,-0.629 0.031,-0.339 0.031,-0.004C0.031,0.341 0.284,0.629 0.629,0.629C0.974,0.629 1.228,0.341 1.228,-0.004C1.228,-0.339 0.974,-0.629 0.629,-0.629" style="fill:rgb(41,57,134);fill-rule:nonzero;"/>
        </g>
    </g>
</svg>
