<?xml version="1.0" encoding="utf-8"?>
<!-- Generator: Adobe Illustrator 23.1.0, SVG Export Plug-In . SVG Version: 6.00 Build 0)  -->
<svg version="1.1" xmlns="http://www.w3.org/2000/svg" xmlns:xlink="http://www.w3.org/1999/xlink" x="0px" y="0px"
	 viewBox="0 0 2315.29 810.35" style="enable-background:new 0 0 2315.29 810.35;" xml:space="preserve">
<style type="text/css">
	.st0{fill:#289448;}
	.st1{fill:#6F6E6E;}
	.st2{fill:#C41434;}
	.st3{fill:#567BC6;}
	.st4{fill:#6F7071;}
</style>
<symbol  id="Bush_Left" viewBox="-43.3 -24.31 86.6 48.62">
	<g>
		<g>
			<path class="st0" d="M-33.89-3.51c8.3,8.89,13.24,21.56,13.24,21.56C-24.14,7.54-28.21,2.32-34.92-6.17L-33.89-3.51z"/>
			<path class="st0" d="M-30.49,3.16c0.3,2.26,2.38,11.44,2.38,11.44l-2.15-5.59c-0.48-2.88,0.76-5.55,0.45-7.95L-30.49,3.16z"/>
			<path class="st0" d="M-27.67,8.56c0.3,2.27,1.73,9.83,1.73,9.83l-0.53-3.79c0-2.44-0.21-5.74-0.53-8.14L-27.67,8.56z"/>
			<path class="st0" d="M-24.19,13.38c0.22,1.38,3.05,6.61,3.05,6.61l-2.18-2.93c0-1.49-0.15-3.5-0.38-4.96L-24.19,13.38z"/>
			<path class="st0" d="M-21.17,18.08c0.6,1.18,2.76,6.23,2.76,6.23l-1.28-3.51c-0.31-1.29-0.96-3.02-1.6-4.26L-21.17,18.08z"/>
			<path class="st0" d="M-26.04,10.33c0.3,2.27,1.73,9.83,1.73,9.83l-1.16-4.84c0-2.44,0.42-4.7,0.11-7.09L-26.04,10.33z"/>
			<path class="st0" d="M-24.52,3.49c1.42,0.87,6.5,3.4,6.5,3.4l-3.35-2.2c-1.77-1.16-5.32-0.63-6.83-1.54L-24.52,3.49z"/>
			<path class="st0" d="M-21.85,6.88c1.9,1.26,6.13,5.08,6.13,5.08l-3.16-2.14c-2.19-1.07-5.05-2.71-7.06-4.04L-21.85,6.88z"/>
			<path class="st0" d="M-21.84,13.09c1.04,0.93,3.87,6.17,3.87,6.17l-1.26-3.43c-1.24-0.81-2.84-2.04-3.94-3.03L-21.84,13.09z"/>
			<path class="st0" d="M-23.27,9.47c1.58,1.01,5.96,5.85,5.96,5.85l-2.63-3.88c-1.82-0.86-3.47-1.16-5.14-2.23L-23.27,9.47z"/>
			<path class="st0" d="M-32.97,0.37c0.3,2.26,1.6,12.74,1.6,12.74l-1.38-6.89c-0.48-2.88,0.76-5.55,0.45-7.95L-32.97,0.37z"/>
			<path class="st0" d="M-34.97-1.26c0.3,2.27,1.6,12.74,1.6,12.74l-1.38-6.89c-0.48-2.88,0.76-5.56,0.45-7.95L-34.97-1.26z"/>
			<path class="st0" d="M-29.4-0.56c1.55,0.61,10.18,4.28,10.18,4.28l-4.82-3.12c-1.95-0.84-5.36-0.45-7-1.09L-29.4-0.56z"/>
			<path class="st0" d="M-29.97-3.32c1.73,0.74,9.73,4.11,9.73,4.11l-5.13-2.75c-2.17-1.05-4.61-0.29-6.44-1.08L-29.97-3.32z"/>
		</g>
		<g>
			<path class="st0" d="M-41.11-9.82c17.33-2.83,35.77-10.6,35.77-10.6C-18.81-13.76-28.1-11.68-43.3-8.34L-41.11-9.82z"/>
			<path class="st0" d="M-29.85-13.56c2.4-1.68,13.09-8,13.09-8l-7.5,3.39c-3.16,2.08-4.23,4.89-6.77,6.67L-29.85-13.56z"/>
			<path class="st0" d="M-21.79-16.45c2.4-1.68,10.89-7.04,10.89-7.04l-4.05,2.79c-2.23,1.97-5.48,4.54-8.02,6.31L-21.79-16.45z"/>
			<path class="st0" d="M-13.53-18.51c1.5-1,9.43-3.74,9.43-3.74l-5.1,1.22c-1.36,1.2-3.37,2.75-4.96,3.81L-13.53-18.51z"/>
			<path class="st0" d="M-5.89-20.72c1.74-0.63,8.76-3.59,8.76-3.59l-4.63,2.17c-1.52,0.88-3.82,1.94-5.67,2.61L-5.89-20.72z"/>
			<path class="st0" d="M-18.37-17.02c2.4-1.68,10.9-7.04,10.9-7.04l-5.71,3.3c-2.23,1.97-3.83,4.02-6.37,5.79L-18.37-17.02z"/>
			<path class="st0" d="M-22.94-10.69c2.37,0.05,10.31,0.67,10.31,0.67L-18.35-10c-3.03,0.01-6.48-2.29-8.98-2.34L-22.94-10.69z"/>
			<path class="st0" d="M-16.88-12.03c3.26-0.02,11.44-0.88,11.44-0.88l-5.46,0.07c-3.4-0.29-8.08-0.47-11.53-0.45L-16.88-12.03z"/>
			<path class="st0" d="M-11.19-17.04c2-0.21,9.92-2.96,9.92-2.96l-4.54,2.11c-2.12,0-5.01,0.15-7.13,0.37L-11.19-17.04z"/>
			<path class="st0" d="M-16.08-14.87c2.67,0.01,11.96-1.59,11.96-1.59l-6.46,1.75c-2.8-0.26-4.91-0.89-7.74-0.9L-16.08-14.87z"/>
			<path class="st0" d="M-35.15-12.6c2.4-1.68,13.41-9.46,13.41-9.46l-7.82,4.85c-3.16,2.08-4.23,4.89-6.77,6.67L-35.15-12.6z"/>
			<path class="st0" d="M-38.86-12.34c2.4-1.68,13.41-9.46,13.41-9.46l-7.82,4.85c-3.16,2.08-4.23,4.89-6.77,6.67L-38.86-12.34z"/>
			<path class="st0" d="M-32.05-9.98c2.27,0.33,15.2,1.89,15.2,1.89l-8.2-0.01c-2.93-0.35-6.36-2.46-8.77-2.8L-32.05-9.98z"/>
			<path class="st0" d="M-35.2-8.05c2.59,0.31,14.54,1.8,14.54,1.8l-8.2-0.48c-3.37-0.29-5.38-2.19-8.13-2.52L-35.2-8.05z"/>
		</g>
		<g>
			<path class="st0" d="M-20.02-4.79c13.51-1.99,27.73-7.05,27.73-7.05c-10.5,4.69-17.74,6.16-29.59,8.51L-20.02-4.79z"/>
			<path class="st0" d="M-11.4-7.01C-9.53-8.2-1.2-12.65-1.2-12.65l-5.85,2.39c-2.47,1.46-3.3,3.45-5.28,4.7L-11.4-7.01z"/>
			<path class="st0" d="M-5.11-9.05c1.87-1.18,8.49-4.96,8.49-4.96l-3.16,1.96c-1.74,1.39-4.27,3.19-6.25,4.44L-5.11-9.05z"/>
			<path class="st0" d="M1.32-10.5c1.17-0.71,7.35-2.64,7.35-2.64L4.7-12.27c-1.06,0.85-2.63,1.94-3.87,2.69L1.32-10.5z"/>
			<path class="st0" d="M7.28-12.06c1.36-0.45,6.83-2.53,6.83-2.53l-3.61,1.52c-1.19,0.62-2.98,1.37-4.42,1.84L7.28-12.06z"/>
			<path class="st0" d="M-2.45-9.45c1.87-1.18,8.49-4.96,8.49-4.96l-4.45,2.33c-1.74,1.39-2.98,2.83-4.96,4.08L-2.45-9.45z"/>
			<path class="st0" d="M-6.01-4.99c1.85,0.03,8.04,0.47,8.04,0.47l-4.46,0.01c-2.36,0.01-5.05-1.62-7-1.65L-6.01-4.99z"/>
			<path class="st0" d="M-1.29-5.94c2.54-0.01,8.92-0.62,8.92-0.62L3.37-6.51c-2.65-0.2-6.3-0.33-8.99-0.31L-1.29-5.94z"/>
			<path class="st0" d="M3.15-9.46c1.56-0.15,7.74-2.08,7.74-2.08l-3.54,1.49c-1.65,0-3.91,0.11-5.56,0.26L3.15-9.46z"/>
			<path class="st0" d="M-0.67-7.94c2.08,0.01,9.32-1.12,9.32-1.12L3.62-7.83C1.44-8.01-0.21-8.45-2.41-8.46L-0.67-7.94z"/>
			<path class="st0" d="M-15.54-6.34C-13.66-7.52-5.08-13-5.08-13l-6.1,3.41c-2.47,1.46-3.3,3.45-5.28,4.7L-15.54-6.34z"/>
			<path class="st0" d="M-18.43-6.15c1.87-1.18,10.46-6.66,10.46-6.66l-6.1,3.41c-2.47,1.46-3.3,3.45-5.28,4.7L-18.43-6.15z"/>
			<path class="st0" d="M-13.11-4.5c1.77,0.23,11.85,1.33,11.85,1.33l-6.39-0.01c-2.28-0.25-4.96-1.73-6.83-1.97L-13.11-4.5z"/>
			<path class="st0" d="M-15.57-3.13c2.02,0.22,11.34,1.27,11.34,1.27l-6.39-0.34c-2.62-0.21-4.19-1.54-6.34-1.77L-15.57-3.13z"/>
		</g>
		<g>
			<path class="st0" d="M1.65-2.06c12.24-1.71,25.11-6.07,25.11-6.07c-9.51,4.03-16.07,5.3-26.8,7.32L1.65-2.06z"/>
			<path class="st0" d="M9.46-3.97c1.69-1.01,9.24-4.85,9.24-4.85l-5.29,2.05C11.17-5.5,10.42-3.8,8.63-2.72L9.46-3.97z"/>
			<path class="st0" d="M15.15-5.71c1.69-1.02,7.69-4.27,7.69-4.27l-2.86,1.69c-1.57,1.2-3.87,2.75-5.66,3.82L15.15-5.71z"/>
			<path class="st0" d="M20.98-6.96c1.06-0.61,6.65-2.27,6.65-2.27l-3.6,0.74c-0.96,0.73-2.38,1.67-3.5,2.31L20.98-6.96z"/>
			<path class="st0" d="M26.38-8.3c1.23-0.38,6.18-2.17,6.18-2.17l-3.27,1.31c-1.08,0.53-2.7,1.17-4,1.58L26.38-8.3z"/>
			<path class="st0" d="M17.57-6.06c1.69-1.01,7.69-4.27,7.69-4.27l-4.03,2c-1.57,1.2-2.7,2.44-4.49,3.51L17.57-6.06z"/>
			<path class="st0" d="M14.34-2.22c1.67,0.03,7.28,0.41,7.28,0.41l-4.04,0.01c-2.14,0-4.57-1.39-6.34-1.42L14.34-2.22z"/>
			<path class="st0" d="M18.62-3.04c2.3-0.01,8.07-0.53,8.07-0.53l-3.86,0.04c-2.4-0.17-5.7-0.28-8.14-0.27L18.62-3.04z"/>
			<path class="st0" d="M22.64-6.07c1.41-0.13,7.01-1.79,7.01-1.79l-3.2,1.28c-1.5,0-3.54,0.09-5.04,0.23L22.64-6.07z"/>
			<path class="st0" d="M19.18-4.76c1.89,0.01,8.44-0.97,8.44-0.97l-4.56,1.06C21.09-4.82,19.6-5.2,17.6-5.21L19.18-4.76z"/>
			<path class="st0" d="M5.72-3.39c1.69-1.02,9.47-5.73,9.47-5.73L9.66-6.18C7.43-4.92,6.68-3.22,4.88-2.14L5.72-3.39z"/>
			<path class="st0" d="M3.1-3.23c1.69-1.01,9.47-5.73,9.47-5.73L7.05-6.02C4.81-4.76,4.06-3.06,2.27-1.98L3.1-3.23z"/>
			<path class="st0" d="M7.91-1.8c1.6,0.2,10.73,1.15,10.73,1.15l-5.79-0.01c-2.07-0.21-4.49-1.49-6.19-1.7L7.91-1.8z"/>
			<path class="st0" d="M5.69-0.63c1.83,0.19,10.27,1.09,10.27,1.09l-5.79-0.29c-2.38-0.18-3.8-1.33-5.74-1.52L5.69-0.63z"/>
		</g>
		<g>
			<path class="st0" d="M14,2.84c11.08-1.47,22.74-5.22,22.74-5.22c-8.61,3.47-14.55,4.56-24.26,6.29L14,2.84z"/>
			<path class="st0" d="M21.07,1.19c1.53-0.87,8.37-4.17,8.37-4.17l-4.79,1.77c-2.02,1.08-2.7,2.55-4.33,3.47L21.07,1.19z"/>
			<path class="st0" d="M26.23-0.31c1.53-0.87,6.96-3.67,6.96-3.67L30.6-2.53c-1.43,1.03-3.5,2.36-5.13,3.29L26.23-0.31z"/>
			<path class="st0" d="M31.5-1.39c0.96-0.52,6.03-1.95,6.03-1.95L34.27-2.7c-0.87,0.63-2.15,1.43-3.17,1.99L31.5-1.39z"/>
			<path class="st0" d="M36.39-2.54c1.11-0.33,5.6-1.87,5.6-1.87l-2.96,1.13c-0.97,0.46-2.44,1.01-3.62,1.36L36.39-2.54z"/>
			<path class="st0" d="M28.41-0.61c1.53-0.87,6.96-3.67,6.96-3.67l-3.65,1.72c-1.43,1.03-2.45,2.09-4.07,3.02L28.41-0.61z"/>
			<path class="st0" d="M25.49,2.69c1.51,0.02,6.59,0.35,6.59,0.35l-3.66,0.01c-1.94,0-4.14-1.2-5.74-1.22L25.49,2.69z"/>
			<path class="st0" d="M29.37,1.99c2.08-0.01,7.31-0.46,7.31-0.46l-3.49,0.03c-2.17-0.15-5.16-0.24-7.37-0.23L29.37,1.99z"/>
			<path class="st0" d="M33-0.62c1.28-0.11,6.34-1.54,6.34-1.54l-2.9,1.1c-1.36,0-3.21,0.08-4.56,0.2L33-0.62z"/>
			<path class="st0" d="M29.87,0.51c1.71,0.01,7.64-0.83,7.64-0.83l-4.13,0.91c-1.79-0.14-3.14-0.46-4.95-0.47L29.87,0.51z"/>
			<path class="st0" d="M17.68,1.69c1.53-0.87,8.57-4.93,8.57-4.93l-5,2.53c-2.02,1.08-2.7,2.55-4.33,3.47L17.68,1.69z"/>
			<path class="st0" d="M15.31,1.83c1.53-0.87,8.57-4.93,8.57-4.93l-5,2.53c-2.02,1.08-2.7,2.55-4.33,3.47L15.31,1.83z"/>
			<path class="st0" d="M19.67,3.06c1.45,0.17,9.72,0.99,9.72,0.99l-5.24-0.01c-1.87-0.18-4.07-1.28-5.6-1.46L19.67,3.06z"/>
			<path class="st0" d="M17.65,4.07C19.31,4.23,26.95,5,26.95,5l-5.24-0.25c-2.15-0.15-3.44-1.14-5.2-1.31L17.65,4.07z"/>
		</g>
		<g>
			<path class="st0" d="M-16.82,0.15C-9.21,6.41-2.93,16.13-2.93,16.13C-7.01,7.95-10.86,4.17-17.18-1.96L-16.82,0.15z"/>
			<path class="st0" d="M-12.52,5.15c0.52,1.82,3.33,9.08,3.33,9.08l-2.4-4.32c-0.75-2.3-0.13-4.65-0.68-6.57L-12.52,5.15z"/>
			<path class="st0" d="M-9.62,9.23C-9.1,11.05-7,17.07-7,17.07l-0.9-3.04c-0.32-2-0.91-4.68-1.47-6.61L-9.62,9.23z"/>
			<path class="st0" d="M-6.29,12.74c0.35,1.11,3.23,5.04,3.23,5.04l-2.08-2.13c-0.19-1.22-0.57-2.85-0.94-4.02L-6.29,12.74z"/>
			<path class="st0" d="M-3.33,16.22c0.62,0.89,2.96,4.77,2.96,4.77l-1.45-2.72c-0.41-1.02-1.14-2.36-1.79-3.3L-3.33,16.22z"/>
			<path class="st0" d="M-8.13,10.47c0.53,1.82,2.62,7.84,2.62,7.84l-1.53-3.82c-0.32-2-0.28-3.9-0.84-5.83L-8.13,10.47z"/>
			<path class="st0" d="M-7.83,4.68c1.22,0.53,5.5,1.98,5.5,1.98l-2.89-1.39c-1.53-0.74-4.22,0.14-5.51-0.42L-7.83,4.68z"/>
			<path class="st0" d="M-5.32,7.13c1.64,0.8,5.43,3.41,5.43,3.41l-2.74-1.36c-1.84-0.61-4.28-1.6-6.02-2.44L-5.32,7.13z"/>
			<path class="st0" d="M-4.5,12.21c0.93,0.64,3.81,4.58,3.81,4.58l-1.43-2.66c-1.07-0.51-2.48-1.32-3.46-1.99L-4.5,12.21z"/>
			<path class="st0" d="M-6.08,9.43c1.36,0.63,5.4,4.06,5.4,4.06l-2.55-2.85c-1.52-0.48-2.85-0.52-4.29-1.19L-6.08,9.43z"/>
			<path class="st0" d="M-14.81,3.16c0.52,1.82,2.9,10.24,2.9,10.24l-1.97-5.47c-0.75-2.3-0.13-4.65-0.68-6.57L-14.81,3.16z"/>
			<path class="st0" d="M-16.58,2.07c0.53,1.82,2.9,10.24,2.9,10.24l-1.96-5.47c-0.75-2.3-0.13-4.65-0.68-6.57L-16.58,2.07z"/>
			<path class="st0" d="M-12.16,1.96c1.28,0.31,8.48,2.26,8.48,2.26l-4.16-1.96c-1.63-0.45-4.23,0.29-5.59-0.03L-12.16,1.96z"/>
			<path class="st0" d="M-12.96-0.23c1.44,0.4,8.1,2.17,8.1,2.17L-9.2,0.32c-1.83-0.59-3.63,0.33-5.15-0.09L-12.96-0.23z"/>
		</g>
		<g>
			<path class="st0" d="M-1.74,1.38c5.02,5.23,8.85,13.01,8.85,13.01C4.75,7.92,2.25,4.81-1.85-0.24L-1.74,1.38z"/>
			<path class="st0" d="M1,5.44c0.25,1.42,1.78,7.11,1.78,7.11L1.35,9.12C0.97,7.33,1.57,5.58,1.3,4.09L1,5.44z"/>
			<path class="st0" d="M2.8,8.72c0.25,1.42,1.35,6.12,1.35,6.12L3.7,12.48C3.61,10.94,3.36,8.86,3.1,7.37L2.8,8.72z"/>
			<path class="st0" d="M4.94,11.6c0.17,0.86,1.97,4.03,1.97,4.03l-1.34-1.75c-0.06-0.94-0.22-2.2-0.41-3.11L4.94,11.6z"/>
			<path class="st0" d="M6.82,14.43c0.38,0.71,1.79,3.81,1.79,3.81l-0.86-2.16c-0.23-0.8-0.66-1.86-1.06-2.62L6.82,14.43z"/>
			<path class="st0" d="M3.78,9.76c0.25,1.42,1.35,6.12,1.35,6.12l-0.84-3C4.2,11.35,4.35,9.91,4.08,8.41L3.78,9.76z"/>
			<path class="st0" d="M4.38,5.38c0.83,0.48,3.79,1.85,3.79,1.85L6.2,5.99C5.15,5.34,3.17,5.84,2.29,5.33L4.38,5.38z"/>
			<path class="st0" d="M6.01,7.4c1.12,0.71,3.65,2.92,3.65,2.92L7.79,9.12C6.52,8.54,4.84,7.64,3.66,6.89L6.01,7.4z"/>
			<path class="st0" d="M6.26,11.31c0.62,0.54,2.41,3.72,2.41,3.72l-0.84-2.11c-0.73-0.46-1.68-1.16-2.34-1.73L6.26,11.31z"/>
			<path class="st0" d="M5.31,9.1c0.93,0.57,3.58,3.42,3.58,3.42l-1.63-2.33c-1.06-0.46-2-0.57-2.98-1.17L5.31,9.1z"/>
			<path class="st0" d="M-0.5,3.79c0.25,1.42,1.39,7.96,1.39,7.96l-1.04-4.28c-0.38-1.8,0.22-3.54-0.05-5.04L-0.5,3.79z"/>
			<path class="st0" d="M-1.69,2.86c0.25,1.42,1.39,7.96,1.39,7.96l-1.04-4.28C-1.72,4.74-1.12,3-1.39,1.5L-1.69,2.86z"/>
			<path class="st0" d="M1.47,3.05c0.9,0.31,5.9,2.24,5.9,2.24L4.54,3.54C3.41,3.1,1.5,3.5,0.55,3.17L1.47,3.05z"/>
			<path class="st0" d="M1.05,1.33c1,0.39,5.64,2.15,5.64,2.15l-3-1.5C2.43,1.42,1.08,2.01,0.02,1.59L1.05,1.33z"/>
		</g>
		<g>
			<path class="st0" d="M10.39,4.12c5.33,4.5,9.14,10.95,9.14,10.95c-2.24-5.31-4.85-7.95-9.16-12.25L10.39,4.12z"/>
			<path class="st0" d="M13.22,7.54c0.19,1.15,1.53,5.79,1.53,5.79l-1.38-2.83c-0.31-1.46,0.49-2.81,0.29-4.02L13.22,7.54z"/>
			<path class="st0" d="M15.03,10.28c0.19,1.15,1.11,4.97,1.11,4.97l-0.34-1.92c0-1.23-0.14-2.9-0.34-4.12L15.03,10.28z"/>
			<path class="st0" d="M17.26,12.71c0.14,0.7,1.96,3.34,1.96,3.34l-1.4-1.48c0-0.75-0.1-1.77-0.25-2.51L17.26,12.71z"/>
			<path class="st0" d="M19.2,15.09c0.39,0.59,1.77,3.15,1.77,3.15l-0.82-1.77c-0.2-0.65-0.62-1.53-1.02-2.16L19.2,15.09z"/>
			<path class="st0" d="M16.07,11.17c0.19,1.14,1.11,4.97,1.11,4.97l-0.75-2.45c0-1.23,0.27-2.38,0.07-3.59L16.07,11.17z"/>
			<path class="st0" d="M17.05,7.71c0.91,0.44,4.17,1.72,4.17,1.72l-2.15-1.11C17.93,7.73,15.65,8,14.68,7.54L17.05,7.71z"/>
			<path class="st0" d="M18.76,9.43c1.22,0.64,3.93,2.57,3.93,2.57l-2.03-1.08c-1.4-0.54-3.24-1.37-4.53-2.04L18.76,9.43z"/>
			<path class="st0" d="M18.77,12.56c0.67,0.47,2.48,3.12,2.48,3.12l-0.81-1.74c-0.8-0.41-1.82-1.03-2.53-1.53L18.77,12.56z"/>
			<path class="st0" d="M17.85,10.73c1.01,0.51,3.83,2.96,3.83,2.96l-1.69-1.96c-1.17-0.43-2.23-0.59-3.3-1.13L17.85,10.73z"/>
			<path class="st0" d="M11.63,6.13c0.19,1.15,1.03,6.44,1.03,6.44l-0.88-3.48c-0.31-1.46,0.49-2.81,0.29-4.02L11.63,6.13z"/>
			<path class="st0" d="M10.34,5.31c0.19,1.15,1.03,6.44,1.03,6.44l-0.88-3.48c-0.31-1.46,0.49-2.81,0.29-4.02L10.34,5.31z"/>
			<path class="st0" d="M13.91,5.66c0.99,0.31,6.53,2.17,6.53,2.17l-3.09-1.58c-1.25-0.42-3.44-0.23-4.49-0.55L13.91,5.66z"/>
			<path class="st0" d="M13.55,4.27c1.11,0.38,6.24,2.08,6.24,2.08L16.5,4.95c-1.39-0.53-2.96-0.15-4.13-0.54L13.55,4.27z"/>
		</g>
		<g>
			<path class="st0" d="M22.36,7.21c9.26,2.04,17.47,6.53,17.47,6.53C34.26,9.67,29.5,8.27,21.69,6L22.36,7.21z"/>
			<path class="st0" d="M27.78,9.27c0.82,1,4.87,4.8,4.87,4.8l-3.22-2.09c-1.12-1.24-0.74-2.84-1.61-3.89L27.78,9.27z"/>
			<path class="st0" d="M31.52,11.09c0.82,1,3.92,4.21,3.92,4.21l-1.4-1.66c-0.61-1.16-1.61-2.67-2.48-3.73L31.52,11.09z"/>
			<path class="st0" d="M35.67,12.46c0.53,0.6,4.24,2.34,4.24,2.34l-2.58-0.82c-0.37-0.71-1-1.62-1.56-2.26L35.67,12.46z"/>
			<path class="st0" d="M39.4,13.89c0.8,0.4,3.9,2.23,3.9,2.23l-1.96-1.33c-0.59-0.53-1.57-1.18-2.42-1.6L39.4,13.89z"/>
			<path class="st0" d="M33.34,11.5c0.82,1,3.92,4.21,3.92,4.21l-2.19-1.99c-0.61-1.16-0.82-2.34-1.68-3.4L33.34,11.5z"/>
			<path class="st0" d="M32.92,7.85c1.42,0.04,6.35-0.1,6.35-0.1l-3.39-0.16c-1.79-0.09-4.67,1.1-6.17,1.06L32.92,7.85z"/>
			<path class="st0" d="M36.03,8.76c1.92,0.1,6.46,0.8,6.46,0.8l-3.22-0.18c-2.12,0.07-4.96,0.04-7-0.06L36.03,8.76z"/>
			<path class="st0" d="M37.59,11.7c1.11,0.17,4.82,1.91,4.82,1.91l-1.93-1.3c-1.26-0.06-2.92-0.22-4.1-0.4L37.59,11.7z"/>
			<path class="st0" d="M35.47,10.36c1.59,0.06,6.52,1.21,6.52,1.21l-3.2-1.15c-1.75,0.07-3.23,0.36-4.91,0.29L35.47,10.36z"/>
			<path class="st0" d="M24.98,8.59c0.82,1,4.53,5.62,4.53,5.62l-2.89-2.91c-1.13-1.24-0.74-2.84-1.61-3.89L24.98,8.59z"/>
			<path class="st0" d="M22.88,8.35c0.82,1,4.53,5.62,4.53,5.62l-2.89-2.91c-1.13-1.24-0.74-2.84-1.61-3.89L22.88,8.35z"/>
			<path class="st0" d="M27.77,7.22c1.46-0.12,9.7-0.65,9.7-0.65l-4.87-0.21c-1.86,0.12-4.66,1.2-6.21,1.32L27.77,7.22z"/>
			<path class="st0" d="M26.6,6.05c1.65-0.1,9.27-0.61,9.27-0.61l-5.04,0.05c-2.1,0.07-3.98,1.08-5.73,1.18L26.6,6.05z"/>
		</g>
	</g>
</symbol>
<g id="Fondo">
</g>
<g id="Guías">
</g>
<g id="Primer_plano">
	<g>
		<g>
			<g>
				<path class="st1" d="M833.8-588.54c1.76,0,3.3,0.64,4.61,1.87c1.32,1.26,1.98,2.82,1.98,4.73v84.71h-13.28v-84.71
					c0-1.83,0.63-3.39,1.93-4.67C830.31-587.88,831.9-588.54,833.8-588.54z M899.64-588.54c6.29,0,12.22,1.21,17.79,3.59
					c5.54,2.38,10.41,5.61,14.53,9.7c4.14,4.11,7.39,8.93,9.77,14.49c2.38,5.56,3.56,11.52,3.56,17.89c0,6.21-1.18,12.08-3.56,17.61
					c-2.38,5.53-5.63,10.35-9.77,14.54c-4.12,4.17-8.99,7.47-14.53,9.88c-5.57,2.41-11.5,3.62-17.79,3.62
					c-6.28,0-12.21-1.21-17.77-3.62c-5.54-2.41-10.4-5.71-14.54-9.88c-4.13-4.18-7.38-9-9.75-14.54c-2.39-5.53-3.57-11.4-3.57-17.61
					c0-6.37,1.19-12.33,3.57-17.89c2.37-5.56,5.62-10.38,9.75-14.49c4.14-4.09,9-7.33,14.54-9.7
					C887.44-587.33,893.36-588.54,899.64-588.54z M899.64-511.05c4.39,0,8.54-0.84,12.4-2.52c3.89-1.69,7.27-3.96,10.15-6.81
					c2.9-2.85,5.15-6.22,6.81-10.1c1.64-3.87,2.48-8.01,2.48-12.39c0-4.46-0.84-8.63-2.48-12.52c-1.65-3.88-3.91-7.24-6.81-10.14
					c-2.88-2.88-6.27-5.17-10.15-6.86c-3.86-1.68-8.01-2.53-12.4-2.53c-4.4,0-8.52,0.85-12.41,2.53c-3.87,1.69-7.24,3.98-10.14,6.86
					c-2.89,2.9-5.16,6.27-6.8,10.14c-1.65,3.89-2.47,8.06-2.47,12.52c0,4.38,0.82,8.53,2.47,12.39c1.64,3.88,3.91,7.25,6.8,10.1
					c2.91,2.85,6.28,5.12,10.14,6.81C891.13-511.89,895.24-511.05,899.64-511.05z M952.01-588.63h41.26c1.69,0,3.13,0.61,4.33,1.82
					c1.22,1.2,1.82,2.69,1.82,4.44c0,1.75-0.61,3.27-1.82,4.54c-1.19,1.29-2.64,1.93-4.33,1.93H979v78.57h-13.06v-78.57h-13.94
					c-1.76,0-3.25-0.64-4.5-1.93c-1.24-1.27-1.87-2.8-1.87-4.54c0-1.75,0.63-3.24,1.87-4.44
					C948.76-588.02,950.25-588.63,952.01-588.63z M1033.7-551.65h9.66c3.65,0,7.07,0.73,10.26,2.19c3.19,1.47,5.96,3.42,8.34,5.87
					c2.38,2.45,4.24,5.31,5.6,8.62c1.35,3.28,2.03,6.8,2.03,10.54c0,3.72-0.72,7.23-2.15,10.53c-1.43,3.3-3.38,6.15-5.85,8.61
					c-2.49,2.46-5.38,4.42-8.68,5.88c-3.28,1.46-6.8,2.19-10.54,2.19h-33.35v-13.59h33.35c1.83,0,3.6-0.36,5.27-1.07
					c1.68-0.68,3.16-1.63,4.41-2.84c1.23-1.21,2.23-2.64,2.95-4.33c0.73-1.68,1.09-3.47,1.09-5.37c0-1.91-0.36-3.7-1.09-5.38
					c-0.73-1.68-1.72-3.14-2.95-4.4c-1.25-1.22-2.73-2.2-4.41-2.9c-1.67-0.69-3.44-1.05-5.27-1.05h-8.66
					c-0.81,0-1.56-0.04-2.26-0.12c-0.68-0.06-1.39-0.13-2.12-0.21c-2.93-0.57-5.66-1.61-8.18-3.06c-2.52-1.47-4.73-3.28-6.59-5.49
					c-1.86-2.2-3.34-4.68-4.44-7.47c-1.1-2.77-1.65-5.74-1.65-8.9c0-3.44,0.66-6.69,1.97-9.75c1.32-3.07,3.11-5.74,5.39-8.01
					c2.26-2.27,4.93-4.08,8.01-5.38c3.07-1.32,6.35-1.99,9.87-1.99h25.12c1.83,0,3.42,0.64,4.73,1.87c1.31,1.26,1.98,2.82,1.98,4.73
					c0,1.98-0.67,3.59-1.98,4.82c-1.31,1.25-2.9,1.86-4.73,1.86l-25.12,0.22c-1.61,0-3.12,0.31-4.55,0.94
					c-1.43,0.62-2.67,1.46-3.73,2.52c-1.07,1.06-1.9,2.27-2.52,3.67c-0.62,1.4-0.92,2.9-0.92,4.5c0,1.69,0.3,3.24,0.92,4.67
					c0.62,1.42,1.45,2.66,2.52,3.68c1.07,1.01,2.31,1.85,3.73,2.48C1030.58-551.95,1032.09-551.65,1033.7-551.65z M1096.02-510.82
					h45.54v13.59h-58.93v-84.71c0-1.91,0.65-3.47,1.93-4.73c1.28-1.23,2.87-1.87,4.78-1.87h42.25c1.6,0,2.96,0.56,4.1,1.65
					c1.14,1.11,1.72,2.46,1.72,4.07c0,1.69-0.58,3.1-1.72,4.23c-1.14,1.14-2.5,1.7-4.1,1.7h-35.56v26.44h23.69v12.08h-23.69V-510.82
					z M1190.06-588.54c4.83,0,9.38,0.93,13.66,2.76c4.28,1.83,8.02,4.31,11.2,7.45c3.17,3.14,5.68,6.85,7.51,11.09
					c1.82,4.24,2.73,8.78,2.73,13.6v56.41h-13.59v-56.41c0-2.92-0.57-5.67-1.71-8.27c-1.14-2.62-2.67-4.87-4.62-6.81
					c-1.92-1.94-4.21-3.47-6.85-4.6c-2.62-1.14-5.4-1.71-8.33-1.71c-3.01,0-5.81,0.57-8.42,1.71c-2.58,1.13-4.83,2.66-6.74,4.6
					c-1.9,1.95-3.41,4.2-4.55,6.81c-1.14,2.6-1.69,5.35-1.69,8.27v56.41h-13.51v-56.41c0-4.82,0.93-9.37,2.75-13.6
					c1.82-4.24,4.33-7.94,7.51-11.09c3.19-3.14,6.88-5.62,11.08-7.45C1180.71-587.6,1185.22-588.54,1190.06-588.54z M1263.49-551.65
					h9.65c3.66,0,7.1,0.73,10.26,2.19c3.19,1.47,5.97,3.42,8.34,5.87c2.39,2.45,4.25,5.31,5.6,8.62c1.36,3.28,2.03,6.8,2.03,10.54
					c0,3.72-0.71,7.23-2.13,10.53c-1.43,3.3-3.38,6.15-5.88,8.61c-2.48,2.46-5.39,4.42-8.67,5.88c-3.3,1.46-6.8,2.19-10.54,2.19
					h-33.36v-13.59h33.36c1.84,0,3.59-0.36,5.28-1.07c1.68-0.68,3.13-1.63,4.39-2.84c1.24-1.21,2.22-2.64,2.97-4.33
					c0.73-1.68,1.08-3.47,1.08-5.37c0-1.91-0.35-3.7-1.08-5.38c-0.75-1.68-1.73-3.14-2.97-4.4c-1.25-1.22-2.71-2.2-4.39-2.9
					c-1.69-0.69-3.44-1.05-5.28-1.05h-8.66c-0.8,0-1.57-0.04-2.25-0.12c-0.69-0.06-1.42-0.13-2.14-0.21
					c-2.93-0.57-5.66-1.61-8.17-3.06c-2.53-1.47-4.73-3.28-6.59-5.49c-1.88-2.2-3.35-4.68-4.45-7.47c-1.1-2.77-1.63-5.74-1.63-8.9
					c0-3.44,0.65-6.69,1.96-9.75c1.31-3.07,3.1-5.74,5.36-8.01c2.28-2.27,4.96-4.08,8.02-5.38c3.08-1.32,6.36-1.99,9.88-1.99h25.12
					c1.83,0,3.41,0.64,4.73,1.87c1.32,1.26,1.97,2.82,1.97,4.73c0,1.98-0.65,3.59-1.97,4.82c-1.31,1.25-2.9,1.86-4.73,1.86
					l-25.12,0.22c-1.6,0-3.13,0.31-4.55,0.94c-1.43,0.62-2.68,1.46-3.74,2.52c-1.05,1.06-1.9,2.27-2.52,3.67
					c-0.62,1.4-0.94,2.9-0.94,4.5c0,1.69,0.32,3.24,0.94,4.67c0.62,1.42,1.47,2.66,2.52,3.68c1.06,1.01,2.31,1.85,3.74,2.48
					C1260.35-551.95,1261.88-551.65,1263.49-551.65z"/>
			</g>
			<g>
				<path class="st2" d="M764.15-536.03c-4.28,34.42-33.63,61.04-69.2,61.04c-35.57,0-64.91-26.62-69.19-61.04h-18.21
					c4.37,44.43,41.83,79.14,87.4,79.14c45.57,0,83.04-34.71,87.4-79.14H764.15z M694.96-632.55c-45.57,0-83.03,34.71-87.4,79.13
					h18.21c4.28-34.4,33.63-61.03,69.19-61.03c35.56,0,64.91,26.63,69.2,61.03h18.2C777.99-597.84,740.53-632.55,694.96-632.55z"/>
				<g>
					<path class="st3" d="M713.41-544.71c0-10.18-8.27-18.44-18.46-18.44c-10.18,0-18.43,8.26-18.43,18.44
						c0,10.19,8.26,18.44,18.43,18.44C705.14-526.27,713.41-534.53,713.41-544.71z"/>
				</g>
			</g>
		</g>
	</g>
	<g>
		<g>
			<g>
				<path class="st4" d="M1061.93-463.97c-0.38,0.51-0.81,0.94-1.29,1.3c-0.48,0.36-0.99,0.66-1.53,0.89
					c-0.54,0.23-1.1,0.41-1.68,0.52c-0.58,0.11-1.15,0.16-1.71,0.16c-1.45,0-2.74-0.27-3.88-0.81c-1.14-0.54-2.11-1.27-2.9-2.17
					c-0.8-0.9-1.4-1.94-1.82-3.12c-0.42-1.18-0.62-2.4-0.62-3.66c0-1.41,0.19-2.75,0.58-4.03c0.39-1.27,0.97-2.39,1.74-3.35
					c0.77-0.96,1.73-1.72,2.88-2.29c1.15-0.57,2.49-0.86,4.03-0.86c1.05,0,2.04,0.12,2.97,0.37c0.93,0.24,1.76,0.63,2.5,1.15
					c0.73,0.52,1.35,1.19,1.84,1.99c0.5,0.8,0.84,1.78,1.02,2.92h-2.58c-0.13-0.73-0.36-1.37-0.7-1.92c-0.34-0.55-0.77-1-1.27-1.35
					c-0.51-0.35-1.08-0.61-1.72-0.78c-0.64-0.17-1.33-0.26-2.05-0.26c-1.18,0-2.18,0.24-3.02,0.71c-0.84,0.47-1.53,1.1-2.06,1.87
					c-0.53,0.77-0.93,1.66-1.18,2.65c-0.25,0.99-0.38,2.01-0.38,3.04c0,1.02,0.14,2,0.43,2.94c0.29,0.94,0.71,1.77,1.27,2.49
					c0.56,0.72,1.25,1.29,2.08,1.72s1.78,0.64,2.86,0.64c0.99,0,1.89-0.17,2.67-0.5c0.79-0.33,1.45-0.79,1.99-1.37
					c0.54-0.58,0.95-1.26,1.21-2.04s0.38-1.62,0.34-2.53h-6.19v-2.12h8.49v10.2h-1.63L1061.93-463.97z"/>
				<path class="st4" d="M1070.78-478.11h-2.31v-2.82h2.31V-478.11z M1068.47-475.58h2.31v14.03h-2.31V-475.58z"/>
				<path class="st4" d="M1075.04-475.58h2.17v2.06h0.05c1.05-1.59,2.56-2.39,4.53-2.39c0.87,0,1.66,0.18,2.36,0.54
					c0.7,0.36,1.2,0.98,1.49,1.85c0.47-0.76,1.09-1.35,1.87-1.76c0.78-0.42,1.62-0.62,2.52-0.62c0.7,0,1.34,0.08,1.91,0.23
					c0.57,0.15,1.06,0.39,1.46,0.72c0.41,0.33,0.72,0.75,0.95,1.26s0.34,1.14,0.34,1.86v10.28h-2.31v-9.2
					c0-0.43-0.04-0.84-0.11-1.22c-0.07-0.38-0.21-0.71-0.41-0.99c-0.2-0.28-0.48-0.5-0.83-0.67c-0.35-0.16-0.81-0.24-1.37-0.24
					c-1.12,0-2.01,0.33-2.67,0.98c-0.66,0.65-0.99,1.52-0.99,2.61v8.74h-2.31v-9.2c0-0.45-0.04-0.87-0.12-1.25
					c-0.08-0.38-0.22-0.71-0.42-0.99c-0.2-0.28-0.47-0.5-0.81-0.65c-0.34-0.15-0.77-0.23-1.28-0.23c-0.69,0-1.27,0.14-1.74,0.41
					c-0.47,0.27-0.85,0.6-1.15,0.98c-0.3,0.38-0.52,0.77-0.65,1.18c-0.14,0.41-0.2,0.75-0.2,1.02v8.74h-2.31V-475.58z"/>
				<path class="st4" d="M1110.82-466.01c-0.31,1.56-0.99,2.74-2.04,3.55c-1.05,0.81-2.37,1.22-3.96,1.22
					c-1.12,0-2.09-0.19-2.92-0.56c-0.82-0.37-1.52-0.88-2.08-1.53c-0.56-0.65-0.98-1.43-1.26-2.33c-0.28-0.9-0.44-1.89-0.47-2.96
					c0-1.05,0.16-2.02,0.49-2.92c0.33-0.9,0.78-1.67,1.37-2.32c0.59-0.65,1.28-1.16,2.09-1.52c0.8-0.36,1.69-0.54,2.64-0.54
					c1.25,0,2.28,0.26,3.11,0.77c0.82,0.52,1.48,1.17,1.98,1.97c0.5,0.8,0.84,1.66,1.03,2.6c0.19,0.94,0.27,1.84,0.23,2.69h-10.5
					c-0.02,0.62,0.05,1.2,0.22,1.75c0.16,0.55,0.42,1.04,0.79,1.46c0.36,0.43,0.82,0.76,1.38,1.02c0.56,0.25,1.22,0.38,1.98,0.38
					c0.96,0,1.75-0.23,2.39-0.68c0.63-0.45,1.05-1.14,1.25-2.06H1110.82z M1108.6-469.91c-0.04-0.54-0.16-1.06-0.37-1.55
					c-0.21-0.49-0.49-0.91-0.84-1.26c-0.35-0.35-0.77-0.63-1.26-0.84c-0.49-0.21-1.01-0.31-1.57-0.31c-0.6,0-1.14,0.1-1.61,0.31
					c-0.48,0.21-0.89,0.49-1.23,0.85c-0.34,0.36-0.61,0.78-0.81,1.26c-0.2,0.48-0.32,0.99-0.35,1.53H1108.6z"/>
				<path class="st4" d="M1114.1-475.58h2.17v2.23h0.05c0.49-0.87,1.12-1.51,1.89-1.93c0.77-0.42,1.66-0.62,2.67-0.62
					c0.92,0,1.69,0.13,2.31,0.38c0.61,0.25,1.11,0.61,1.49,1.06c0.38,0.45,0.65,0.99,0.8,1.61c0.15,0.62,0.23,1.32,0.23,2.08v9.22
					h-2.31v-9.5c0-0.87-0.25-1.56-0.76-2.06c-0.51-0.51-1.2-0.76-2.09-0.76c-0.71,0-1.32,0.11-1.83,0.33
					c-0.52,0.22-0.95,0.52-1.29,0.92c-0.34,0.4-0.6,0.86-0.77,1.4c-0.17,0.53-0.26,1.12-0.26,1.75v7.92h-2.31V-475.58z"/>
				<path class="st4" d="M1129.54-471.45c0.29-0.9,0.72-1.67,1.3-2.33c0.58-0.66,1.29-1.18,2.13-1.56c0.84-0.38,1.82-0.57,2.94-0.57
					c1.1,0,2.08,0.19,2.93,0.57c0.85,0.38,1.56,0.9,2.14,1.56c0.58,0.66,1.01,1.44,1.3,2.33c0.29,0.89,0.43,1.86,0.43,2.89
					c0,1.03-0.14,1.99-0.43,2.88c-0.29,0.89-0.72,1.66-1.3,2.32c-0.58,0.66-1.29,1.18-2.14,1.56c-0.85,0.38-1.83,0.57-2.93,0.57
					c-1.12,0-2.1-0.19-2.94-0.57c-0.84-0.38-1.55-0.9-2.13-1.56c-0.58-0.66-1.01-1.43-1.3-2.32c-0.29-0.89-0.43-1.85-0.43-2.88
					C1129.11-469.59,1129.25-470.55,1129.54-471.45z M1131.89-466.29c0.23,0.66,0.54,1.21,0.94,1.65c0.4,0.44,0.86,0.78,1.4,1.02
					c0.53,0.24,1.1,0.35,1.7,0.35c0.6,0,1.16-0.12,1.7-0.35c0.53-0.23,1-0.57,1.4-1.02c0.4-0.44,0.71-0.99,0.94-1.65
					s0.34-1.41,0.34-2.26s-0.11-1.61-0.34-2.27c-0.23-0.66-0.54-1.22-0.94-1.67c-0.4-0.45-0.86-0.8-1.4-1.03
					c-0.53-0.23-1.1-0.35-1.7-0.35c-0.6,0-1.16,0.12-1.7,0.35c-0.53,0.24-1,0.58-1.4,1.03c-0.4,0.45-0.71,1.01-0.94,1.67
					c-0.23,0.66-0.34,1.42-0.34,2.27S1131.66-466.95,1131.89-466.29z"/>
				<path class="st4" d="M1154.82-480.93h2.58v19.37h-2.58V-480.93z"/>
				<path class="st4" d="M1161.72-471.45c0.29-0.9,0.72-1.67,1.3-2.33c0.58-0.66,1.29-1.18,2.13-1.56c0.84-0.38,1.82-0.57,2.94-0.57
					c1.1,0,2.08,0.19,2.93,0.57c0.85,0.38,1.56,0.9,2.14,1.56c0.58,0.66,1.01,1.44,1.3,2.33c0.29,0.89,0.43,1.86,0.43,2.89
					c0,1.03-0.14,1.99-0.43,2.88c-0.29,0.89-0.72,1.66-1.3,2.32c-0.58,0.66-1.29,1.18-2.14,1.56c-0.85,0.38-1.83,0.57-2.93,0.57
					c-1.12,0-2.1-0.19-2.94-0.57c-0.84-0.38-1.55-0.9-2.13-1.56c-0.58-0.66-1.01-1.43-1.3-2.32c-0.29-0.89-0.43-1.85-0.43-2.88
					C1161.28-469.59,1161.43-470.55,1161.72-471.45z M1164.06-466.29c0.23,0.66,0.54,1.21,0.94,1.65c0.4,0.44,0.86,0.78,1.4,1.02
					c0.53,0.24,1.1,0.35,1.7,0.35c0.6,0,1.16-0.12,1.7-0.35c0.53-0.23,1-0.57,1.4-1.02c0.4-0.44,0.71-0.99,0.94-1.65
					s0.34-1.41,0.34-2.26s-0.11-1.61-0.34-2.27c-0.23-0.66-0.54-1.22-0.94-1.67c-0.4-0.45-0.86-0.8-1.4-1.03
					c-0.53-0.23-1.1-0.35-1.7-0.35c-0.6,0-1.16,0.12-1.7,0.35c-0.53,0.24-1,0.58-1.4,1.03c-0.4,0.45-0.71,1.01-0.94,1.67
					c-0.23,0.66-0.34,1.42-0.34,2.27S1163.84-466.95,1164.06-466.29z"/>
				<path class="st4" d="M1183.07-478.81h-6.46v-2.12h15.49v2.12h-6.46v17.25h-2.58V-478.81z"/>
				<path class="st4" d="M1215.3-461.56h-2.31v-1.9h-0.05c-0.38,0.78-0.98,1.34-1.79,1.7c-0.81,0.35-1.71,0.53-2.69,0.53
					c-1.08,0-2.03-0.2-2.83-0.6c-0.8-0.4-1.47-0.94-2.01-1.61c-0.53-0.68-0.94-1.46-1.21-2.35s-0.41-1.83-0.41-2.82
					s0.13-1.93,0.39-2.81c0.26-0.88,0.66-1.65,1.19-2.32c0.53-0.67,1.2-1.2,2.01-1.59c0.8-0.39,1.74-0.58,2.81-0.58
					c0.36,0,0.75,0.04,1.17,0.11c0.42,0.07,0.83,0.19,1.25,0.37c0.42,0.17,0.81,0.4,1.18,0.68c0.37,0.28,0.68,0.63,0.94,1.04h0.05
					v-7.22h2.31V-461.56z M1204.7-466.54c0.17,0.62,0.43,1.18,0.79,1.67c0.35,0.49,0.8,0.88,1.36,1.17c0.55,0.29,1.2,0.43,1.94,0.43
					c0.78,0,1.44-0.15,1.98-0.46c0.54-0.31,0.99-0.71,1.33-1.21c0.34-0.5,0.59-1.06,0.75-1.7c0.15-0.63,0.23-1.27,0.23-1.93
					c0-0.69-0.08-1.35-0.24-1.99c-0.16-0.64-0.42-1.21-0.77-1.7c-0.35-0.49-0.81-0.88-1.37-1.18c-0.56-0.3-1.24-0.45-2.04-0.45
					c-0.8,0-1.46,0.15-1.99,0.46c-0.53,0.31-0.96,0.71-1.29,1.22c-0.33,0.51-0.56,1.08-0.7,1.74c-0.15,0.65-0.22,1.32-0.22,2.01
					C1204.44-467.8,1204.53-467.16,1204.7-466.54z"/>
				<path class="st4" d="M1221.97-478.11h-2.31v-2.82h2.31V-478.11z M1219.66-475.58h2.31v14.03h-2.31V-475.58z"/>
				<path class="st4" d="M1232.52-461.56h-2.44l-5.21-14.03h2.58l3.92,11.69h0.05l3.79-11.69h2.44L1232.52-461.56z"/>
				<path class="st4" d="M1242.91-478.11h-2.31v-2.82h2.31V-478.11z M1240.61-475.58h2.31v14.03h-2.31V-475.58z"/>
				<path class="st4" d="M1248.58-465.98c0.02,0.52,0.14,0.96,0.35,1.3c0.22,0.34,0.5,0.62,0.85,0.83c0.35,0.21,0.75,0.36,1.19,0.45
					c0.44,0.09,0.9,0.14,1.37,0.14c0.36,0,0.74-0.03,1.14-0.08c0.4-0.05,0.76-0.15,1.1-0.3c0.33-0.14,0.61-0.35,0.83-0.63
					c0.22-0.28,0.33-0.63,0.33-1.06c0-0.45-0.13-0.81-0.39-1.08c-0.26-0.28-0.61-0.5-1.03-0.68c-0.42-0.18-0.91-0.33-1.46-0.44
					c-0.55-0.12-1.12-0.24-1.7-0.36c-0.58-0.13-1.14-0.28-1.68-0.46c-0.54-0.18-1.03-0.42-1.46-0.71c-0.43-0.29-0.78-0.66-1.04-1.12
					c-0.26-0.46-0.39-1.02-0.39-1.69c0-0.71,0.16-1.32,0.47-1.83c0.32-0.51,0.72-0.92,1.22-1.24c0.5-0.32,1.06-0.56,1.68-0.71
					c0.62-0.15,1.24-0.23,1.86-0.23c0.78,0,1.51,0.07,2.18,0.2c0.68,0.14,1.27,0.37,1.79,0.71s0.93,0.79,1.23,1.36
					c0.31,0.57,0.49,1.28,0.54,2.13h-2.31c-0.04-0.45-0.16-0.83-0.37-1.13c-0.21-0.3-0.46-0.54-0.76-0.72
					c-0.3-0.18-0.63-0.31-1-0.39c-0.37-0.08-0.75-0.12-1.13-0.12c-0.34,0-0.69,0.03-1.05,0.08c-0.35,0.05-0.67,0.15-0.96,0.29
					c-0.29,0.14-0.52,0.32-0.71,0.56c-0.18,0.23-0.27,0.52-0.27,0.87c0,0.42,0.14,0.75,0.42,1c0.28,0.25,0.64,0.47,1.07,0.64
					c0.43,0.17,0.92,0.32,1.46,0.43c0.54,0.12,1.08,0.24,1.63,0.37c0.58,0.13,1.14,0.28,1.69,0.46c0.55,0.18,1.04,0.42,1.47,0.72
					c0.42,0.3,0.77,0.67,1.03,1.13c0.26,0.45,0.39,1.01,0.39,1.68c0,0.83-0.18,1.53-0.53,2.1c-0.35,0.57-0.81,1.03-1.38,1.37
					c-0.57,0.34-1.21,0.59-1.93,0.73c-0.71,0.14-1.42,0.22-2.13,0.22c-0.8,0-1.54-0.09-2.24-0.26c-0.7-0.17-1.32-0.44-1.86-0.81
					c-0.54-0.37-0.98-0.86-1.3-1.46c-0.33-0.61-0.51-1.34-0.54-2.21H1248.58z"/>
				<path class="st4" d="M1263.86-478.11h-2.31v-2.82h2.31V-478.11z M1261.55-475.58h2.31v14.03h-2.31V-475.58z"/>
				<path class="st4" d="M1267.79-471.45c0.29-0.9,0.72-1.67,1.3-2.33c0.58-0.66,1.29-1.18,2.13-1.56c0.84-0.38,1.82-0.57,2.94-0.57
					c1.1,0,2.08,0.19,2.93,0.57c0.85,0.38,1.56,0.9,2.14,1.56c0.58,0.66,1.01,1.44,1.3,2.33c0.29,0.89,0.43,1.86,0.43,2.89
					c0,1.03-0.14,1.99-0.43,2.88c-0.29,0.89-0.72,1.66-1.3,2.32c-0.58,0.66-1.29,1.18-2.14,1.56c-0.85,0.38-1.83,0.57-2.93,0.57
					c-1.12,0-2.1-0.19-2.94-0.57c-0.84-0.38-1.55-0.9-2.13-1.56c-0.58-0.66-1.01-1.43-1.3-2.32c-0.29-0.89-0.43-1.85-0.43-2.88
					C1267.36-469.59,1267.5-470.55,1267.79-471.45z M1270.14-466.29c0.23,0.66,0.54,1.21,0.94,1.65c0.4,0.44,0.86,0.78,1.4,1.02
					c0.53,0.24,1.1,0.35,1.7,0.35c0.6,0,1.16-0.12,1.7-0.35c0.53-0.23,1-0.57,1.4-1.02c0.4-0.44,0.71-0.99,0.94-1.65
					s0.34-1.41,0.34-2.26s-0.11-1.61-0.34-2.27c-0.23-0.66-0.54-1.22-0.94-1.67c-0.4-0.45-0.86-0.8-1.4-1.03
					c-0.53-0.23-1.1-0.35-1.7-0.35c-0.6,0-1.16,0.12-1.7,0.35c-0.53,0.24-1,0.58-1.4,1.03c-0.4,0.45-0.71,1.01-0.94,1.67
					c-0.23,0.66-0.34,1.42-0.34,2.27S1269.91-466.95,1270.14-466.29z"/>
				<path class="st4" d="M1284.37-475.58h2.17v2.23h0.05c0.49-0.87,1.12-1.51,1.89-1.93c0.77-0.42,1.66-0.62,2.67-0.62
					c0.92,0,1.69,0.13,2.31,0.38c0.61,0.25,1.11,0.61,1.49,1.06c0.38,0.45,0.65,0.99,0.8,1.61c0.15,0.62,0.23,1.32,0.23,2.08v9.22
					h-2.31v-9.5c0-0.87-0.25-1.56-0.76-2.06c-0.51-0.51-1.2-0.76-2.09-0.76c-0.71,0-1.32,0.11-1.83,0.33
					c-0.52,0.22-0.95,0.52-1.29,0.92c-0.34,0.4-0.6,0.86-0.77,1.4c-0.17,0.53-0.26,1.12-0.26,1.75v7.92h-2.31V-475.58z"/>
			</g>
		</g>
	</g>
	<g>
		<g>
			<g>
				<g>
					<g>
						<g>
							<path class="st4" d="M1591.74-495.04c1.76,0,3.3,0.64,4.61,1.87c1.32,1.26,1.98,2.82,1.98,4.73v84.71h-13.28v-84.71
								c0-1.83,0.63-3.39,1.93-4.67C1588.25-494.39,1589.84-495.04,1591.74-495.04z M1657.58-495.04c6.29,0,12.22,1.21,17.79,3.59
								c5.54,2.38,10.41,5.61,14.53,9.7c4.14,4.11,7.39,8.93,9.77,14.49c2.38,5.56,3.56,11.52,3.56,17.89
								c0,6.21-1.18,12.08-3.56,17.61c-2.38,5.53-5.63,10.35-9.77,14.54c-4.12,4.17-8.99,7.47-14.53,9.87
								c-5.57,2.41-11.5,3.62-17.79,3.62c-6.28,0-12.21-1.21-17.77-3.62c-5.54-2.41-10.4-5.71-14.54-9.87
								c-4.13-4.18-7.38-9-9.75-14.54c-2.39-5.53-3.57-11.4-3.57-17.61c0-6.37,1.19-12.33,3.57-17.89
								c2.37-5.56,5.62-10.38,9.75-14.49c4.14-4.09,9-7.33,14.54-9.7C1645.37-493.83,1651.3-495.04,1657.58-495.04z M1657.58-417.55
								c4.39,0,8.54-0.84,12.4-2.52c3.89-1.69,7.27-3.96,10.15-6.81c2.9-2.85,5.15-6.22,6.81-10.1c1.64-3.87,2.48-8.01,2.48-12.39
								c0-4.46-0.84-8.63-2.48-12.52c-1.65-3.88-3.91-7.24-6.81-10.14c-2.88-2.88-6.27-5.17-10.15-6.86
								c-3.86-1.68-8.01-2.53-12.4-2.53c-4.4,0-8.51,0.85-12.4,2.53c-3.87,1.69-7.24,3.98-10.14,6.86c-2.89,2.9-5.16,6.27-6.8,10.14
								c-1.65,3.89-2.47,8.06-2.47,12.52c0,4.38,0.82,8.53,2.47,12.39c1.64,3.88,3.91,7.25,6.8,10.1c2.91,2.85,6.28,5.12,10.14,6.81
								C1649.06-418.39,1653.18-417.55,1657.58-417.55z M1709.95-495.13h41.26c1.69,0,3.13,0.61,4.33,1.82
								c1.22,1.2,1.82,2.69,1.82,4.44c0,1.75-0.61,3.27-1.82,4.54c-1.19,1.29-2.64,1.93-4.33,1.93h-14.27v78.57h-13.06v-78.57
								h-13.94c-1.76,0-3.25-0.64-4.5-1.93c-1.24-1.27-1.87-2.8-1.87-4.54c0-1.75,0.63-3.24,1.87-4.44
								C1706.69-494.53,1708.19-495.13,1709.95-495.13z M1791.63-458.15h9.66c3.65,0,7.07,0.73,10.26,2.19
								c3.19,1.47,5.96,3.42,8.34,5.87c2.38,2.45,4.24,5.31,5.6,8.62c1.35,3.28,2.03,6.8,2.03,10.54c0,3.72-0.72,7.23-2.15,10.53
								c-1.43,3.3-3.38,6.15-5.85,8.61c-2.49,2.46-5.38,4.42-8.68,5.88c-3.28,1.46-6.8,2.19-10.54,2.19h-33.34v-13.59h33.34
								c1.83,0,3.6-0.36,5.27-1.07c1.68-0.68,3.16-1.63,4.41-2.84c1.23-1.21,2.23-2.64,2.95-4.33c0.73-1.68,1.09-3.47,1.09-5.37
								c0-1.91-0.36-3.7-1.09-5.38c-0.73-1.68-1.72-3.14-2.95-4.4c-1.25-1.22-2.73-2.2-4.41-2.9c-1.67-0.69-3.44-1.05-5.27-1.05
								h-8.66c-0.81,0-1.56-0.04-2.26-0.12c-0.68-0.06-1.39-0.13-2.12-0.21c-2.93-0.57-5.65-1.61-8.18-3.06
								c-2.52-1.47-4.73-3.28-6.59-5.49c-1.86-2.2-3.34-4.68-4.44-7.47c-1.1-2.77-1.65-5.74-1.65-8.9c0-3.44,0.66-6.69,1.97-9.75
								c1.32-3.07,3.11-5.74,5.39-8.01c2.26-2.27,4.93-4.08,8.01-5.38c3.07-1.32,6.35-1.99,9.86-1.99h25.12
								c1.83,0,3.42,0.64,4.73,1.87c1.31,1.26,1.98,2.82,1.98,4.73c0,1.98-0.67,3.59-1.98,4.82c-1.31,1.25-2.9,1.86-4.73,1.86
								l-25.12,0.22c-1.61,0-3.12,0.31-4.55,0.94c-1.43,0.62-2.67,1.46-3.73,2.52c-1.07,1.06-1.9,2.27-2.52,3.67
								c-0.62,1.4-0.92,2.9-0.92,4.5c0,1.69,0.3,3.24,0.92,4.67c0.62,1.42,1.45,2.66,2.52,3.68c1.07,1.01,2.31,1.85,3.73,2.48
								C1788.52-458.46,1790.03-458.15,1791.63-458.15z M1853.95-417.32h45.54v13.59h-58.93v-84.71c0-1.91,0.65-3.47,1.93-4.73
								c1.28-1.23,2.87-1.87,4.78-1.87h42.24c1.6,0,2.96,0.56,4.1,1.65c1.14,1.11,1.72,2.46,1.72,4.07c0,1.69-0.58,3.1-1.72,4.23
								c-1.14,1.14-2.5,1.7-4.1,1.7h-35.56v26.44h23.69v12.08h-23.69V-417.32z M1947.99-495.04c4.83,0,9.38,0.93,13.66,2.76
								c4.28,1.83,8.02,4.31,11.2,7.45c3.17,3.14,5.68,6.85,7.51,11.09c1.82,4.24,2.73,8.78,2.73,13.6v56.41h-13.59v-56.41
								c0-2.92-0.57-5.67-1.71-8.27c-1.14-2.62-2.67-4.87-4.62-6.81c-1.92-1.94-4.21-3.47-6.85-4.6c-2.62-1.14-5.4-1.71-8.33-1.71
								c-3.01,0-5.81,0.57-8.42,1.71c-2.58,1.13-4.83,2.66-6.74,4.6c-1.9,1.95-3.41,4.2-4.55,6.81c-1.14,2.6-1.69,5.35-1.69,8.27
								v56.41h-13.51v-56.41c0-4.82,0.93-9.37,2.75-13.6c1.82-4.24,4.33-7.94,7.51-11.09c3.19-3.14,6.88-5.62,11.08-7.45
								C1938.64-494.11,1943.16-495.04,1947.99-495.04z M2021.42-458.15h9.65c3.66,0,7.1,0.73,10.26,2.19
								c3.19,1.47,5.97,3.42,8.34,5.87c2.39,2.45,4.25,5.31,5.6,8.62c1.36,3.28,2.03,6.8,2.03,10.54c0,3.72-0.71,7.23-2.13,10.53
								c-1.43,3.3-3.38,6.15-5.88,8.61c-2.48,2.46-5.39,4.42-8.67,5.88c-3.3,1.46-6.8,2.19-10.54,2.19h-33.36v-13.59h33.36
								c1.84,0,3.59-0.36,5.28-1.07c1.68-0.68,3.13-1.63,4.39-2.84c1.24-1.21,2.22-2.64,2.97-4.33c0.73-1.68,1.08-3.47,1.08-5.37
								c0-1.91-0.35-3.7-1.08-5.38c-0.75-1.68-1.73-3.14-2.97-4.4c-1.25-1.22-2.71-2.2-4.39-2.9c-1.69-0.69-3.44-1.05-5.28-1.05
								h-8.66c-0.8,0-1.57-0.04-2.25-0.12c-0.69-0.06-1.42-0.13-2.14-0.21c-2.93-0.57-5.65-1.61-8.17-3.06
								c-2.53-1.47-4.73-3.28-6.59-5.49c-1.88-2.2-3.35-4.68-4.45-7.47c-1.1-2.77-1.63-5.74-1.63-8.9c0-3.44,0.65-6.69,1.96-9.75
								c1.31-3.07,3.1-5.74,5.36-8.01c2.28-2.27,4.96-4.08,8.02-5.38c3.08-1.32,6.36-1.99,9.88-1.99h25.12
								c1.83,0,3.41,0.64,4.73,1.87c1.32,1.26,1.97,2.82,1.97,4.73c0,1.98-0.65,3.59-1.97,4.82c-1.31,1.25-2.9,1.86-4.73,1.86
								l-25.12,0.22c-1.6,0-3.13,0.31-4.55,0.94c-1.43,0.62-2.68,1.46-3.74,2.52c-1.05,1.06-1.9,2.27-2.52,3.67
								c-0.62,1.4-0.94,2.9-0.94,4.5c0,1.69,0.32,3.24,0.94,4.67c0.62,1.42,1.47,2.66,2.52,3.68c1.06,1.01,2.31,1.85,3.74,2.48
								C2018.28-458.46,2019.81-458.15,2021.42-458.15z"/>
						</g>
					</g>
				</g>
				<g>
					<path class="st2" d="M1890.37-615.39c-4.28,34.42-33.63,61.04-69.19,61.04c-35.57,0-64.91-26.62-69.19-61.04h-18.21
						c4.37,44.43,41.83,79.14,87.4,79.14c45.57,0,83.03-34.71,87.4-79.14H1890.37z M1821.18-711.9c-45.57,0-83.03,34.71-87.4,79.13
						h18.21c4.28-34.4,33.63-61.03,69.19-61.03c35.56,0,64.91,26.63,69.19,61.03h18.2C1904.21-677.19,1866.75-711.9,1821.18-711.9z"
						/>
					<g>
						<path class="st3" d="M1839.63-624.07c0-10.18-8.27-18.44-18.46-18.44c-10.18,0-18.43,8.26-18.43,18.44
							c0,10.19,8.26,18.44,18.43,18.44C1831.36-605.63,1839.63-613.88,1839.63-624.07z"/>
					</g>
				</g>
			</g>
			<g>
				<path class="st4" d="M1820.89-369.33c-0.38,0.51-0.81,0.94-1.29,1.3c-0.48,0.36-0.99,0.66-1.53,0.89
					c-0.54,0.23-1.1,0.41-1.68,0.52c-0.58,0.11-1.15,0.16-1.71,0.16c-1.45,0-2.74-0.27-3.88-0.81c-1.14-0.54-2.11-1.27-2.9-2.17
					c-0.8-0.9-1.4-1.94-1.82-3.12c-0.42-1.18-0.62-2.4-0.62-3.66c0-1.41,0.19-2.75,0.58-4.03c0.39-1.27,0.97-2.39,1.74-3.35
					c0.77-0.96,1.73-1.72,2.88-2.29c1.15-0.57,2.49-0.86,4.03-0.86c1.05,0,2.04,0.12,2.97,0.37c0.93,0.24,1.76,0.63,2.5,1.15
					c0.73,0.52,1.35,1.19,1.84,1.99c0.5,0.8,0.84,1.78,1.02,2.92h-2.58c-0.13-0.73-0.36-1.37-0.7-1.92c-0.34-0.55-0.77-1-1.27-1.35
					c-0.51-0.35-1.08-0.61-1.72-0.78c-0.64-0.17-1.33-0.26-2.05-0.26c-1.18,0-2.18,0.24-3.03,0.71c-0.84,0.47-1.53,1.1-2.06,1.87
					c-0.53,0.77-0.93,1.66-1.18,2.65c-0.25,0.99-0.38,2.01-0.38,3.04c0,1.02,0.14,2,0.43,2.94c0.29,0.94,0.71,1.77,1.28,2.49
					s1.25,1.29,2.08,1.72c0.82,0.43,1.78,0.64,2.86,0.64c0.99,0,1.89-0.17,2.67-0.5c0.79-0.33,1.45-0.79,1.99-1.37
					c0.54-0.58,0.95-1.26,1.21-2.04c0.26-0.78,0.38-1.62,0.34-2.53h-6.19v-2.12h8.49v10.2h-1.63L1820.89-369.33z"/>
				<path class="st4" d="M1829.73-383.46h-2.31v-2.82h2.31V-383.46z M1827.43-380.94h2.31v14.03h-2.31V-380.94z"/>
				<path class="st4" d="M1833.99-380.94h2.17v2.06h0.05c1.05-1.59,2.56-2.39,4.53-2.39c0.87,0,1.66,0.18,2.36,0.54
					c0.7,0.36,1.2,0.98,1.49,1.85c0.47-0.76,1.09-1.35,1.87-1.76c0.78-0.42,1.62-0.62,2.52-0.62c0.7,0,1.34,0.08,1.91,0.23
					c0.57,0.15,1.06,0.39,1.46,0.72c0.41,0.33,0.72,0.75,0.95,1.26s0.34,1.14,0.34,1.86v10.28h-2.31v-9.2
					c0-0.43-0.04-0.84-0.11-1.22c-0.07-0.38-0.21-0.71-0.41-0.99c-0.2-0.28-0.48-0.5-0.83-0.67c-0.35-0.16-0.81-0.24-1.37-0.24
					c-1.12,0-2.01,0.33-2.67,0.98c-0.66,0.65-0.99,1.52-0.99,2.61v8.74h-2.31v-9.2c0-0.45-0.04-0.87-0.12-1.25s-0.22-0.71-0.42-0.99
					c-0.2-0.28-0.47-0.5-0.81-0.65c-0.34-0.15-0.77-0.23-1.28-0.23c-0.69,0-1.27,0.14-1.74,0.41c-0.47,0.27-0.85,0.6-1.15,0.98
					c-0.3,0.38-0.52,0.77-0.65,1.18c-0.14,0.41-0.2,0.75-0.2,1.02v8.74h-2.31V-380.94z"/>
				<path class="st4" d="M1869.78-371.36c-0.31,1.56-0.99,2.74-2.03,3.55c-1.05,0.81-2.37,1.22-3.96,1.22
					c-1.12,0-2.09-0.19-2.92-0.56c-0.82-0.37-1.52-0.88-2.08-1.53c-0.56-0.65-0.98-1.43-1.26-2.33s-0.44-1.89-0.47-2.96
					c0-1.05,0.16-2.02,0.49-2.92c0.33-0.9,0.78-1.67,1.37-2.32c0.59-0.65,1.28-1.16,2.09-1.52c0.8-0.36,1.69-0.54,2.64-0.54
					c1.25,0,2.28,0.26,3.11,0.77c0.82,0.52,1.48,1.17,1.98,1.97c0.5,0.8,0.84,1.66,1.03,2.6c0.19,0.94,0.27,1.84,0.23,2.69h-10.5
					c-0.02,0.62,0.05,1.2,0.22,1.75c0.16,0.55,0.42,1.04,0.79,1.46c0.36,0.43,0.82,0.76,1.38,1.02c0.56,0.25,1.22,0.38,1.98,0.38
					c0.96,0,1.75-0.23,2.39-0.68s1.05-1.14,1.25-2.06H1869.78z M1867.55-375.27c-0.04-0.54-0.16-1.06-0.37-1.55
					c-0.21-0.49-0.49-0.91-0.84-1.26c-0.35-0.35-0.77-0.63-1.26-0.84c-0.49-0.21-1.01-0.31-1.57-0.31c-0.6,0-1.14,0.1-1.61,0.31
					c-0.48,0.21-0.89,0.49-1.23,0.85c-0.34,0.36-0.61,0.78-0.81,1.26c-0.2,0.48-0.32,0.99-0.35,1.53H1867.55z"/>
				<path class="st4" d="M1873.06-380.94h2.17v2.23h0.05c0.49-0.87,1.12-1.51,1.89-1.93c0.77-0.42,1.66-0.62,2.67-0.62
					c0.92,0,1.69,0.13,2.31,0.38c0.61,0.25,1.11,0.61,1.49,1.06c0.38,0.45,0.65,0.99,0.8,1.61c0.15,0.62,0.23,1.32,0.23,2.08v9.22
					h-2.31v-9.5c0-0.87-0.25-1.56-0.76-2.06c-0.51-0.51-1.2-0.76-2.09-0.76c-0.71,0-1.32,0.11-1.83,0.33
					c-0.52,0.22-0.95,0.52-1.29,0.92c-0.34,0.4-0.6,0.86-0.77,1.4c-0.17,0.53-0.26,1.12-0.26,1.75v7.92h-2.31V-380.94z"/>
				<path class="st4" d="M1888.5-376.8c0.29-0.9,0.72-1.67,1.3-2.33c0.58-0.66,1.29-1.18,2.13-1.56c0.84-0.38,1.82-0.57,2.94-0.57
					c1.1,0,2.08,0.19,2.93,0.57c0.85,0.38,1.56,0.9,2.14,1.56c0.58,0.66,1.01,1.44,1.3,2.33c0.29,0.89,0.43,1.86,0.43,2.89
					c0,1.03-0.14,1.99-0.43,2.88c-0.29,0.89-0.72,1.66-1.3,2.32s-1.29,1.18-2.14,1.56c-0.85,0.38-1.83,0.57-2.93,0.57
					c-1.12,0-2.1-0.19-2.94-0.57c-0.84-0.38-1.55-0.9-2.13-1.56c-0.58-0.66-1.01-1.43-1.3-2.32c-0.29-0.89-0.43-1.85-0.43-2.88
					C1888.06-374.95,1888.21-375.91,1888.5-376.8z M1890.84-371.65c0.23,0.66,0.54,1.21,0.94,1.65c0.4,0.44,0.86,0.78,1.4,1.02
					c0.53,0.24,1.1,0.35,1.7,0.35c0.6,0,1.16-0.12,1.7-0.35c0.53-0.23,1-0.57,1.4-1.02c0.4-0.44,0.71-0.99,0.94-1.65
					c0.23-0.66,0.34-1.41,0.34-2.26s-0.11-1.61-0.34-2.27c-0.23-0.66-0.54-1.22-0.94-1.67c-0.4-0.45-0.86-0.8-1.4-1.03
					c-0.53-0.23-1.1-0.35-1.7-0.35c-0.6,0-1.16,0.12-1.7,0.35c-0.53,0.24-1,0.58-1.4,1.03c-0.4,0.45-0.71,1.01-0.94,1.67
					c-0.23,0.66-0.34,1.42-0.34,2.27S1890.62-372.31,1890.84-371.65z"/>
				<path class="st4" d="M1913.78-386.29h2.58v19.37h-2.58V-386.29z"/>
				<path class="st4" d="M1920.67-376.8c0.29-0.9,0.72-1.67,1.3-2.33c0.58-0.66,1.29-1.18,2.13-1.56c0.84-0.38,1.82-0.57,2.94-0.57
					c1.1,0,2.08,0.19,2.93,0.57c0.85,0.38,1.56,0.9,2.14,1.56c0.58,0.66,1.01,1.44,1.3,2.33c0.29,0.89,0.43,1.86,0.43,2.89
					c0,1.03-0.14,1.99-0.43,2.88c-0.29,0.89-0.72,1.66-1.3,2.32c-0.58,0.66-1.29,1.18-2.14,1.56c-0.85,0.38-1.83,0.57-2.93,0.57
					c-1.12,0-2.1-0.19-2.94-0.57c-0.84-0.38-1.55-0.9-2.13-1.56c-0.58-0.66-1.01-1.43-1.3-2.32c-0.29-0.89-0.43-1.85-0.43-2.88
					C1920.24-374.95,1920.38-375.91,1920.67-376.8z M1923.02-371.65c0.23,0.66,0.54,1.21,0.94,1.65c0.4,0.44,0.86,0.78,1.4,1.02
					c0.53,0.24,1.1,0.35,1.7,0.35c0.6,0,1.16-0.12,1.7-0.35c0.53-0.23,1-0.57,1.4-1.02c0.4-0.44,0.71-0.99,0.94-1.65
					c0.23-0.66,0.34-1.41,0.34-2.26s-0.11-1.61-0.34-2.27c-0.23-0.66-0.54-1.22-0.94-1.67c-0.4-0.45-0.86-0.8-1.4-1.03
					c-0.53-0.23-1.1-0.35-1.7-0.35c-0.6,0-1.16,0.12-1.7,0.35c-0.53,0.24-1,0.58-1.4,1.03c-0.4,0.45-0.71,1.01-0.94,1.67
					c-0.23,0.66-0.34,1.42-0.34,2.27S1922.79-372.31,1923.02-371.65z"/>
				<path class="st4" d="M1942.02-384.17h-6.46v-2.12h15.49v2.12h-6.46v17.25h-2.58V-384.17z"/>
				<path class="st4" d="M1974.25-366.91h-2.31v-1.9h-0.05c-0.38,0.78-0.98,1.34-1.79,1.7c-0.81,0.35-1.71,0.53-2.69,0.53
					c-1.08,0-2.03-0.2-2.83-0.6c-0.8-0.4-1.47-0.94-2.01-1.61c-0.53-0.68-0.94-1.46-1.21-2.35c-0.27-0.89-0.41-1.83-0.41-2.82
					s0.13-1.93,0.39-2.81c0.26-0.88,0.66-1.65,1.19-2.32c0.53-0.67,1.2-1.2,2.01-1.59c0.8-0.39,1.74-0.58,2.81-0.58
					c0.36,0,0.75,0.04,1.17,0.11c0.42,0.07,0.83,0.19,1.25,0.37c0.42,0.17,0.81,0.4,1.18,0.68c0.37,0.28,0.68,0.63,0.94,1.04h0.05
					v-7.22h2.31V-366.91z M1963.66-371.89c0.17,0.62,0.43,1.18,0.79,1.67c0.35,0.49,0.8,0.88,1.36,1.17
					c0.55,0.29,1.2,0.43,1.94,0.43c0.78,0,1.44-0.15,1.98-0.46c0.54-0.31,0.99-0.71,1.33-1.21c0.34-0.5,0.59-1.06,0.75-1.7
					c0.15-0.63,0.23-1.27,0.23-1.93c0-0.69-0.08-1.35-0.24-1.99s-0.42-1.21-0.77-1.7c-0.35-0.49-0.81-0.88-1.37-1.18
					c-0.56-0.3-1.24-0.45-2.04-0.45c-0.8,0-1.46,0.15-1.99,0.46c-0.53,0.31-0.96,0.71-1.29,1.22c-0.33,0.51-0.56,1.08-0.7,1.74
					c-0.15,0.65-0.22,1.32-0.22,2.01C1963.4-373.15,1963.49-372.52,1963.66-371.89z"/>
				<path class="st4" d="M1980.93-383.46h-2.31v-2.82h2.31V-383.46z M1978.62-380.94h2.31v14.03h-2.31V-380.94z"/>
				<path class="st4" d="M1991.48-366.91h-2.44l-5.21-14.03h2.58l3.92,11.69h0.05l3.79-11.69h2.44L1991.48-366.91z"/>
				<path class="st4" d="M2001.87-383.46h-2.31v-2.82h2.31V-383.46z M1999.56-380.94h2.31v14.03h-2.31V-380.94z"/>
				<path class="st4" d="M2007.54-371.34c0.02,0.52,0.14,0.96,0.35,1.3c0.22,0.34,0.5,0.62,0.85,0.83c0.35,0.21,0.75,0.36,1.19,0.45
					c0.44,0.09,0.9,0.14,1.37,0.14c0.36,0,0.74-0.03,1.14-0.08c0.4-0.05,0.76-0.15,1.1-0.3c0.33-0.14,0.61-0.35,0.83-0.63
					c0.22-0.28,0.33-0.63,0.33-1.06c0-0.45-0.13-0.81-0.39-1.08c-0.26-0.28-0.61-0.5-1.03-0.68s-0.91-0.33-1.46-0.44
					c-0.55-0.12-1.12-0.24-1.7-0.36c-0.58-0.13-1.14-0.28-1.68-0.46c-0.54-0.18-1.03-0.42-1.46-0.71c-0.43-0.29-0.78-0.66-1.04-1.12
					c-0.26-0.46-0.39-1.02-0.39-1.69c0-0.71,0.16-1.32,0.48-1.83c0.32-0.51,0.72-0.92,1.22-1.24c0.5-0.32,1.06-0.56,1.68-0.71
					c0.62-0.15,1.24-0.23,1.86-0.23c0.78,0,1.51,0.07,2.18,0.2c0.68,0.14,1.27,0.37,1.79,0.71s0.93,0.79,1.23,1.36
					c0.31,0.57,0.49,1.28,0.54,2.13h-2.31c-0.04-0.45-0.16-0.83-0.37-1.13c-0.21-0.3-0.46-0.54-0.76-0.72
					c-0.3-0.18-0.63-0.31-1-0.39c-0.37-0.08-0.75-0.12-1.13-0.12c-0.34,0-0.69,0.03-1.05,0.08c-0.35,0.05-0.67,0.15-0.96,0.29
					c-0.29,0.14-0.52,0.32-0.71,0.56c-0.18,0.23-0.27,0.52-0.27,0.87c0,0.42,0.14,0.75,0.42,1c0.28,0.25,0.64,0.47,1.07,0.64
					c0.43,0.17,0.92,0.32,1.47,0.43c0.54,0.12,1.08,0.24,1.63,0.37c0.58,0.13,1.14,0.28,1.69,0.46c0.55,0.18,1.04,0.42,1.47,0.72
					c0.42,0.3,0.77,0.67,1.03,1.13c0.26,0.45,0.39,1.01,0.39,1.68c0,0.83-0.18,1.53-0.53,2.1c-0.35,0.57-0.81,1.03-1.38,1.37
					c-0.57,0.34-1.21,0.59-1.93,0.73c-0.71,0.14-1.42,0.22-2.13,0.22c-0.8,0-1.54-0.09-2.24-0.26c-0.7-0.17-1.32-0.44-1.86-0.81
					c-0.54-0.37-0.98-0.86-1.3-1.46c-0.33-0.61-0.51-1.34-0.54-2.21H2007.54z"/>
				<path class="st4" d="M2022.81-383.46h-2.31v-2.82h2.31V-383.46z M2020.51-380.94h2.31v14.03h-2.31V-380.94z"/>
				<path class="st4" d="M2026.75-376.8c0.29-0.9,0.72-1.67,1.3-2.33c0.58-0.66,1.29-1.18,2.13-1.56c0.84-0.38,1.82-0.57,2.94-0.57
					c1.1,0,2.08,0.19,2.93,0.57c0.85,0.38,1.56,0.9,2.14,1.56c0.58,0.66,1.01,1.44,1.3,2.33c0.29,0.89,0.43,1.86,0.43,2.89
					c0,1.03-0.14,1.99-0.43,2.88c-0.29,0.89-0.72,1.66-1.3,2.32c-0.58,0.66-1.29,1.18-2.14,1.56c-0.85,0.38-1.83,0.57-2.93,0.57
					c-1.12,0-2.1-0.19-2.94-0.57c-0.84-0.38-1.55-0.9-2.13-1.56c-0.58-0.66-1.01-1.43-1.3-2.32c-0.29-0.89-0.43-1.85-0.43-2.88
					C2026.31-374.95,2026.46-375.91,2026.75-376.8z M2029.09-371.65c0.23,0.66,0.54,1.21,0.94,1.65c0.4,0.44,0.86,0.78,1.4,1.02
					c0.53,0.24,1.1,0.35,1.7,0.35c0.6,0,1.16-0.12,1.7-0.35c0.53-0.23,1-0.57,1.4-1.02c0.4-0.44,0.71-0.99,0.94-1.65
					c0.23-0.66,0.34-1.41,0.34-2.26s-0.11-1.61-0.34-2.27c-0.23-0.66-0.54-1.22-0.94-1.67c-0.4-0.45-0.86-0.8-1.4-1.03
					c-0.53-0.23-1.1-0.35-1.7-0.35c-0.6,0-1.16,0.12-1.7,0.35c-0.53,0.24-1,0.58-1.4,1.03c-0.4,0.45-0.71,1.01-0.94,1.67
					c-0.23,0.66-0.34,1.42-0.34,2.27S2028.87-372.31,2029.09-371.65z"/>
				<path class="st4" d="M2043.32-380.94h2.17v2.23h0.05c0.49-0.87,1.12-1.51,1.89-1.93c0.77-0.42,1.66-0.62,2.67-0.62
					c0.92,0,1.69,0.13,2.31,0.38c0.61,0.25,1.11,0.61,1.49,1.06c0.38,0.45,0.65,0.99,0.8,1.61c0.15,0.62,0.23,1.32,0.23,2.08v9.22
					h-2.31v-9.5c0-0.87-0.25-1.56-0.76-2.06c-0.51-0.51-1.2-0.76-2.09-0.76c-0.71,0-1.32,0.11-1.83,0.33
					c-0.52,0.22-0.95,0.52-1.29,0.92c-0.34,0.4-0.6,0.86-0.77,1.4c-0.17,0.53-0.26,1.12-0.26,1.75v7.92h-2.31V-380.94z"/>
			</g>
		</g>
	</g>
	<g>
		<g>
			<g>
				<path class="st1" d="M824.28,256.13c5.12,0,9.59,1.86,13.4,5.45c3.85,3.66,5.77,8.2,5.77,13.76v246.47h-38.63V275.35
					c0-5.32,1.85-9.86,5.61-13.59C814.13,258.03,818.76,256.13,824.28,256.13z M1015.86,256.13c18.3,0,35.56,3.52,51.76,10.44
					c16.11,6.91,30.28,16.34,42.27,28.23c12.05,11.96,21.5,25.99,28.42,42.15c6.93,16.17,10.35,33.52,10.35,52.06
					c0,18.06-3.42,35.14-10.35,51.24c-6.92,16.1-16.37,30.13-28.42,42.29c-11.99,12.13-26.16,21.72-42.27,28.73
					c-16.2,7.02-33.46,10.54-51.76,10.54c-18.27,0-35.52-3.52-51.72-10.54c-16.13-7.01-30.26-16.6-42.31-28.73
					c-12.02-12.17-21.48-26.2-28.38-42.29c-6.95-16.1-10.4-33.18-10.4-51.24c0-18.54,3.45-35.89,10.4-52.06
					c6.9-16.16,16.37-30.19,28.38-42.15c12.04-11.9,26.18-21.32,42.31-28.23C980.34,259.65,997.59,256.13,1015.86,256.13z
					 M1015.86,481.59c12.77,0,24.84-2.44,36.07-7.32c11.31-4.92,21.16-11.53,29.54-19.83c8.44-8.3,15-18.09,19.81-29.38
					c4.78-11.25,7.22-23.32,7.22-36.06c0-12.98-2.44-25.11-7.22-36.43c-4.81-11.28-11.37-21.08-19.81-29.52
					c-8.37-8.37-18.23-15.04-29.54-19.96c-11.23-4.88-23.3-7.35-36.07-7.35c-12.8,0-24.78,2.47-36.09,7.35
					c-11.25,4.92-21.06,11.59-29.52,19.96c-8.4,8.44-15.01,18.23-19.77,29.52c-4.79,11.32-7.18,23.45-7.18,36.43
					c0,12.74,2.39,24.81,7.18,36.06c4.76,11.29,11.37,21.08,19.77,29.38c8.46,8.3,18.27,14.91,29.52,19.83
					C991.08,479.15,1003.06,481.59,1015.86,481.59z M1168.24,255.86h120.05c4.91,0,9.12,1.77,12.59,5.29
					c3.54,3.5,5.3,7.83,5.3,12.92c0,5.08-1.76,9.52-5.3,13.22c-3.47,3.76-7.68,5.62-12.59,5.62h-41.52v228.61h-37.99V292.9h-40.55
					c-5.12,0-9.47-1.86-13.09-5.62c-3.61-3.7-5.44-8.14-5.44-13.22c0-5.08,1.83-9.42,5.44-12.92
					C1158.77,257.63,1163.12,255.86,1168.24,255.86z M1405.92,363.46h28.11c10.62,0,20.57,2.13,29.84,6.37
					c9.29,4.27,17.35,9.96,24.26,17.08c6.92,7.12,12.35,15.45,16.3,25.08c3.93,9.56,5.9,19.78,5.9,30.66
					c0,10.81-2.08,21.05-6.25,30.64c-4.15,9.59-9.85,17.89-17.03,25.05c-7.25,7.15-15.66,12.88-25.26,17.11
					c-9.56,4.24-19.78,6.37-30.67,6.37h-97.02v-39.55h97.02c5.34,0,10.49-1.05,15.34-3.12c4.88-1.97,9.2-4.75,12.82-8.27
					c3.59-3.52,6.48-7.69,8.59-12.61c2.12-4.88,3.17-10.1,3.17-15.62c0-5.56-1.05-10.77-3.17-15.66c-2.12-4.88-5-9.15-8.59-12.81
					c-3.63-3.56-7.94-6.41-12.82-8.44c-4.85-2-10-3.05-15.34-3.05h-25.19c-2.36,0-4.54-0.1-6.57-0.34
					c-1.97-0.17-4.05-0.37-6.17-0.61c-8.51-1.66-16.45-4.67-23.81-8.91c-7.34-4.27-13.76-9.56-19.17-15.96
					c-5.42-6.41-9.72-13.62-12.91-21.72c-3.21-8.06-4.81-16.7-4.81-25.89c0-10,1.91-19.45,5.75-28.37
					c3.84-8.94,9.05-16.7,15.67-23.31c6.56-6.61,14.34-11.86,23.32-15.66c8.93-3.83,18.49-5.79,28.7-5.79h73.1
					c5.32,0,9.94,1.86,13.76,5.45c3.81,3.66,5.76,8.2,5.76,13.76c0,5.76-1.95,10.44-5.76,14.03c-3.81,3.63-8.44,5.42-13.76,5.42
					l-73.1,0.64c-4.68,0-9.07,0.91-13.25,2.75c-4.15,1.79-7.76,4.24-10.86,7.32c-3.12,3.09-5.52,6.61-7.34,10.68
					c-1.82,4.07-2.68,8.44-2.68,13.08c0,4.91,0.87,9.42,2.68,13.59c1.81,4.13,4.22,7.73,7.34,10.71c3.1,2.95,6.71,5.39,10.86,7.22
					C1396.85,362.58,1401.24,363.46,1405.92,363.46z M1587.24,482.27h132.5v39.55h-171.48V275.35c0-5.56,1.9-10.1,5.61-13.76
					c3.71-3.59,8.34-5.45,13.91-5.45h122.92c4.64,0,8.62,1.62,11.93,4.81c3.31,3.22,5,7.15,5,11.83c0,4.92-1.69,9.02-5,12.3
					c-3.3,3.33-7.28,4.95-11.93,4.95h-103.46v76.93h68.93v35.15h-68.93V482.27z M1860.87,256.13c14.04,0,27.3,2.71,39.73,8.03
					c12.45,5.32,23.33,12.54,32.58,21.69c9.24,9.15,16.54,19.93,21.86,32.26c5.29,12.33,7.94,25.55,7.94,39.59v164.12h-39.55V357.7
					c0-8.51-1.66-16.51-4.96-24.06c-3.31-7.62-7.76-14.16-13.44-19.83c-5.6-5.65-12.25-10.09-19.94-13.38
					c-7.63-3.32-15.72-4.98-24.23-4.98c-8.75,0-16.91,1.66-24.49,4.98c-7.5,3.29-14.06,7.73-19.6,13.38
					c-5.52,5.66-9.91,12.21-13.25,19.83c-3.3,7.56-4.93,15.56-4.93,24.06v164.12h-39.3V357.7c0-14.03,2.7-27.25,8-39.59
					c5.29-12.33,12.6-23.11,21.86-32.26c9.27-9.15,20.03-16.37,32.23-21.69C1833.66,258.84,1846.79,256.13,1860.87,256.13z
					 M2074.51,363.46h28.08c10.64,0,20.65,2.13,29.85,6.37c9.29,4.27,17.37,9.96,24.27,17.08c6.95,7.12,12.36,15.45,16.3,25.08
					c3.95,9.56,5.92,19.78,5.92,30.66c0,10.81-2.07,21.05-6.2,30.64c-4.15,9.59-9.85,17.89-17.1,25.05
					c-7.22,7.15-15.67,12.88-25.23,17.11c-9.59,4.24-19.8,6.37-30.67,6.37h-97.06v-39.55h97.06c5.35,0,10.44-1.05,15.35-3.12
					c4.88-1.97,9.11-4.75,12.76-8.27c3.61-3.52,6.45-7.69,8.64-12.61c2.12-4.88,3.15-10.1,3.15-15.62c0-5.56-1.03-10.77-3.15-15.66
					c-2.19-4.88-5.03-9.15-8.64-12.81c-3.65-3.56-7.88-6.41-12.76-8.44c-4.92-2-10-3.05-15.35-3.05h-25.21
					c-2.34,0-4.56-0.1-6.54-0.34c-2.02-0.17-4.13-0.37-6.22-0.61c-8.52-1.66-16.45-4.67-23.77-8.91
					c-7.37-4.27-13.77-9.56-19.16-15.96c-5.46-6.41-9.74-13.62-12.96-21.72c-3.19-8.06-4.73-16.7-4.73-25.89
					c0-10,1.88-19.45,5.72-28.37c3.81-8.94,9.03-16.7,15.6-23.31c6.63-6.61,14.42-11.86,23.33-15.66c8.96-3.83,18.5-5.79,28.74-5.79
					h73.09c5.32,0,9.93,1.86,13.76,5.45c3.83,3.66,5.73,8.2,5.73,13.76c0,5.76-1.9,10.44-5.73,14.03
					c-3.83,3.63-8.44,5.42-13.76,5.42l-73.09,0.64c-4.66,0-9.12,0.91-13.24,2.75c-4.17,1.79-7.8,4.24-10.88,7.32
					c-3.07,3.09-5.52,6.61-7.34,10.68c-1.81,4.07-2.75,8.44-2.75,13.08c0,4.91,0.94,9.42,2.75,13.59c1.81,4.13,4.27,7.73,7.34,10.71
					c3.08,2.95,6.71,5.39,10.88,7.22C2065.39,362.58,2069.85,363.46,2074.51,363.46z"/>
			</g>
			<g>
				<path class="st2" d="M621.64,408.91c-12.46,100.14-97.85,177.61-201.33,177.61c-103.49,0-188.87-77.47-201.33-177.61H166
					c12.7,129.27,121.71,230.27,254.3,230.27c132.6,0,241.6-101,254.3-230.27H621.64z M420.3,128.08
					c-132.6,0-241.6,100.99-254.3,230.25h52.97c12.46-100.1,97.84-177.58,201.33-177.58c103.48,0,188.87,77.48,201.33,177.58h52.96
					C661.91,229.07,552.9,128.08,420.3,128.08z"/>
				<g>
					<path class="st3" d="M473.99,383.64c0-29.61-24.07-53.65-53.71-53.65c-29.61,0-53.64,24.05-53.64,53.65
						c0,29.64,24.03,53.65,53.64,53.65C449.92,437.3,473.99,413.28,473.99,383.64z"/>
				</g>
			</g>
		</g>
	</g>
	<g>
		<g>
			<g>
				<path class="st4" d="M1508.68,613.53c-1.11,1.47-2.36,2.74-3.75,3.79c-1.4,1.05-2.88,1.92-4.46,2.6
					c-1.58,0.68-3.21,1.18-4.89,1.5s-3.34,0.47-4.97,0.47c-4.21,0-7.97-0.79-11.29-2.37c-3.32-1.58-6.13-3.68-8.45-6.31
					c-2.32-2.63-4.08-5.66-5.29-9.08c-1.21-3.42-1.82-6.97-1.82-10.66c0-4.1,0.56-8.01,1.7-11.72c1.13-3.71,2.82-6.96,5.05-9.75
					c2.23-2.79,5.02-5.01,8.37-6.67c3.34-1.66,7.25-2.49,11.72-2.49c3.05,0,5.93,0.36,8.64,1.07c2.71,0.71,5.13,1.83,7.26,3.35
					c2.13,1.53,3.92,3.46,5.37,5.8c1.45,2.34,2.43,5.17,2.96,8.49h-7.5c-0.37-2.13-1.05-4-2.05-5.6c-1-1.6-2.24-2.91-3.71-3.92
					c-1.48-1.01-3.15-1.77-5.01-2.28c-1.87-0.51-3.86-0.76-5.96-0.76c-3.42,0-6.35,0.69-8.8,2.07c-2.45,1.38-4.45,3.19-6,5.44
					c-1.55,2.25-2.7,4.82-3.43,7.71c-0.74,2.89-1.1,5.84-1.1,8.86c0,2.97,0.42,5.82,1.26,8.54c0.84,2.73,2.08,5.14,3.71,7.23
					c1.63,2.09,3.64,3.76,6.04,5.01c2.39,1.25,5.17,1.87,8.33,1.87c2.89,0,5.49-0.48,7.77-1.44c2.29-0.96,4.22-2.29,5.8-3.97
					s2.75-3.67,3.51-5.94c0.76-2.27,1.09-4.72,0.99-7.35h-18v-6.16h24.71v29.68h-4.73L1508.68,613.53z"/>
				<path class="st4" d="M1534.41,572.4h-6.71v-8.21h6.71V572.4z M1527.7,579.74h6.71v40.81h-6.71V579.74z"/>
				<path class="st4" d="M1546.8,579.74h6.31v6h0.16c3.05-4.63,7.45-6.95,13.18-6.95c2.53,0,4.82,0.53,6.87,1.58
					c2.05,1.05,3.5,2.84,4.34,5.37c1.37-2.21,3.18-3.92,5.45-5.13c2.26-1.21,4.71-1.82,7.34-1.82c2.05,0,3.91,0.23,5.57,0.67
					c1.66,0.45,3.08,1.15,4.26,2.09c1.18,0.95,2.1,2.17,2.76,3.67c0.66,1.5,0.99,3.3,0.99,5.41v29.92h-6.71v-26.76
					c0-1.26-0.1-2.45-0.32-3.55c-0.21-1.11-0.6-2.07-1.18-2.88c-0.58-0.82-1.38-1.46-2.41-1.93s-2.36-0.71-3.99-0.71
					c-3.26,0-5.85,0.95-7.77,2.84c-1.92,1.9-2.88,4.42-2.88,7.58v25.42h-6.71v-26.76c0-1.31-0.12-2.52-0.36-3.63
					c-0.24-1.11-0.65-2.07-1.22-2.88c-0.58-0.82-1.37-1.45-2.37-1.9c-1-0.45-2.24-0.67-3.71-0.67c-2,0-3.68,0.39-5.05,1.18
					s-2.49,1.74-3.35,2.84s-1.5,2.25-1.9,3.43c-0.39,1.18-0.59,2.17-0.59,2.96v25.42h-6.71V579.74z"/>
				<path class="st4" d="M1650.92,607.61c-0.9,4.53-2.87,7.97-5.92,10.34c-3.05,2.37-6.89,3.55-11.52,3.55
					c-3.26,0-6.09-0.54-8.49-1.62c-2.39-1.08-4.41-2.56-6.04-4.46c-1.63-1.89-2.85-4.16-3.67-6.79c-0.82-2.63-1.28-5.5-1.38-8.6
					c0-3.05,0.47-5.88,1.42-8.49c0.95-2.61,2.28-4.85,3.99-6.75c1.71-1.89,3.74-3.37,6.08-4.42c2.34-1.05,4.91-1.58,7.7-1.58
					c3.63,0,6.64,0.75,9.04,2.25c2.4,1.5,4.31,3.41,5.76,5.72c1.44,2.32,2.45,4.84,3,7.58c0.55,2.74,0.78,5.34,0.67,7.81H1621
					c-0.05,1.79,0.16,3.49,0.63,5.09c0.47,1.61,1.24,3.03,2.29,4.26c1.05,1.24,2.39,2.22,4.03,2.96c1.63,0.74,3.55,1.11,5.76,1.11
					c2.79,0,5.1-0.66,6.95-1.97c1.84-1.31,3.05-3.32,3.63-6H1650.92z M1644.45,596.24c-0.1-1.58-0.46-3.08-1.06-4.5
					c-0.61-1.42-1.42-2.65-2.45-3.67c-1.03-1.02-2.25-1.84-3.67-2.45c-1.42-0.6-2.95-0.91-4.58-0.91c-1.74,0-3.3,0.3-4.7,0.91
					c-1.39,0.61-2.59,1.43-3.59,2.49c-1,1.05-1.79,2.28-2.37,3.67c-0.58,1.39-0.92,2.88-1.03,4.46H1644.45z"/>
				<path class="st4" d="M1660.47,579.74h6.31v6.47h0.16c1.42-2.53,3.25-4.4,5.49-5.61c2.24-1.21,4.83-1.82,7.77-1.82
					c2.69,0,4.92,0.37,6.71,1.11c1.79,0.74,3.24,1.77,4.34,3.08c1.11,1.31,1.88,2.88,2.33,4.69c0.45,1.82,0.67,3.83,0.67,6.04v26.84
					h-6.71v-27.63c0-2.52-0.74-4.53-2.21-6c-1.47-1.47-3.5-2.21-6.08-2.21c-2.05,0-3.83,0.32-5.33,0.95
					c-1.5,0.63-2.75,1.53-3.75,2.68c-1,1.16-1.75,2.51-2.25,4.07c-0.5,1.55-0.75,3.25-0.75,5.09v23.05h-6.71V579.74z"/>
				<path class="st4" d="M1705.39,591.78c0.84-2.61,2.1-4.87,3.79-6.79c1.68-1.92,3.75-3.43,6.2-4.54c2.45-1.11,5.3-1.66,8.56-1.66
					c3.21,0,6.05,0.55,8.53,1.66c2.47,1.11,4.55,2.62,6.23,4.54c1.68,1.92,2.95,4.18,3.79,6.79c0.84,2.6,1.26,5.41,1.26,8.41
					c0,3-0.42,5.79-1.26,8.37c-0.84,2.58-2.11,4.83-3.79,6.75c-1.68,1.92-3.76,3.43-6.23,4.54c-2.47,1.11-5.32,1.66-8.53,1.66
					c-3.26,0-6.12-0.55-8.56-1.66c-2.45-1.11-4.51-2.62-6.2-4.54c-1.68-1.92-2.95-4.17-3.79-6.75c-0.84-2.58-1.26-5.37-1.26-8.37
					C1704.12,597.19,1704.54,594.39,1705.39,591.78z M1712.22,606.78c0.66,1.92,1.56,3.53,2.72,4.82c1.16,1.29,2.51,2.28,4.07,2.96
					c1.55,0.69,3.2,1.03,4.93,1.03c1.74,0,3.38-0.34,4.93-1.03c1.55-0.68,2.91-1.67,4.07-2.96c1.16-1.29,2.07-2.89,2.72-4.82
					c0.66-1.92,0.99-4.12,0.99-6.59c0-2.47-0.33-4.67-0.99-6.59c-0.66-1.92-1.57-3.54-2.72-4.85c-1.16-1.31-2.51-2.31-4.07-3
					c-1.55-0.68-3.2-1.03-4.93-1.03c-1.74,0-3.38,0.34-4.93,1.03c-1.55,0.69-2.91,1.68-4.07,3c-1.16,1.32-2.07,2.93-2.72,4.85
					c-0.66,1.92-0.99,4.12-0.99,6.59C1711.23,602.66,1711.56,604.86,1712.22,606.78z"/>
				<path class="st4" d="M1778.96,564.19h7.5v56.36h-7.5V564.19z"/>
				<path class="st4" d="M1799.01,591.78c0.84-2.61,2.1-4.87,3.79-6.79c1.68-1.92,3.75-3.43,6.2-4.54c2.45-1.11,5.3-1.66,8.56-1.66
					c3.21,0,6.05,0.55,8.53,1.66c2.47,1.11,4.55,2.62,6.23,4.54c1.68,1.92,2.95,4.18,3.79,6.79c0.84,2.6,1.26,5.41,1.26,8.41
					c0,3-0.42,5.79-1.26,8.37c-0.84,2.58-2.11,4.83-3.79,6.75c-1.68,1.92-3.76,3.43-6.23,4.54c-2.47,1.11-5.32,1.66-8.53,1.66
					c-3.26,0-6.12-0.55-8.56-1.66c-2.45-1.11-4.51-2.62-6.2-4.54c-1.68-1.92-2.95-4.17-3.79-6.75c-0.84-2.58-1.26-5.37-1.26-8.37
					C1797.74,597.19,1798.16,594.39,1799.01,591.78z M1805.84,606.78c0.66,1.92,1.56,3.53,2.72,4.82c1.16,1.29,2.51,2.28,4.07,2.96
					c1.55,0.69,3.2,1.03,4.93,1.03c1.74,0,3.38-0.34,4.93-1.03c1.55-0.68,2.91-1.67,4.07-2.96c1.16-1.29,2.07-2.89,2.72-4.82
					c0.66-1.92,0.99-4.12,0.99-6.59c0-2.47-0.33-4.67-0.99-6.59c-0.66-1.92-1.57-3.54-2.72-4.85c-1.16-1.31-2.51-2.31-4.07-3
					c-1.55-0.68-3.2-1.03-4.93-1.03c-1.74,0-3.38,0.34-4.93,1.03c-1.55,0.69-2.91,1.68-4.07,3c-1.16,1.32-2.07,2.93-2.72,4.85
					c-0.66,1.92-0.99,4.12-0.99,6.59C1804.85,602.66,1805.18,604.86,1805.84,606.78z"/>
				<path class="st4" d="M1861.13,570.35h-18.79v-6.16h45.07v6.16h-18.79v50.21h-7.5V570.35z"/>
				<path class="st4" d="M1954.91,620.55h-6.71v-5.53h-0.16c-1.11,2.26-2.84,3.91-5.21,4.93c-2.37,1.03-4.97,1.54-7.81,1.54
					c-3.16,0-5.91-0.58-8.25-1.74c-2.34-1.16-4.29-2.72-5.84-4.7c-1.55-1.97-2.72-4.25-3.51-6.83c-0.79-2.58-1.18-5.31-1.18-8.21
					c0-2.89,0.38-5.62,1.15-8.17c0.76-2.55,1.92-4.8,3.47-6.75c1.55-1.95,3.5-3.48,5.84-4.62c2.34-1.13,5.06-1.7,8.17-1.7
					c1.05,0,2.18,0.11,3.39,0.32c1.21,0.21,2.42,0.57,3.63,1.07c1.21,0.5,2.35,1.16,3.43,1.97c1.08,0.82,1.99,1.83,2.72,3.04h0.16
					v-21h6.71V620.55z M1924.08,606.07c0.5,1.82,1.26,3.44,2.29,4.85c1.03,1.42,2.34,2.55,3.95,3.39c1.61,0.84,3.49,1.26,5.64,1.26
					c2.26,0,4.18-0.45,5.76-1.34c1.58-0.89,2.87-2.06,3.87-3.51c1-1.45,1.72-3.09,2.17-4.93c0.45-1.84,0.67-3.71,0.67-5.6
					c0-2-0.24-3.93-0.71-5.8c-0.47-1.87-1.22-3.51-2.25-4.93c-1.03-1.42-2.36-2.56-3.99-3.43c-1.63-0.87-3.61-1.3-5.92-1.3
					c-2.32,0-4.25,0.45-5.8,1.34c-1.55,0.89-2.8,2.08-3.75,3.55c-0.95,1.48-1.63,3.16-2.05,5.05c-0.42,1.89-0.63,3.84-0.63,5.84
					C1923.33,602.4,1923.58,604.25,1924.08,606.07z"/>
				<path class="st4" d="M1974.32,572.4h-6.71v-8.21h6.71V572.4z M1967.61,579.74h6.71v40.81h-6.71V579.74z"/>
				<path class="st4" d="M2005.03,620.55h-7.11l-15.15-40.81h7.5l11.4,34.02h0.16l11.02-34.02h7.1L2005.03,620.55z"/>
				<path class="st4" d="M2035.26,572.4h-6.71v-8.21h6.71V572.4z M2028.55,579.74h6.71v40.81h-6.71V579.74z"/>
				<path class="st4" d="M2051.76,607.69c0.05,1.53,0.4,2.79,1.03,3.79c0.63,1,1.46,1.8,2.49,2.41c1.03,0.6,2.18,1.04,3.47,1.3
					c1.29,0.26,2.62,0.39,3.99,0.39c1.05,0,2.16-0.08,3.32-0.23c1.16-0.16,2.22-0.44,3.2-0.86c0.97-0.42,1.78-1.03,2.41-1.83
					c0.63-0.81,0.95-1.83,0.95-3.08c0-1.3-0.38-2.35-1.15-3.16c-0.76-0.81-1.76-1.47-3-1.99s-2.66-0.95-4.26-1.29
					c-1.61-0.34-3.25-0.69-4.93-1.06c-1.68-0.37-3.31-0.82-4.89-1.35c-1.58-0.53-3-1.22-4.26-2.07c-1.26-0.85-2.28-1.93-3.04-3.26
					c-0.76-1.33-1.15-2.97-1.15-4.93c0-2.07,0.46-3.84,1.38-5.32c0.92-1.48,2.1-2.69,3.55-3.61c1.45-0.93,3.08-1.62,4.89-2.07
					c1.82-0.45,3.62-0.68,5.41-0.68c2.26,0,4.38,0.2,6.35,0.59c1.97,0.39,3.71,1.08,5.21,2.05c1.5,0.97,2.7,2.29,3.59,3.95
					c0.89,1.66,1.42,3.72,1.58,6.2h-6.71c-0.11-1.31-0.46-2.41-1.07-3.28c-0.61-0.87-1.34-1.56-2.21-2.09
					c-0.87-0.53-1.84-0.91-2.92-1.15c-1.08-0.24-2.17-0.36-3.28-0.36c-1,0-2.01,0.08-3.04,0.24c-1.02,0.16-1.96,0.43-2.8,0.83
					c-0.84,0.39-1.53,0.93-2.05,1.62c-0.53,0.68-0.79,1.53-0.79,2.52c0,1.21,0.41,2.18,1.22,2.92c0.82,0.74,1.86,1.36,3.12,1.86
					c1.26,0.5,2.68,0.92,4.26,1.26c1.58,0.34,3.16,0.7,4.74,1.06c1.68,0.37,3.33,0.82,4.93,1.34c1.6,0.53,3.03,1.22,4.26,2.09
					c1.24,0.87,2.23,1.96,3,3.28c0.76,1.31,1.15,2.95,1.15,4.89c0,2.42-0.51,4.46-1.54,6.12c-1.03,1.66-2.37,2.99-4.03,3.99
					c-1.66,1-3.53,1.71-5.61,2.13c-2.08,0.42-4.14,0.63-6.2,0.63c-2.32,0-4.49-0.25-6.51-0.75c-2.03-0.5-3.83-1.29-5.41-2.37
					c-1.58-1.08-2.84-2.5-3.79-4.26c-0.95-1.76-1.47-3.91-1.58-6.43H2051.76z"/>
				<path class="st4" d="M2096.2,572.4h-6.71v-8.21h6.71V572.4z M2089.49,579.74h6.71v40.81h-6.71V579.74z"/>
				<path class="st4" d="M2107.65,591.78c0.84-2.61,2.1-4.87,3.79-6.79c1.68-1.92,3.75-3.43,6.2-4.54c2.45-1.11,5.3-1.66,8.56-1.66
					c3.21,0,6.05,0.55,8.53,1.66s4.55,2.62,6.23,4.54c1.68,1.92,2.95,4.18,3.79,6.79c0.84,2.6,1.26,5.41,1.26,8.41
					c0,3-0.42,5.79-1.26,8.37c-0.84,2.58-2.11,4.83-3.79,6.75c-1.68,1.92-3.76,3.43-6.23,4.54s-5.32,1.66-8.53,1.66
					c-3.26,0-6.12-0.55-8.56-1.66c-2.45-1.11-4.51-2.62-6.2-4.54c-1.68-1.92-2.95-4.17-3.79-6.75c-0.84-2.58-1.26-5.37-1.26-8.37
					C2106.38,597.19,2106.8,594.39,2107.65,591.78z M2114.48,606.78c0.66,1.92,1.56,3.53,2.72,4.82c1.16,1.29,2.51,2.28,4.07,2.96
					c1.55,0.69,3.2,1.03,4.93,1.03c1.74,0,3.38-0.34,4.93-1.03c1.55-0.68,2.91-1.67,4.07-2.96c1.16-1.29,2.07-2.89,2.72-4.82
					c0.66-1.92,0.99-4.12,0.99-6.59c0-2.47-0.33-4.67-0.99-6.59c-0.66-1.92-1.57-3.54-2.72-4.85c-1.16-1.31-2.51-2.31-4.07-3
					c-1.55-0.68-3.2-1.03-4.93-1.03c-1.74,0-3.38,0.34-4.93,1.03c-1.55,0.69-2.91,1.68-4.07,3c-1.16,1.32-2.07,2.93-2.72,4.85
					c-0.66,1.92-0.99,4.12-0.99,6.59C2113.49,602.66,2113.82,604.86,2114.48,606.78z"/>
				<path class="st4" d="M2155.88,579.74h6.31v6.47h0.16c1.42-2.53,3.25-4.4,5.49-5.61c2.24-1.21,4.83-1.82,7.77-1.82
					c2.69,0,4.92,0.37,6.71,1.11c1.79,0.74,3.24,1.77,4.34,3.08c1.11,1.31,1.88,2.88,2.33,4.69c0.45,1.82,0.67,3.83,0.67,6.04v26.84
					h-6.71v-27.63c0-2.52-0.74-4.53-2.21-6c-1.47-1.47-3.5-2.21-6.08-2.21c-2.05,0-3.83,0.32-5.33,0.95
					c-1.5,0.63-2.75,1.53-3.75,2.68c-1,1.16-1.75,2.51-2.25,4.07c-0.5,1.55-0.75,3.25-0.75,5.09v23.05h-6.71V579.74z"/>
			</g>
		</g>
	</g>
</g>
</svg>
